<svg xmlns="http://www.w3.org/2000/svg" xmlns:xlink="http://www.w3.org/1999/xlink" viewBox="0 0 512 512" width="512" height="512" preserveAspectRatio="xMidYMid meet"><defs><clipPath id="__lottie_element_546"><rect width="512" height="512" x="0" y="0"></rect></clipPath><g id="__lottie_element_547"><g style="display: block;" transform="matrix(1,0,0,1,256,257.4164733886719)" opacity="1"><path fill="rgb(255,0,0)" fill-opacity="1" d=" M56.13,-73.07 C56.13,-73.07 -122.73,-73.07 -122.73,-73.07 C-155.65,-73.07 -182.35,-99.76 -182.35,-132.69 C-182.35,-165.61 -155.65,-192.31 -122.73,-192.31 C-122.73,-192.31 56.13,-192.31 56.13,-192.31 C89.05,-192.31 115.75,-165.61 115.75,-132.69 C115.75,-99.76 89.05,-73.07 56.13,-73.07z"></path><g opacity="1" transform="matrix(1,0,0,0.9833674430847168,0,-0.05809760093688965)"><g opacity="1" transform="matrix(0.9833674430847168,0,0,1,-0.05818057060241699,0)"></g></g></g></g><mask id="__lottie_element_547_1" mask-type="alpha"><use xlink:href="#__lottie_element_547"></use></mask></defs><g clip-path="url(#__lottie_element_546)"><g style="display: block;" transform="matrix(1,0,0,1,256,257.4164733886719)" opacity="1"><path stroke-linecap="round" stroke-linejoin="round" fill-opacity="0" stroke="rgb(0,0,0)" stroke-opacity="1" stroke-width="32" d=" M-23.38,185.32 C-45.34,185.32 -63.12,167.52 -63.12,145.58 C-63.12,145.58 -63.12,85.94 -63.12,85.94 C-63.12,64 -45.34,46.2 -23.38,46.2 C-1.41,46.2 16.36,64 16.36,85.94 C16.36,85.94 16.36,145.58 16.36,145.58 C16.36,167.52 -1.41,185.32 -23.38,185.32z M115.73,-132.69 C148.65,-132.69 175.35,-105.97 175.35,-73.05 C175.35,-40.13 148.66,-13.43 115.73,-13.43 C115.73,-13.43 36.23,-13.43 36.23,-13.43 C3.31,-13.43 -23.37,13.26 -23.37,46.18 M56.13,-73.07 C56.13,-73.07 -122.73,-73.07 -122.73,-73.07 C-155.65,-73.07 -182.35,-99.76 -182.35,-132.69 C-182.35,-165.61 -155.65,-192.31 -122.73,-192.31 C-122.73,-192.31 56.13,-192.31 56.13,-192.31 C89.05,-192.31 115.75,-165.61 115.75,-132.69 C115.75,-99.76 89.05,-73.07 56.13,-73.07z"></path><g opacity="1" transform="matrix(1,0,0,0.9833674430847168,0,-0.05809760093688965)"><g opacity="1" transform="matrix(0.9833674430847168,0,0,1,-0.05818057060241699,0)"></g></g></g><g style="display: none;" mask="url(#__lottie_element_547_1)"><g><g><path stroke-linecap="butt" stroke-linejoin="miter" fill-opacity="0" stroke-miterlimit="4"></path></g></g></g></g></svg>