<svg width="1606" height="220" viewBox="0 0 1606 220" fill="none" xmlns="http://www.w3.org/2000/svg">
<path d="M49.228 213.24C37.076 213.24 26.8253 208.941 18.476 200.344C10.2093 191.664 6.076 181 6.076 168.352C6.076 155.869 10.2093 145.371 18.476 136.856C26.8253 128.259 37.076 123.96 49.228 123.96C58.8173 123.96 67.2907 126.729 74.648 132.268C82.088 137.724 86.6347 144.751 88.288 153.348H77.996C76.3427 147.313 72.8293 142.436 67.456 138.716C62.1653 134.913 56.0893 133.012 49.228 133.012C39.804 133.012 31.868 136.401 25.42 143.18C18.972 149.959 15.748 158.349 15.748 168.352C15.748 178.437 18.972 186.952 25.42 193.896C31.868 200.757 39.804 204.188 49.228 204.188C56.2547 204.188 62.4133 202.204 67.704 198.236C73.0773 194.268 76.5493 189.101 78.12 182.736H88.536C86.7173 191.747 82.1293 199.104 74.772 204.808C67.4973 210.429 58.9827 213.24 49.228 213.24ZM113.056 136.856C121.488 128.259 131.863 123.96 144.18 123.96C156.497 123.96 166.872 128.259 175.304 136.856C183.736 145.371 187.952 155.869 187.952 168.352C187.952 181 183.736 191.664 175.304 200.344C166.872 208.941 156.497 213.24 144.18 213.24C131.863 213.24 121.488 208.941 113.056 200.344C104.624 191.664 100.408 181 100.408 168.352C100.408 155.869 104.624 145.371 113.056 136.856ZM168.36 143.18C161.829 136.401 153.769 133.012 144.18 133.012C134.591 133.012 126.489 136.401 119.876 143.18C113.345 149.959 110.08 158.349 110.08 168.352C110.08 178.437 113.345 186.952 119.876 193.896C126.489 200.757 134.591 204.188 144.18 204.188C153.769 204.188 161.829 200.757 168.36 193.896C174.973 186.952 178.28 178.437 178.28 168.352C178.28 158.349 174.973 149.959 168.36 143.18ZM203.788 125.2H213.088V203.072H256.984V212H203.788V125.2ZM271.359 125.2H280.659V203.072H324.555V212H271.359V125.2ZM398.573 212L390.141 190.796H349.097L340.665 212H330.745L365.465 125.2H373.897L408.741 212H398.573ZM352.693 181.868H386.669L369.681 138.964L352.693 181.868ZM420.183 212V125.2H450.315C457.093 125.2 462.88 127.349 467.675 131.648C472.469 135.864 474.867 140.948 474.867 146.9C474.867 151.529 473.461 155.704 470.651 159.424C467.84 163.061 464.327 165.293 460.111 166.12C465.567 166.699 470.155 169.096 473.875 173.312C477.595 177.445 479.455 182.364 479.455 188.068C479.455 194.764 476.975 200.427 472.015 205.056C467.137 209.685 461.144 212 454.035 212H420.183ZM429.483 163.02H450.067C454.365 163.02 458.003 161.573 460.979 158.68C463.955 155.787 465.443 152.273 465.443 148.14C465.443 144.255 463.913 140.948 460.855 138.22C457.879 135.492 454.283 134.128 450.067 134.128H429.483V163.02ZM429.483 203.072H453.539C458.251 203.072 462.136 201.543 465.195 198.484C468.336 195.343 469.907 191.499 469.907 186.952C469.907 182.405 468.336 178.603 465.195 175.544C462.053 172.403 458.209 170.832 453.663 170.832H429.483V203.072ZM565.86 200.096C557.18 208.859 546.682 213.24 534.364 213.24C522.047 213.24 511.507 208.859 502.744 200.096C494.064 191.333 489.724 180.835 489.724 168.6C489.724 156.365 494.064 145.867 502.744 137.104C511.507 128.341 522.047 123.96 534.364 123.96C546.682 123.96 557.18 128.341 565.86 137.104C574.623 145.867 579.004 156.365 579.004 168.6C579.004 180.835 574.623 191.333 565.86 200.096ZM656.921 212H645.637L621.333 174.8H604.221V212H594.921V125.2H626.293C633.485 125.2 639.561 127.556 644.521 132.268C649.481 136.98 651.961 142.808 651.961 149.752C651.961 156.283 650.101 161.78 646.381 166.244C642.744 170.625 637.825 173.353 631.625 174.428L656.921 212ZM604.221 134.128V165.872H626.045C630.84 165.872 634.766 164.343 637.825 161.284C640.966 158.225 642.537 154.381 642.537 149.752C642.537 145.205 640.966 141.485 637.825 138.592C634.766 135.616 630.84 134.128 626.045 134.128H604.221ZM728.674 212L720.242 190.796H679.198L670.766 212H660.846L695.566 125.2H703.998L738.842 212H728.674ZM682.794 181.868H716.77L699.782 138.964L682.794 181.868ZM797.709 125.2V134.128H769.189V212H759.889V134.128H731.369V125.2H797.709ZM811.073 125.2H859.557V134.128H820.373V161.16H855.341V170.088H820.373V203.072H859.557V212H811.073V125.2Z" fill="white"/>
<path d="M6.636 26.2H12.936V78.952H42.672V85H6.636V26.2ZM52.4094 26.2H85.2534V32.248H58.7094V50.56H82.3974V56.608H58.7094V78.952H85.2534V85H52.4094V26.2ZM137.364 26.2V32.248H118.044V85H111.744V32.248H92.4243V26.2H137.364ZM153.809 26.704C153.809 27.544 153.417 28.804 152.633 30.484L147.341 41.068H143.813L147.509 31.156C145.437 30.428 144.401 28.944 144.401 26.704C144.401 25.36 144.849 24.24 145.745 23.344C146.697 22.448 147.817 22 149.105 22C150.449 22 151.569 22.448 152.465 23.344C153.361 24.24 153.809 25.36 153.809 26.704ZM180.657 85.84C174.553 85.84 169.485 84.048 165.453 80.464C161.477 76.824 159.489 72.26 159.489 66.772H165.705C165.705 70.636 167.105 73.8 169.905 76.264C172.705 78.672 176.289 79.876 180.657 79.876C184.745 79.876 188.133 78.868 190.821 76.852C193.509 74.836 194.853 72.26 194.853 69.124C194.853 66.492 193.985 64.336 192.249 62.656C190.569 60.976 188.441 59.8 185.865 59.128C183.345 58.4 180.601 57.616 177.633 56.776C174.665 55.936 171.893 55.068 169.317 54.172C166.797 53.22 164.669 51.624 162.933 49.384C161.253 47.144 160.413 44.344 160.413 40.984C160.413 36.448 162.233 32.724 165.873 29.812C169.513 26.844 174.133 25.36 179.733 25.36C185.725 25.36 190.485 26.984 194.013 30.232C197.541 33.424 199.305 37.484 199.305 42.412H192.837C192.725 39.164 191.437 36.532 188.973 34.516C186.509 32.444 183.373 31.408 179.565 31.408C175.757 31.408 172.649 32.304 170.241 34.096C167.833 35.832 166.629 38.128 166.629 40.984C166.629 42.832 167.105 44.4 168.057 45.688C169.065 46.976 170.381 47.956 172.005 48.628C173.629 49.3 175.477 49.944 177.549 50.56C179.621 51.176 181.721 51.708 183.849 52.156C186.033 52.604 188.161 53.276 190.233 54.172C192.305 55.012 194.153 55.992 195.777 57.112C197.401 58.232 198.689 59.828 199.641 61.9C200.649 63.972 201.153 66.38 201.153 69.124C201.153 73.94 199.193 77.944 195.273 81.136C191.409 84.272 186.537 85.84 180.657 85.84Z" fill="white"/>
<!-- <path d="M852.5 207.5H1606" stroke="white" stroke-width="9"/> -->
</svg>
