<svg xmlns="http://www.w3.org/2000/svg" xmlns:xlink="http://www.w3.org/1999/xlink" viewBox="0 0 512 512" width="512" height="512"  preserveAspectRatio="xMidYMid meet"><defs><clipPath id="__lottie_element_533"><rect width="512" height="512" x="0" y="0"></rect></clipPath></defs><g clip-path="url(#__lottie_element_533)"><g style="display: block;" transform="matrix(1,0,0,1,256,256)" opacity="1"><path stroke-linecap="round" stroke-linejoin="round" fill-opacity="0" stroke="rgb(0,0,0)" stroke-opacity="1" stroke-width="32" d=" M186.33,-3.46 C186.33,101.36 101.36,186.33 -3.46,186.33 C-108.28,186.33 -193.25,101.36 -193.25,-3.46 C-193.25,-108.28 -108.28,-193.25 -3.46,-193.25 C101.36,-193.25 186.33,-108.28 186.33,-3.46z"></path><g opacity="1" transform="matrix(0.988471269607544,0,0,0.988471269607544,0,0)"></g></g><g style="display: block;" transform="matrix(1,0,0,1,256,256)" opacity="1"><path stroke-linecap="round" stroke-linejoin="round" fill-opacity="0" stroke="rgb(0,0,0)" stroke-opacity="1" stroke-width="32" d=" M-47.5,-60 C-47.5,-60 -104.02100372314453,-3.4790000915527344 -104.02100372314453,-3.4790000915527344 C-104.02100372314453,-3.4790000915527344 -47.5,53.04199981689453 -47.5,53.04199981689453 M40.5,-60 C40.5,-60 97.02100372314453,-3.4790000915527344 97.02100372314453,-3.4790000915527344 C97.02100372314453,-3.4790000915527344 40.5,53.04199981689453 40.5,53.04199981689453"></path><g opacity="1" transform="matrix(1,0,0,1,0,0)"><g opacity="1" transform="matrix(1,0,0,1,0,0)"></g><g opacity="1" transform="matrix(1,0,0,1,0,0)"></g></g></g></g></svg>