<svg xmlns="http://www.w3.org/2000/svg" xmlns:xlink="http://www.w3.org/1999/xlink" width="512" height="512" style="width:100%;height:100%">
  <defs>
    <mask id="i" mask-type="alpha">
      <use xlink:href="#a"/>
    </mask>
    <mask id="g" mask-type="alpha">
      <use xlink:href="#b"/>
    </mask>
    <mask id="f" mask-type="alpha">
      <use xlink:href="#c"/>
    </mask>
    <mask id="h" mask-type="alpha">
      <use xlink:href="#d"/>
    </mask>
    <g id="a" display="block">
      <path fill-opacity="0" stroke="#FFF" stroke-linecap="round" stroke-linejoin="round" stroke-width="10" d="M424.81 330.18c-40.95 93.16-149.76 135.48-242.95 94.59-93.18-40.89-135.62-149.58-94.67-242.74 40.95-93.15 149.76-135.47 242.95-94.59 93.18 40.89 135.62 149.58 94.67 242.74z"/>
      <path fill="red" d="M424.81 330.18c-40.95 93.16-149.76 135.48-242.95 94.59-93.18-40.89-135.62-149.58-94.67-242.74 40.95-93.15 149.76-135.47 242.95-94.59 93.18 40.89 135.62 149.58 94.67 242.74z"/>
    </g>
    <g id="d" display="block">
      <path fill-opacity="0" stroke="#FFF" stroke-linecap="round" stroke-linejoin="round" stroke-width="10" d="M424.81 330.18c-40.95 93.16-149.76 135.48-242.95 94.59-93.18-40.89-135.62-149.58-94.67-242.74 40.95-93.15 149.76-135.47 242.95-94.59 93.18 40.89 135.62 149.58 94.67 242.74z"/>
      <path fill="red" d="M424.81 330.18c-40.95 93.16-149.76 135.48-242.95 94.59-93.18-40.89-135.62-149.58-94.67-242.74 40.95-93.15 149.76-135.47 242.95-94.59 93.18 40.89 135.62 149.58 94.67 242.74z"/>
    </g>
    <clipPath id="e">
      <path d="M0 0h512v512H0z"/>
    </clipPath>
  </defs>
  <g clip-path="url(#e)">
    <g display="block">
      <path fill="none" stroke="#000" stroke-linecap="round" stroke-linejoin="round" stroke-width="30.72" d="M424.81 330.18c-40.95 93.16-149.76 135.48-242.95 94.59-93.18-40.89-135.62-149.58-94.67-242.74 40.95-93.15 149.76-135.47 242.95-94.59 93.18 40.89 135.62 149.58 94.67 242.74z"/>
    </g>
    <g display="block" mask="url(#h)">
      <path fill="none" stroke="#000" stroke-linecap="round" stroke-linejoin="round" stroke-width="30.72" d="M238.205 568.472c-.37-.86 12.6-21.97 69.47-127.87 73.86-137.52 22.35-305.92-151.47-353.71 0 0-50.75-12.18-114.53-14.86"/>
    </g>
    <g display="block" mask="url(#i)">
      <path fill="none" stroke="#000" stroke-linecap="round" stroke-linejoin="round" stroke-width="30.72" d="M208.08 1110.81c16.6 87.75 96.76 151.23 168.19 164.08 71.42 12.85 242.22 27.17 326.57-63.46 0 0 102.32-105.16 66.54-251.36m120.73 513.25c-8.78-8.94-39.36-59.58-155.36-112.24-115.99-52.66-267.24-14.81-322.22 77.27 0 0-55.21 84.66-58.22 251.72m4.42-48.52c16.6 87.76 96.76 151.24 168.19 164.09 71.42 12.85 242.22 27.17 326.57-63.46 0 0 102.32-105.16 66.54-251.36m120.73 513.25c-8.78-8.94-39.36-59.58-155.36-112.24-115.99-52.67-267.24-14.81-322.22 77.27 0 0-55.21 84.65-58.22 251.72M-118.23-100.35C-89.44-54.59-83.61 81.1 100.98 186.72c145.14 70.02 296.08-29 314.48-137.37 0 0 12.77-95.63-40.64-172.11m208.43 470.01s-20.48-82.66-145.87-105.23c-115.59-20.8-237.39 42.82-270.47 169.84-24.26 93.13-8.68 251.35-8.68 251.35M54.71 570.44c16.59 87.76 96.76 151.24 168.18 164.09 71.42 12.85 242.23 27.17 326.57-63.46 0 0 102.32-105.16 66.54-251.36m120.73 513.25c-8.77-8.94-39.36-59.58-155.36-112.24-115.99-52.67-267.24-14.81-322.22 77.27 0 0-55.21 84.66-58.22 251.72m-567.17-2225.38c27.19 84.29 80.17 124.21 140.17 165 71.7 48.76 220.71 57.69 310.07-66.51 0 0 94.39-115.63 72.96-220.35m146.17 385s-58.37-14.38-184.34-33.44C-6.82-864.98-131.6-780.89-146.63-644.53M-433-596.31c160.03 185.47 276.07 231.5 347.49 244.35 71.43 12.84 242.23 27.17 326.58-63.47 0 0 102.32-105.15 66.54-251.36m120.73 513.26c-8.78-8.94-39.37-59.58-155.36-112.25-116-52.66-267.24-14.8-322.23 77.28 0 0-55.21 84.65-58.21 251.72"/>
    </g>
  </g>
</svg>
