<svg width="861" height="403" viewBox="0 0 861 403" fill="none" xmlns="http://www.w3.org/2000/svg">
<mask id="path-1-outside-1_54_31" maskUnits="userSpaceOnUse" x="0" y="0" width="861" height="403" fill="black">
<rect fill="white" width="861" height="403"/>
<path d="M735.046 238.552C736.666 236.392 737.926 233.692 739.906 231.892C742.966 236.752 744.586 242.332 747.826 247.012C748.906 248.452 750.706 251.332 752.866 251.692C754.306 252.052 755.926 247.552 756.826 246.292C761.506 240.892 768.706 236.752 772.126 230.452C773.926 227.212 773.026 223.792 773.386 220.192C773.386 219.292 773.566 216.952 774.646 216.412C776.266 215.872 777.166 218.752 777.706 219.652C779.506 224.152 781.666 227.212 786.706 228.292C789.046 228.472 791.386 228.472 793.726 228.472C805.246 228.292 805.426 212.992 806.506 204.532C807.046 200.212 808.846 195.532 808.306 191.212C808.126 187.612 800.386 182.392 796.786 183.292C793.726 183.652 791.566 185.992 788.506 186.532C784.366 187.072 781.126 185.272 781.846 180.592C782.386 177.892 785.266 176.452 787.786 175.732C792.826 174.292 798.046 173.752 803.446 173.212C812.626 171.952 825.046 172.852 832.966 167.452C836.386 165.292 836.926 161.332 839.626 158.992C840.706 158.272 842.326 158.092 843.586 157.012C846.466 154.852 849.526 150.532 850.066 146.932C850.426 141.532 844.126 136.132 840.706 132.892C831.706 123.892 822.706 113.992 815.866 103.192C811.906 97.0719 810.466 89.8719 806.326 83.7519C803.986 80.3319 799.126 76.7319 798.226 72.5919C797.866 70.2519 799.666 68.4519 800.026 66.4719C801.106 63.5919 801.466 60.8919 801.466 58.0119C801.466 56.7519 801.826 54.4119 800.926 53.6919C799.666 52.2519 797.326 56.2119 796.426 56.9319C793.366 60.3519 787.786 63.9519 783.646 59.8119C781.126 57.2919 780.766 52.7919 780.046 49.5519C778.966 45.5919 777.526 41.8119 775.726 38.3919C773.026 34.0719 769.426 30.4719 765.106 28.1319C761.866 26.6919 758.266 26.1519 755.386 23.8119C751.246 20.3919 749.626 15.5319 744.766 12.6519C737.566 8.87193 729.106 10.1319 721.186 10.4919C706.426 10.8519 690.586 10.1319 676.366 14.8119C668.266 17.3319 661.066 23.0919 652.246 24.3519C635.506 26.8719 618.046 22.0119 602.386 29.7519C593.386 34.2519 589.426 43.0719 582.226 49.5519C575.566 55.1319 566.566 57.4719 558.466 59.2719C541.698 63.2891 524.423 65.7809 507.461 68.2276L505.906 68.4519C479.266 72.9519 452.266 76.7319 425.266 77.0919C381.706 77.4519 337.966 70.7919 294.586 73.8519C265.426 76.0119 239.326 88.7919 211.246 95.2719C186.226 100.672 161.026 99.4119 135.826 102.472C103.246 106.792 70.8456 111.292 43.1256 130.732C31.4256 139.012 22.0656 148.552 16.3056 161.692C13.7856 167.452 11.9856 173.752 10.9056 180.052C9.8256 188.152 9.6456 196.072 10.7256 203.992C13.2456 220.732 21.1656 234.052 34.6656 244.492C39.5256 248.452 46.3656 250.252 50.8656 254.752C53.5656 257.452 53.0256 262.672 55.3656 266.092C60.5856 273.472 70.1256 277.612 78.5856 280.132C90.4656 283.732 103.426 281.212 115.306 279.052C118.186 278.692 121.246 277.792 124.126 276.892C124.846 276.532 126.466 275.992 126.646 275.092C127.186 272.932 123.046 269.692 121.786 268.252C116.386 262.672 110.626 257.272 104.866 252.412L104.737 252.301C100.816 248.914 96.713 245.37 91.9056 243.412C81.8256 239.452 70.8456 239.812 60.7656 236.212C48.5256 231.352 37.3656 219.292 33.2256 206.692C25.8456 184.192 38.4456 161.332 55.9056 148.012C67.4256 139.192 82.3656 132.532 96.7656 129.472C107.386 127.492 118.186 127.672 128.986 127.132C139.246 126.592 149.866 126.412 160.126 126.412C172.186 126.412 184.066 125.692 196.126 125.692C199.186 125.692 202.066 125.332 205.126 125.332C205.846 125.332 207.646 125.152 208.186 125.692C209.266 126.412 207.646 128.932 207.106 129.652C205.306 133.792 203.506 138.292 201.526 142.252C193.066 159.532 181.186 175.012 172.366 192.292C168.586 200.212 165.706 208.672 162.466 217.132C158.506 226.672 154.366 235.852 151.846 245.752C149.866 253.492 149.866 261.952 147.166 269.332C146.626 271.492 143.026 272.212 141.226 272.932C136.186 275.452 128.626 277.612 126.646 283.552C124.306 289.492 127.726 295.792 127.726 302.092V302.092C127.726 307.852 127.726 313.792 127.366 319.732C126.826 326.212 126.106 332.692 127.366 338.992C128.266 342.412 130.246 345.292 131.866 348.352C133.666 352.132 135.466 356.272 136.726 360.412C139.066 368.872 140.326 381.652 148.066 387.412C152.026 390.472 157.786 389.752 162.646 389.932C173.266 390.652 184.426 390.472 194.866 387.952C201.706 386.152 207.106 382.192 207.106 374.452C207.106 363.472 197.386 353.392 186.586 351.592C182.446 350.872 178.306 352.132 174.166 352.132C172.186 352.132 170.386 352.132 169.846 349.792C169.306 346.012 171.106 340.792 172.186 337.012C174.706 324.952 177.766 311.272 188.026 303.352C195.586 297.412 205.126 295.792 212.506 289.672C220.066 283.552 225.466 274.192 233.926 269.152C237.706 266.992 242.026 266.092 246.526 265.192C251.386 264.292 256.426 262.672 260.926 260.152C262.906 258.892 265.246 255.652 268.126 256.732C269.926 257.272 270.826 258.892 271.906 260.332C274.066 263.932 275.866 268.072 276.586 272.212C277.846 277.252 277.666 283.012 277.306 288.412C277.126 293.992 277.126 299.752 276.766 305.332C276.226 311.092 276.226 316.852 277.846 322.252C279.106 326.392 282.706 329.452 285.586 332.332C291.706 338.452 298.186 344.212 304.846 349.792C310.966 355.012 317.266 359.872 323.926 364.552C328.066 367.252 332.026 369.592 335.986 372.652C339.766 375.892 343.366 381.652 348.226 383.272C351.826 384.532 356.326 383.992 360.106 383.992C368.386 383.992 376.306 383.452 384.226 383.092C389.986 382.552 395.386 382.012 400.966 380.932L401.131 380.906C404.501 380.374 408.032 379.817 410.866 377.692C417.526 372.472 412.126 363.472 407.986 358.612C406.726 356.992 405.106 355.192 403.306 354.292C396.106 350.872 386.926 353.212 379.186 351.592C369.466 349.612 360.646 341.332 353.446 334.852C349.666 331.612 345.166 327.652 342.826 322.792C340.306 317.392 341.386 311.452 343.726 306.412C345.526 302.812 347.866 299.392 349.666 295.792C352.906 288.592 355.246 281.212 357.586 273.472C359.926 266.092 359.926 257.992 363.706 251.152C366.226 246.652 369.466 242.332 372.706 238.552C373.966 236.752 375.766 234.592 378.466 234.592C383.326 234.592 388.366 237.292 393.046 238.732C405.106 242.692 416.626 248.812 429.046 252.592C431.926 253.492 435.706 252.952 438.766 252.952C445.066 252.952 451.186 253.132 457.306 253.132C463.426 253.132 469.726 252.952 475.666 253.672C477.826 253.852 481.066 253.852 482.326 256.192C483.226 258.532 481.786 263.212 481.246 265.552C479.626 273.472 477.646 281.212 475.846 289.132C473.326 299.932 472.426 311.272 469.186 321.892C466.306 330.892 460.726 339.892 461.446 349.612C461.626 352.492 462.706 355.012 464.866 356.992C466.306 358.252 468.826 359.872 469.366 361.852C469.726 363.652 468.106 365.812 467.386 367.252C466.126 370.132 464.506 373.552 465.046 376.612C465.766 380.752 469.366 383.812 472.786 385.792C481.246 391.552 491.866 392.092 501.586 392.092C510.046 392.092 519.766 390.472 527.866 387.412C535.426 384.352 536.866 376.792 531.646 370.672C528.226 366.892 523.906 365.812 519.586 363.652C514.366 361.132 507.706 355.732 506.446 349.792C505.186 342.952 511.126 334.492 514.366 328.732C518.866 321.352 524.266 314.332 528.766 306.952C534.166 298.672 539.026 290.212 544.246 281.752C547.126 277.072 550.186 272.212 553.426 267.892C554.506 266.272 556.306 263.392 558.466 262.852C560.626 262.672 564.046 266.272 565.666 267.532C571.066 272.212 576.106 277.072 582.766 279.952C586.726 281.392 591.046 282.292 595.186 282.472C599.506 282.652 603.646 282.472 607.426 285.352C611.386 288.052 613.906 293.272 616.246 297.412C620.026 304.072 623.986 310.552 628.666 316.672C634.426 324.412 641.626 330.892 647.566 338.272C651.166 342.952 653.326 349.072 657.466 353.212C661.966 357.892 668.626 359.692 673.126 364.732C677.266 370.132 676.726 378.412 682.126 382.732C685.906 385.792 691.306 386.152 695.986 386.692C705.526 387.592 715.966 388.132 725.506 387.412C730.186 387.052 735.226 387.952 739.366 384.892C748.186 378.052 740.986 363.472 734.866 357.352C731.986 354.472 728.026 353.212 724.246 352.672C720.106 352.492 716.326 352.672 712.906 350.152C710.566 347.992 709.846 345.472 708.766 342.952C707.506 340.072 706.066 337.192 704.446 334.672C701.386 329.452 697.966 324.592 695.446 319.192C692.453 311.975 691.354 303.725 690.297 295.789L690.226 295.252C689.506 290.932 688.246 286.252 688.066 281.932C688.066 279.412 692.566 276.352 694.366 274.552C699.586 268.792 703.906 263.212 706.426 255.652C707.326 253.672 708.046 251.332 708.586 249.352C708.766 248.452 709.126 247.192 709.846 247.192C711.106 247.012 711.106 248.992 711.466 249.892L711.477 250.008C711.675 252.006 712.427 259.579 715.426 257.992C718.306 256.732 720.826 253.852 722.986 251.872C727.126 247.732 731.446 243.412 735.046 238.552Z"/>
</mask>
<path d="M734.906 230.092V231.892H744.906V230.092H734.906ZM705.386 244.852V246.472H715.386V244.852H705.386ZM739.906 231.892L748.368 226.564L742.009 216.465L733.179 224.493L739.906 231.892ZM735.046 238.552L727.046 232.552L727.028 232.576L727.01 232.6L735.046 238.552ZM722.986 251.872L729.743 259.243L729.903 259.097L730.057 258.943L722.986 251.872ZM715.426 257.992L711.417 248.83L711.076 248.98L710.747 249.154L715.426 257.992ZM711.477 250.008L721.428 249.02L721.428 249.015L711.477 250.008ZM711.466 249.892L721.416 248.9L721.276 247.492L720.75 246.178L711.466 249.892ZM709.846 247.192V257.192H710.556L711.26 257.091L709.846 247.192ZM708.586 249.352L718.233 251.983L718.324 251.651L718.391 251.314L708.586 249.352ZM706.426 255.652L697.322 251.514L697.105 251.992L696.939 252.49L706.426 255.652ZM694.366 274.552L701.437 281.623L701.61 281.449L701.775 281.267L694.366 274.552ZM688.066 281.932H678.066V282.14L678.074 282.348L688.066 281.932ZM690.226 295.252L700.138 293.93L700.116 293.769L700.09 293.608L690.226 295.252ZM690.297 295.789L700.21 294.469L700.209 294.467L690.297 295.789ZM695.446 319.192L686.208 323.022L686.292 323.223L686.384 323.421L695.446 319.192ZM704.446 334.672L695.819 339.729L695.923 339.907L696.034 340.08L704.446 334.672ZM708.766 342.952L717.957 339.013L717.942 338.978L717.927 338.944L708.766 342.952ZM712.906 350.152L706.123 357.5L706.529 357.875L706.974 358.203L712.906 350.152ZM724.246 352.672L725.66 342.772L725.172 342.703L724.68 342.681L724.246 352.672ZM739.366 384.892L745.309 392.934L745.402 392.865L745.494 392.794L739.366 384.892ZM725.506 387.412L726.258 397.384L726.265 397.383L726.273 397.382L725.506 387.412ZM695.986 386.692L694.839 396.626L694.943 396.638L695.046 396.648L695.986 386.692ZM682.126 382.732L688.417 374.959L688.395 374.941L688.373 374.923L682.126 382.732ZM673.126 364.732L681.062 358.648L680.834 358.351L680.585 358.072L673.126 364.732ZM657.466 353.212L664.674 346.281L664.606 346.21L664.537 346.141L657.466 353.212ZM647.566 338.272L655.492 332.175L655.425 332.088L655.356 332.002L647.566 338.272ZM628.666 316.672L636.688 310.702L636.649 310.649L636.609 310.597L628.666 316.672ZM616.246 297.412L607.54 302.332L607.544 302.34L607.549 302.348L616.246 297.412ZM607.426 285.352L601.365 293.306L601.575 293.466L601.792 293.614L607.426 285.352ZM595.186 282.472L594.751 292.463L594.76 292.463L594.769 292.463L595.186 282.472ZM582.766 279.952L578.796 289.131L579.069 289.248L579.348 289.35L582.766 279.952ZM565.666 267.532L572.215 259.975L572.014 259.801L571.805 259.638L565.666 267.532ZM558.466 262.852L557.635 252.886L556.827 252.954L556.04 253.151L558.466 262.852ZM553.426 267.892L561.426 273.892L561.592 273.67L561.746 273.439L553.426 267.892ZM544.246 281.752L552.756 287.003L552.762 286.993L544.246 281.752ZM528.766 306.952L520.389 301.489L520.307 301.616L520.228 301.746L528.766 306.952ZM514.366 328.732L505.828 323.526L505.736 323.676L505.65 323.829L514.366 328.732ZM506.446 349.792L496.611 351.604L496.635 351.736L496.663 351.867L506.446 349.792ZM519.586 363.652L524.058 354.708L523.996 354.677L523.933 354.646L519.586 363.652ZM531.646 370.672L539.254 364.183L539.159 364.071L539.061 363.963L531.646 370.672ZM527.866 387.412L531.4 396.767L531.509 396.725L531.617 396.681L527.866 387.412ZM472.786 385.792L478.414 377.526L478.112 377.321L477.796 377.138L472.786 385.792ZM465.046 376.612L474.898 374.899L474.896 374.886L474.893 374.874L465.046 376.612ZM467.386 367.252L458.441 362.78L458.327 363.009L458.224 363.244L467.386 367.252ZM469.366 361.852L479.171 359.891L479.104 359.553L479.013 359.221L469.366 361.852ZM464.866 356.992L458.108 364.364L458.194 364.442L458.281 364.518L464.866 356.992ZM461.446 349.612L471.426 348.988L471.422 348.931L471.418 348.873L461.446 349.612ZM469.186 321.892L478.71 324.94L478.73 324.875L478.75 324.81L469.186 321.892ZM475.846 289.132L485.584 291.404L485.591 291.376L485.597 291.348L475.846 289.132ZM481.246 265.552L471.502 263.303L471.474 263.425L471.448 263.548L481.246 265.552ZM482.326 256.192L491.659 252.602L491.431 252.01L491.13 251.451L482.326 256.192ZM475.666 253.672L474.462 263.599L474.648 263.622L474.835 263.637L475.666 253.672ZM429.046 252.592L432.028 243.047L431.993 243.036L431.957 243.025L429.046 252.592ZM393.046 238.732L396.165 229.231L396.076 229.202L395.986 229.174L393.046 238.732ZM372.706 238.552L380.298 245.06L380.617 244.688L380.898 244.287L372.706 238.552ZM363.706 251.152L354.981 246.266L354.967 246.29L354.953 246.315L363.706 251.152ZM357.586 273.472L348.053 270.45L348.033 270.514L348.013 270.578L357.586 273.472ZM349.666 295.792L358.61 300.264L358.701 300.082L358.785 299.896L349.666 295.792ZM343.726 306.412L334.781 301.94L334.717 302.069L334.655 302.201L343.726 306.412ZM342.826 322.792L333.764 327.021L333.789 327.076L333.816 327.13L342.826 322.792ZM353.446 334.852L360.135 327.419L360.045 327.338L359.954 327.259L353.446 334.852ZM379.186 351.592L381.234 341.804L381.208 341.799L381.182 341.793L379.186 351.592ZM403.306 354.292L407.778 345.348L407.687 345.303L407.596 345.259L403.306 354.292ZM407.986 358.612L400.092 364.751L400.229 364.927L400.373 365.097L407.986 358.612ZM410.866 377.692L416.866 385.692L416.951 385.628L417.034 385.563L410.866 377.692ZM401.131 380.906L399.573 371.028L399.572 371.028L401.131 380.906ZM400.966 380.932L399.407 371.054L399.235 371.081L399.065 371.114L400.966 380.932ZM384.226 383.092L384.68 393.082L384.92 393.071L385.159 393.048L384.226 383.092ZM348.226 383.272L351.529 373.833L351.459 373.809L351.388 373.785L348.226 383.272ZM335.986 372.652L342.493 365.059L342.301 364.894L342.1 364.739L335.986 372.652ZM323.926 364.552L318.176 372.734L318.318 372.833L318.463 372.928L323.926 364.552ZM304.846 349.792L311.335 342.184L311.302 342.155L311.268 342.127L304.846 349.792ZM277.846 322.252L268.267 325.125L268.273 325.144L268.279 325.164L277.846 322.252ZM276.766 305.332L286.722 306.265L286.735 306.121L286.745 305.976L276.766 305.332ZM277.306 288.412L267.328 287.747L267.316 287.918L267.311 288.09L277.306 288.412ZM276.586 272.212L266.733 273.925L266.796 274.284L266.884 274.637L276.586 272.212ZM271.906 260.332L280.481 255.187L280.215 254.745L279.906 254.332L271.906 260.332ZM268.126 256.732L264.614 266.095L264.93 266.213L265.252 266.31L268.126 256.732ZM260.926 260.152L265.812 268.877L266.057 268.74L266.294 268.589L260.926 260.152ZM246.526 265.192L244.705 255.359L244.634 255.372L244.564 255.386L246.526 265.192ZM233.926 269.152L228.964 260.47L228.885 260.515L228.808 260.561L233.926 269.152ZM212.506 289.672L206.214 281.9L206.168 281.937L206.122 281.974L212.506 289.672ZM188.026 303.352L194.136 311.268L194.17 311.242L194.204 311.215L188.026 303.352ZM172.186 337.012L181.801 339.759L181.9 339.411L181.974 339.057L172.186 337.012ZM169.846 349.792L159.946 351.206L160.006 351.627L160.102 352.041L169.846 349.792ZM186.586 351.592L184.872 361.444L184.907 361.45L184.942 361.456L186.586 351.592ZM194.866 387.952L197.212 397.673L197.312 397.649L197.411 397.623L194.866 387.952ZM162.646 389.932L163.322 379.955L163.169 379.944L163.016 379.939L162.646 389.932ZM148.066 387.412L154.18 379.499L154.108 379.444L154.036 379.39L148.066 387.412ZM136.726 360.412L146.364 357.746L146.33 357.623L146.292 357.5L136.726 360.412ZM131.866 348.352L140.894 344.053L140.803 343.861L140.703 343.673L131.866 348.352ZM127.366 338.992L117.56 340.953L117.619 341.247L117.695 341.537L127.366 338.992ZM127.366 319.732L137.331 320.562L137.34 320.45L137.347 320.337L127.366 319.732ZM126.646 283.552L135.95 287.217L136.048 286.968L136.132 286.714L126.646 283.552ZM141.226 272.932L137.512 263.647L137.125 263.802L136.753 263.988L141.226 272.932ZM147.166 269.332L137.774 265.896L137.593 266.393L137.464 266.907L147.166 269.332ZM151.846 245.752L161.534 248.23L161.537 248.219L151.846 245.752ZM162.466 217.132L171.702 220.966L171.755 220.838L171.804 220.708L162.466 217.132ZM172.366 192.292L163.459 187.746L163.398 187.864L163.341 187.985L172.366 192.292ZM201.526 142.252L192.581 137.78L192.563 137.817L192.544 137.855L201.526 142.252ZM207.106 129.652L199.106 123.652L198.402 124.59L197.935 125.665L207.106 129.652ZM208.186 125.692L201.114 132.763L201.815 133.463L202.639 134.012L208.186 125.692ZM128.986 127.132L129.485 137.119L129.498 137.119L129.511 137.118L128.986 127.132ZM96.7656 129.472L94.9328 119.641L94.8096 119.664L94.687 119.69L96.7656 129.472ZM55.9056 148.012L61.971 155.962L61.9778 155.957L61.9847 155.952L55.9056 148.012ZM33.2256 206.692L23.7237 209.809L23.7253 209.813L33.2256 206.692ZM60.7656 236.212L57.0753 245.506L57.2377 245.571L57.4022 245.629L60.7656 236.212ZM91.9056 243.412L95.6786 234.151L95.6205 234.127L95.5621 234.104L91.9056 243.412ZM104.737 252.301L111.273 244.733L111.273 244.733L104.737 252.301ZM104.866 252.412L98.3291 259.98L98.3728 260.018L98.4169 260.055L104.866 252.412ZM121.786 268.252L129.311 261.667L129.146 261.478L128.972 261.298L121.786 268.252ZM126.646 275.092L116.944 272.667L116.886 272.897L116.84 273.131L126.646 275.092ZM124.126 276.892L127.108 286.437L127.877 286.196L128.598 285.836L124.126 276.892ZM115.306 279.052L114.065 269.129L113.79 269.164L113.517 269.213L115.306 279.052ZM78.5856 280.132L81.4857 270.562L81.463 270.555L81.4404 270.548L78.5856 280.132ZM55.3656 266.092L47.1125 271.739L47.1565 271.803L47.2014 271.867L55.3656 266.092ZM50.8656 254.752L57.9367 247.681L57.9367 247.681L50.8656 254.752ZM34.6656 244.492L40.9823 236.74L40.8837 236.659L40.7831 236.581L34.6656 244.492ZM10.7256 203.992L0.817297 205.343L0.82668 205.412L0.837017 205.481L10.7256 203.992ZM10.9056 180.052L1.04938 178.362L1.01792 178.546L0.99332 178.73L10.9056 180.052ZM16.3056 161.692L7.1469 157.677L7.14402 157.684L16.3056 161.692ZM43.1256 130.732L37.3838 122.545L37.3664 122.557L37.3489 122.569L43.1256 130.732ZM135.826 102.472L134.62 92.5448L134.566 92.5515L134.511 92.5587L135.826 102.472ZM211.246 95.2719L213.355 105.047L213.425 105.032L213.494 105.016L211.246 95.2719ZM294.586 73.8519L293.882 63.8767L293.864 63.878L293.847 63.8793L294.586 73.8519ZM425.266 77.0919L425.348 87.0916L425.374 87.0914L425.399 87.091L425.266 77.0919ZM505.906 68.4519L504.478 58.5544L504.359 58.5716L504.24 58.5916L505.906 68.4519ZM507.461 68.2276L506.033 58.33L506.033 58.33L507.461 68.2276ZM558.466 59.2719L556.296 49.5101L556.216 49.5279L556.136 49.5471L558.466 59.2719ZM582.226 49.5519L588.648 57.2172L588.784 57.1034L588.915 56.9849L582.226 49.5519ZM602.386 29.7519L597.955 20.7871L597.934 20.7974L597.913 20.8077L602.386 29.7519ZM652.246 24.3519L650.831 14.4524L650.794 14.4578L650.757 14.4633L652.246 24.3519ZM676.366 14.8119L679.336 24.3605L679.414 24.3362L679.492 24.3107L676.366 14.8119ZM721.186 10.4919L721.429 20.489L721.535 20.4864L721.64 20.4816L721.186 10.4919ZM744.766 12.6519L749.864 4.04902L749.642 3.91769L749.414 3.79795L744.766 12.6519ZM755.386 23.8119L749.017 31.5216L749.048 31.5474L749.08 31.573L755.386 23.8119ZM765.106 28.1319L769.868 19.339L769.524 19.1527L769.167 18.9938L765.106 28.1319ZM775.726 38.3919L784.575 33.7345L784.402 33.4064L784.206 33.0919L775.726 38.3919ZM780.046 49.5519L789.807 47.3825L789.756 47.1503L789.693 46.9209L780.046 49.5519ZM783.646 59.8119L790.717 52.7409L790.717 52.7408L783.646 59.8119ZM796.426 56.9319L790.178 49.1234L789.528 49.6435L788.973 50.264L796.426 56.9319ZM800.926 53.6919L793.4 60.277L793.985 60.9455L794.679 61.5005L800.926 53.6919ZM800.026 66.4719L790.662 62.9606L790.347 63.8006L790.187 64.6831L800.026 66.4719ZM798.226 72.5919L788.342 74.1124L788.389 74.416L788.454 74.7161L798.226 72.5919ZM806.326 83.7519L814.608 78.1488L814.594 78.1269L814.579 78.1051L806.326 83.7519ZM815.866 103.192L824.314 97.8414L824.288 97.8003L824.261 97.7595L815.866 103.192ZM840.706 132.892L833.634 139.963L833.73 140.059L833.828 140.151L840.706 132.892ZM850.066 146.932L859.955 148.415L860.016 148.008L860.043 147.597L850.066 146.932ZM843.586 157.012L837.586 149.012L837.325 149.207L837.078 149.419L843.586 157.012ZM839.626 158.992L834.079 150.671L833.553 151.022L833.076 151.435L839.626 158.992ZM832.966 167.452L827.626 158.997L827.477 159.091L827.332 159.19L832.966 167.452ZM803.446 173.212L804.441 183.162L804.623 183.144L804.805 183.119L803.446 173.212ZM781.846 180.592L772.04 178.631L771.996 178.85L771.962 179.071L781.846 180.592ZM788.506 186.532L789.799 196.448L790.022 196.419L790.243 196.38L788.506 186.532ZM796.786 183.292L797.954 193.223L798.59 193.149L799.211 192.993L796.786 183.292ZM808.306 191.212L798.318 191.711L798.337 192.083L798.383 192.452L808.306 191.212ZM806.506 204.532L816.425 205.798L816.427 205.785L816.428 205.772L806.506 204.532ZM793.726 228.472V238.472H793.804L793.882 238.471L793.726 228.472ZM786.706 228.292L784.61 238.07L785.268 238.211L785.939 238.262L786.706 228.292ZM777.706 219.652L786.99 215.938L786.693 215.194L786.281 214.507L777.706 219.652ZM774.646 216.412L771.483 206.925L770.809 207.15L770.174 207.468L774.646 216.412ZM773.386 220.192L783.336 221.187L783.386 220.691V220.192H773.386ZM772.126 230.452L763.384 225.595L763.36 225.638L763.337 225.681L772.126 230.452ZM756.826 246.292L749.269 239.743L748.961 240.098L748.688 240.48L756.826 246.292ZM752.866 251.692L755.291 241.991L754.903 241.894L754.51 241.828L752.866 251.692ZM747.826 247.012L739.604 252.704L739.712 252.86L739.826 253.012L747.826 247.012ZM733.179 224.493C731.207 226.285 729.832 228.298 728.971 229.615C727.867 231.303 727.603 231.808 727.046 232.552L743.046 244.552C743.663 243.728 744.196 242.922 744.617 242.269C745.144 241.45 745.313 241.167 745.71 240.559C746.022 240.083 746.243 239.77 746.419 239.545C746.591 239.324 746.66 239.266 746.632 239.291L733.179 224.493ZM727.01 232.6C723.924 236.766 720.142 240.574 715.915 244.801L730.057 258.943C734.11 254.89 738.967 250.058 743.081 244.504L727.01 232.6ZM716.228 244.5C715.554 245.119 714.857 245.802 714.331 246.313C713.752 246.875 713.275 247.332 712.815 247.743C711.818 248.633 711.405 248.836 711.417 248.83L719.434 267.154C722.326 265.888 724.613 264.021 726.136 262.661C726.936 261.947 727.674 261.234 728.265 260.66C728.909 260.035 729.338 259.615 729.743 259.243L716.228 244.5ZM710.747 249.154C711.955 248.514 713.925 247.913 716.287 248.366C718.558 248.801 720.043 249.993 720.8 250.785C721.518 251.536 721.839 252.182 721.915 252.339C722.013 252.543 722.02 252.605 721.974 252.453C721.712 251.586 721.54 250.151 721.428 249.02L701.526 250.995C701.612 251.863 701.915 255.214 702.829 258.237C703.217 259.524 704.144 262.305 706.344 264.606C707.595 265.915 709.633 267.454 712.519 268.008C715.497 268.579 718.147 267.866 720.105 266.83L710.747 249.154ZM721.428 249.015L721.416 248.9L701.515 250.884L701.526 251L721.428 249.015ZM720.75 246.178C721.012 246.833 721.11 247.383 720.989 246.849C720.952 246.684 720.76 245.781 720.443 244.866C720.164 244.059 719.392 241.997 717.482 240.175C715.068 237.873 711.761 236.817 708.431 237.292L711.26 257.091C710.116 257.255 708.714 257.222 707.224 256.747C705.731 256.271 704.547 255.477 703.677 254.647C702.133 253.174 701.62 251.63 701.543 251.408C701.429 251.078 701.383 250.827 701.486 251.281C701.506 251.366 701.739 252.501 702.181 253.606L720.75 246.178ZM709.846 237.192C706.45 237.192 703.932 238.763 702.448 240.186C701.091 241.487 700.347 242.869 699.976 243.653C699.23 245.227 698.907 246.752 698.78 247.39L718.391 251.314C718.444 251.052 718.391 251.497 718.05 252.215C717.881 252.572 717.374 253.583 716.292 254.62C715.084 255.779 712.881 257.192 709.846 257.192V237.192ZM698.938 246.721C698.438 248.552 697.885 250.275 697.322 251.514L715.529 259.79C716.766 257.069 717.653 254.112 718.233 251.983L698.938 246.721ZM696.939 252.49C695.081 258.063 691.88 262.403 686.956 267.837L701.775 281.267C707.292 275.18 712.73 268.361 715.912 258.814L696.939 252.49ZM687.294 267.481C687.296 267.479 687.271 267.504 687.209 267.562C687.148 267.618 687.066 267.692 686.958 267.788C686.728 267.991 686.467 268.214 686.109 268.522C685.457 269.081 684.509 269.894 683.59 270.782C682.703 271.64 681.515 272.876 680.498 274.39C679.564 275.779 678.066 278.431 678.066 281.932H698.066C698.066 283.106 697.805 284.013 697.593 284.562C697.384 285.104 697.17 285.438 697.096 285.548C696.978 285.723 697.028 285.609 697.491 285.162C697.922 284.745 698.436 284.298 699.135 283.698C699.451 283.427 699.838 283.096 700.198 282.777C700.556 282.462 700.999 282.061 701.437 281.623L687.294 267.481ZM678.074 282.348C678.195 285.257 678.668 288.085 679.119 290.459C679.629 293.145 680.018 294.836 680.362 296.896L700.09 293.608C699.713 291.348 699.112 288.539 698.767 286.725C698.363 284.599 698.116 282.927 698.057 281.516L678.074 282.348ZM680.313 296.573L680.385 297.11L700.209 294.467L700.138 293.93L680.313 296.573ZM680.385 297.109C681.405 304.77 682.624 314.377 686.208 323.022L704.683 315.362C702.283 309.573 701.304 302.681 700.21 294.469L680.385 297.109ZM686.384 323.421C689.148 329.345 693.34 335.501 695.819 339.729L713.073 329.615C709.431 323.403 706.783 319.839 704.507 314.963L686.384 323.421ZM696.034 340.08C697.267 341.997 698.466 344.359 699.604 346.96L717.927 338.944C716.545 335.785 714.865 332.387 712.857 329.264L696.034 340.08ZM699.574 346.891C700.11 348.141 701.775 353.487 706.123 357.5L719.688 342.804C719.636 342.756 719.534 342.668 719.307 342.215C719.172 341.943 719.018 341.596 718.792 341.044C718.613 340.607 718.265 339.732 717.957 339.013L699.574 346.891ZM706.974 358.203C713.431 362.961 721.043 362.542 723.811 362.663L724.68 342.681C724.104 342.656 723.538 342.638 723.05 342.621C722.542 342.604 722.106 342.588 721.69 342.568C720.853 342.528 720.281 342.476 719.835 342.407C719.064 342.288 718.911 342.156 718.838 342.101L706.974 358.203ZM722.831 362.571C725.659 362.975 727.119 363.747 727.794 364.423L741.937 350.281C736.852 345.197 730.392 343.448 725.66 342.772L722.831 362.571ZM727.794 364.423C729.748 366.377 732.123 370.072 733.083 373.528C733.543 375.185 733.515 376.208 733.427 376.662C733.381 376.897 733.376 376.882 733.237 376.99L745.494 392.794C754.584 385.744 754.297 375.174 752.353 368.176C750.388 361.101 746.103 354.447 741.937 350.281L727.794 364.423ZM733.422 376.85C733.386 376.876 733.324 376.92 733.136 376.979C732.909 377.05 732.505 377.139 731.784 377.201C731.025 377.266 730.182 377.283 728.946 377.297C727.833 377.31 726.296 377.322 724.739 377.441L726.273 397.382C727.056 397.322 727.903 397.311 729.181 397.296C730.335 397.282 731.889 397.265 733.492 397.128C736.8 396.844 741.166 395.996 745.309 392.934L733.422 376.85ZM724.753 377.44C716.033 378.098 706.236 377.615 696.925 376.736L695.046 396.648C704.815 397.569 715.898 398.166 726.258 397.384L724.753 377.44ZM697.132 376.758C694.418 376.445 692.647 376.29 690.907 375.899C689.287 375.536 688.649 375.147 688.417 374.959L675.834 390.504C679.382 393.377 683.334 394.698 686.529 395.415C689.604 396.104 692.874 396.399 694.839 396.626L697.132 376.758ZM688.373 374.923C688.24 374.817 687.734 374.372 686.672 371.073C685.904 368.688 684.461 363.082 681.062 358.648L665.189 370.816C665.93 371.782 666.287 373.016 667.634 377.201C668.687 380.472 670.612 386.327 675.879 390.541L688.373 374.923ZM680.585 358.072C677.181 354.26 673.111 351.856 670.42 350.25C667.327 348.404 665.812 347.464 664.674 346.281L650.257 360.143C653.619 363.64 657.685 365.94 660.171 367.424C663.06 369.148 664.57 370.164 665.666 371.392L680.585 358.072ZM664.537 346.141C663.495 345.099 662.48 343.575 660.991 340.975C659.713 338.743 657.825 335.208 655.492 332.175L639.639 344.369C640.906 346.016 641.898 347.88 643.635 350.914C645.161 353.579 647.296 357.185 650.395 360.283L664.537 346.141ZM655.356 332.002C652.107 327.966 648.522 324.188 645.373 320.799C642.114 317.293 639.209 314.09 636.688 310.702L620.643 322.642C623.882 326.994 627.458 330.901 630.723 334.415C634.099 338.046 637.084 341.198 639.775 344.542L655.356 332.002ZM636.609 310.597C632.332 305.004 628.63 298.974 624.942 292.476L607.549 302.348C611.421 309.17 615.639 316.1 620.722 322.746L636.609 310.597ZM624.951 292.491C624.02 290.843 622.463 287.885 620.804 285.355C619.088 282.742 616.612 279.513 613.059 277.09L601.792 293.614C602.199 293.891 602.963 294.622 604.083 296.329C605.258 298.119 606.131 299.84 607.54 302.332L624.951 292.491ZM613.486 277.398C606.645 272.185 598.685 272.609 595.602 272.481L594.769 292.463C596.221 292.524 596.791 292.525 597.883 292.58C598.76 292.625 599.383 292.684 599.882 292.766C600.751 292.91 601.084 293.092 601.365 293.306L613.486 277.398ZM595.62 272.481C592.57 272.349 589.255 271.671 586.183 270.554L579.348 289.35C584.197 291.113 589.521 292.235 594.751 292.463L595.62 272.481ZM586.735 270.773C581.854 268.663 578.218 265.178 572.215 259.975L559.116 275.089C563.913 279.246 570.357 285.481 578.796 289.131L586.735 270.773ZM571.805 259.638C571.811 259.643 571.736 259.584 571.522 259.399C571.31 259.215 571.091 259.021 570.764 258.734C570.176 258.217 569.335 257.481 568.417 256.766C567.534 256.078 566.284 255.171 564.823 254.425C563.554 253.776 560.926 252.612 557.635 252.886L559.296 272.817C558.103 272.917 557.182 272.731 556.67 272.59C556.151 272.447 555.825 272.286 555.725 272.235C555.563 272.153 555.674 272.191 556.119 272.538C556.529 272.857 556.982 273.247 557.558 273.754C557.813 273.978 558.144 274.271 558.437 274.524C558.729 274.777 559.115 275.106 559.526 275.425L571.805 259.638ZM556.04 253.151C551.845 254.199 549.15 257.067 547.972 258.431C546.611 260.007 545.49 261.767 545.105 262.345L561.746 273.439C561.823 273.323 561.903 273.203 561.972 273.098C562.045 272.988 562.112 272.887 562.18 272.785C562.316 272.582 562.438 272.401 562.557 272.232C562.803 271.88 562.983 271.649 563.109 271.503C563.248 271.342 563.203 271.424 562.963 271.606C562.733 271.78 562.037 272.267 560.891 272.553L556.04 253.151ZM545.426 261.892C541.884 266.615 538.614 271.823 535.729 276.511L552.762 286.993C555.637 282.321 558.488 277.809 561.426 273.892L545.426 261.892ZM535.735 276.501C530.274 285.353 525.723 293.311 520.389 301.489L537.142 312.415C542.608 304.033 547.778 295.071 552.756 287.003L535.735 276.501ZM520.228 301.746C518.144 305.163 515.827 308.537 513.325 312.177C510.877 315.737 508.244 319.563 505.828 323.526L522.904 333.938C524.987 330.521 527.304 327.147 529.806 323.507C532.254 319.947 534.887 316.121 537.304 312.158L520.228 301.746ZM505.65 323.829C504.465 325.936 501.592 330.504 499.666 334.607C497.739 338.711 495.388 344.963 496.611 351.604L516.28 347.98C516.283 347.998 516.217 347.631 516.435 346.697C516.652 345.764 517.08 344.576 517.77 343.107C519.309 339.83 521.026 337.288 523.081 333.635L505.65 323.829ZM496.663 351.867C497.872 357.565 501.379 362.08 504.558 365.173C507.855 368.38 511.727 370.963 515.238 372.657L523.933 354.646C522.224 353.821 520.156 352.444 518.503 350.836C516.732 349.114 516.279 347.959 516.228 347.717L496.663 351.867ZM515.113 372.596C516.463 373.271 517.773 373.842 518.82 374.297C519.942 374.786 520.757 375.141 521.52 375.518C522.937 376.219 523.669 376.761 524.23 377.381L539.061 363.963C536.202 360.803 533.064 358.915 530.386 357.591C529.102 356.956 527.813 356.399 526.803 355.96C525.718 355.487 524.868 355.113 524.058 354.708L515.113 372.596ZM524.037 377.161C524.539 377.75 524.695 378.153 524.735 378.29C524.772 378.413 524.721 378.323 524.771 378.089C524.794 377.982 524.832 377.88 524.877 377.793C524.921 377.706 524.959 377.663 524.963 377.659C524.976 377.643 524.776 377.874 524.114 378.142L531.617 396.681C537.945 394.12 542.865 389.085 544.325 382.29C545.757 375.626 543.465 369.12 539.254 364.183L524.037 377.161ZM524.332 378.057C517.452 380.656 508.94 382.092 501.586 382.092V402.092C511.151 402.092 522.079 400.288 531.4 396.767L524.332 378.057ZM501.586 382.092C491.74 382.092 484.054 381.367 478.414 377.526L467.158 394.058C478.437 401.737 491.991 402.092 501.586 402.092V382.092ZM477.796 377.138C476.637 376.467 475.77 375.789 475.239 375.216C474.722 374.658 474.837 374.548 474.898 374.899L455.193 378.325C456.716 387.082 463.807 392.149 467.775 394.446L477.796 377.138ZM474.893 374.874C475.019 375.587 474.812 375.731 475.093 374.824C475.215 374.43 475.393 373.948 475.65 373.329C475.921 372.675 476.187 372.083 476.547 371.26L458.224 363.244C457.704 364.433 456.691 366.637 455.989 368.905C455.279 371.193 454.532 374.577 455.198 378.35L474.893 374.874ZM476.33 371.724C476.316 371.751 476.332 371.718 476.412 371.576C476.5 371.419 476.578 371.284 476.732 371.015C476.988 370.567 477.41 369.825 477.809 368.986C478.433 367.676 480.022 364.147 479.171 359.891L459.56 363.813C459.291 362.47 459.464 361.436 459.575 360.962C459.685 360.497 459.806 360.274 459.752 360.388C459.701 360.494 459.606 360.674 459.367 361.092C459.273 361.257 459.109 361.541 458.972 361.785C458.827 362.044 458.635 362.393 458.441 362.78L476.33 371.724ZM479.013 359.221C477.964 355.373 475.383 352.863 474.236 351.804C473.532 351.154 472.84 350.593 472.371 350.215C471.796 349.752 471.609 349.605 471.451 349.466L458.281 364.518C458.595 364.792 458.899 365.044 459.146 365.244C459.372 365.427 459.659 365.657 459.829 365.794C460.255 366.136 460.497 366.34 460.67 366.5C460.849 366.665 460.779 366.625 460.613 366.402C460.451 366.184 460.005 365.536 459.718 364.483L479.013 359.221ZM471.623 349.62C471.559 349.562 471.533 349.527 471.527 349.52C471.522 349.512 471.52 349.509 471.517 349.501C471.515 349.497 471.449 349.358 471.426 348.988L451.465 350.236C451.789 355.418 453.845 360.455 458.108 364.364L471.623 349.62ZM471.418 348.873C471.214 346.112 471.871 343.015 473.366 338.892C474.117 336.823 474.962 334.791 475.927 332.411C476.85 330.134 477.865 327.58 478.71 324.94L459.661 318.844C459.066 320.704 458.303 322.65 457.393 324.896C456.524 327.038 455.479 329.551 454.565 332.072C452.73 337.129 450.957 343.392 451.473 350.351L471.418 348.873ZM478.75 324.81C480.568 318.853 481.688 312.83 482.642 307.269C483.626 301.527 484.412 296.427 485.584 291.404L466.107 286.86C464.759 292.637 463.835 298.607 462.929 303.89C461.993 309.354 461.043 314.311 459.621 318.974L478.75 324.81ZM485.597 291.348C487.309 283.813 489.401 275.58 491.043 267.556L471.448 263.548C469.85 271.364 467.982 278.611 466.094 286.916L485.597 291.348ZM490.99 267.8C491.096 267.34 491.804 264.67 492.168 262.639C492.375 261.485 492.578 260.045 492.61 258.522C492.64 257.111 492.546 254.91 491.659 252.602L472.992 259.782C472.752 259.158 472.671 258.675 472.641 258.442C472.61 258.199 472.615 258.074 472.615 258.103C472.613 258.189 472.591 258.504 472.483 259.105C472.38 259.68 472.234 260.324 472.055 261.054C471.965 261.421 471.879 261.762 471.784 262.144C471.695 262.5 471.592 262.91 471.502 263.303L490.99 267.8ZM491.13 251.451C488.615 246.779 484.345 245.079 481.8 244.431C479.505 243.847 476.855 243.736 476.496 243.707L474.835 263.637C475.172 263.666 475.557 263.692 475.79 263.709C476.067 263.729 476.274 263.746 476.459 263.764C476.85 263.803 476.939 263.831 476.866 263.813C476.797 263.795 476.298 263.666 475.638 263.241C474.905 262.768 474.099 262.006 473.521 260.933L491.13 251.451ZM476.869 243.745C470.153 242.931 462.986 243.132 457.306 243.132V263.132C463.865 263.132 469.298 262.973 474.462 263.599L476.869 243.745ZM457.306 243.132C454.331 243.132 451.345 243.088 448.249 243.043C445.177 242.998 442 242.952 438.766 242.952V262.952C441.831 262.952 444.864 262.996 447.957 263.041C451.026 263.086 454.16 263.132 457.306 263.132V243.132ZM438.766 242.952C437.748 242.952 436.727 242.996 435.921 243.032C435.042 243.071 434.362 243.102 433.705 243.11C432.276 243.129 431.909 243.01 432.028 243.047L426.063 262.137C429.063 263.074 432.026 263.135 433.971 263.109C435.001 263.095 436.021 263.047 436.801 263.013C437.654 262.975 438.253 262.952 438.766 262.952V242.952ZM431.957 243.025C426.3 241.303 420.751 239.019 414.786 236.511C408.969 234.065 402.662 231.364 396.165 229.231L389.926 248.233C395.49 250.06 400.973 252.399 407.035 254.948C412.95 257.435 419.371 260.101 426.134 262.159L431.957 243.025ZM395.986 229.174C393.656 228.457 392.669 227.918 389.115 226.679C386.385 225.727 382.62 224.592 378.466 224.592V244.592C379.172 244.592 380.357 244.806 382.531 245.565C383.883 246.036 387.756 247.567 390.105 248.29L395.986 229.174ZM378.466 224.592C370.087 224.592 365.596 231.27 364.513 232.817L380.898 244.287C381.119 243.971 381.266 243.78 381.37 243.658C381.475 243.536 381.465 243.566 381.338 243.669C381.204 243.778 380.882 244.014 380.365 244.223C379.819 244.445 379.165 244.592 378.466 244.592V224.592ZM365.113 232.044C361.601 236.142 357.924 241.01 354.981 246.266L372.431 256.038C374.528 252.294 377.33 248.522 380.298 245.06L365.113 232.044ZM354.953 246.315C352.288 251.138 351.108 256.129 350.302 260.137C349.407 264.584 349.005 267.449 348.053 270.45L367.118 276.494C368.506 272.115 369.274 267.24 369.909 264.082C370.633 260.484 371.344 258.005 372.458 255.989L354.953 246.315ZM348.013 270.578C345.68 278.298 343.497 285.132 340.546 291.688L358.785 299.896C362.314 292.052 364.812 284.126 367.158 276.366L348.013 270.578ZM340.721 291.32C340.002 292.758 339.148 294.214 338.082 296.022C337.078 297.724 335.862 299.778 334.781 301.94L352.67 310.884C353.389 309.446 354.243 307.989 355.309 306.182C356.313 304.479 357.529 302.426 358.61 300.264L340.721 291.32ZM334.655 302.201C331.679 308.611 329.494 317.87 333.764 327.021L351.887 318.563C351.118 316.914 351.092 314.293 352.796 310.623L334.655 302.201ZM333.816 327.13C337.208 334.176 343.403 339.415 346.938 342.445L359.954 327.259C355.928 323.809 353.123 321.128 351.836 318.454L333.816 327.13ZM346.756 342.285C350.202 345.386 354.657 349.499 359.506 353.01C364.353 356.518 370.335 359.994 377.19 361.391L381.182 341.793C378.317 341.21 375.029 339.556 371.235 336.809C367.445 334.065 363.89 330.798 360.135 327.419L346.756 342.285ZM377.137 361.38C382.262 362.453 387.998 362.23 391.34 362.266C395.424 362.311 397.561 362.634 399.015 363.325L407.596 345.259C401.85 342.53 395.797 342.313 391.556 342.268C386.573 342.214 383.849 342.351 381.234 341.804L377.137 361.38ZM398.833 363.236C398.638 363.138 398.558 363.073 398.594 363.1C398.627 363.125 398.723 363.202 398.88 363.355C399.211 363.676 399.614 364.137 400.092 364.751L415.879 352.473C414.539 350.75 411.751 347.334 407.778 345.348L398.833 363.236ZM400.373 365.097C401.134 365.989 401.924 367.042 402.589 368.129C403.271 369.243 403.686 370.174 403.884 370.845C404.087 371.534 403.937 371.515 404.043 371.033C404.102 370.768 404.218 370.469 404.393 370.195C404.565 369.925 404.71 369.811 404.697 369.821L417.034 385.563C420.457 382.88 422.688 379.349 423.572 375.351C424.409 371.562 423.899 368.01 423.067 365.189C421.457 359.729 418.05 355.006 415.598 352.127L400.373 365.097ZM404.866 369.692C404.724 369.798 404.36 370.023 403.465 370.278C402.485 370.556 401.361 370.746 399.573 371.028L402.689 390.784C405.593 390.326 411.712 389.557 416.866 385.692L404.866 369.692ZM399.572 371.028L399.407 371.054L402.525 390.81L402.69 390.784L399.572 371.028ZM399.065 371.114C394.021 372.09 389.067 372.594 383.292 373.136L385.159 393.048C390.905 392.51 396.75 391.933 402.866 390.75L399.065 371.114ZM383.771 373.102C375.562 373.475 368.083 373.992 360.106 373.992V393.992C368.688 393.992 377.049 393.429 384.68 393.082L383.771 373.102ZM360.106 373.992C358.97 373.992 357.796 374.032 356.855 374.061C355.843 374.092 355.001 374.114 354.208 374.105C352.535 374.087 351.795 373.926 351.529 373.833L344.922 392.711C348.256 393.878 351.567 394.077 353.988 394.104C355.243 394.118 356.46 394.083 357.467 394.052C358.545 394.019 359.351 393.992 360.106 393.992V373.992ZM351.388 373.785C351.411 373.793 350.721 373.512 348.889 371.618C347.992 370.69 347.279 369.88 346.148 368.658C345.157 367.587 343.9 366.265 342.493 365.059L329.478 380.245C330.946 381.503 331.646 382.557 334.512 385.521C336.64 387.722 340.18 391.131 345.063 392.759L351.388 373.785ZM342.1 364.739C337.718 361.353 333.074 358.579 329.388 356.176L318.463 372.928C323.057 375.925 326.333 377.831 329.871 380.565L342.1 364.739ZM329.675 356.37C323.256 351.86 317.205 347.19 311.335 342.184L298.356 357.4C304.727 362.834 311.275 367.884 318.176 372.734L329.675 356.37ZM311.268 342.127C304.75 336.666 298.505 331.109 292.657 325.261L278.515 339.403C284.906 345.795 291.621 351.758 298.423 357.457L311.268 342.127ZM292.657 325.261C290.799 323.403 289.778 322.505 288.679 321.231C287.721 320.121 287.475 319.546 287.412 319.34L268.279 325.164C269.476 329.098 271.66 332.123 273.537 334.298C275.273 336.309 277.492 338.381 278.515 339.403L292.657 325.261ZM287.424 319.378C286.348 315.792 286.228 311.53 286.722 306.265L266.809 304.399C266.223 310.653 266.103 317.912 268.267 325.125L287.424 319.378ZM286.745 305.976C287.117 300.211 287.136 293.846 287.3 288.734L267.311 288.09C267.116 294.138 267.134 299.293 266.786 304.688L286.745 305.976ZM287.283 289.077C287.643 283.687 287.967 276.508 286.287 269.787L266.884 274.637C267.724 277.996 267.688 282.336 267.328 287.747L287.283 289.077ZM286.438 270.499C285.446 264.799 283.063 259.492 280.481 255.187L263.331 265.477C265.068 268.372 266.285 271.345 266.733 273.925L286.438 270.499ZM279.906 254.332C279.661 254.006 279.653 253.979 279.194 253.349C278.866 252.899 278.363 252.223 277.731 251.519C276.414 250.05 274.258 248.131 270.999 247.154L265.252 266.31C264.571 266.106 263.997 265.8 263.554 265.488C263.137 265.193 262.9 264.937 262.84 264.87C262.794 264.818 262.83 264.852 263.031 265.127C263.135 265.27 263.225 265.397 263.383 265.618C263.524 265.813 263.705 266.065 263.906 266.332L279.906 254.332ZM271.637 247.369C265.505 245.069 260.545 247.912 258.464 249.365C257.388 250.116 256.43 250.951 255.983 251.333C255.319 251.901 255.348 251.849 255.557 251.715L266.294 268.589C266.959 268.165 267.521 267.736 267.928 267.411C268.335 267.086 268.719 266.758 268.979 266.535C269.618 265.989 269.796 265.845 269.912 265.764C270.014 265.693 269.534 266.062 268.597 266.307C268.089 266.44 267.448 266.537 266.713 266.511C265.967 266.484 265.255 266.335 264.614 266.095L271.637 247.369ZM256.04 251.427C252.681 253.308 248.723 254.615 244.705 255.359L248.346 275.025C254.048 273.969 260.17 272.036 265.812 268.877L256.04 251.427ZM244.564 255.386C240.302 256.239 234.375 257.378 228.964 260.47L238.887 277.834C241.036 276.606 243.749 275.945 248.487 274.998L244.564 255.386ZM228.808 260.561C223.158 263.927 218.824 268.552 215.436 272.327C211.727 276.46 209.198 279.483 206.214 281.9L218.798 297.444C223.373 293.741 227.324 289.024 230.32 285.687C233.637 281.991 236.233 279.417 239.044 277.743L228.808 260.561ZM206.122 281.974C203.626 284.044 200.616 285.488 196.231 287.459C192.207 289.269 186.759 291.63 181.847 295.489L194.204 311.215C196.852 309.134 199.955 307.714 204.435 305.7C208.555 303.846 214.005 301.42 218.889 297.37L206.122 281.974ZM181.915 295.436C168.248 305.986 164.757 323.67 162.397 334.967L181.974 339.057C184.654 326.233 187.284 316.558 194.136 311.268L181.915 295.436ZM162.57 334.265C162.149 335.738 161.258 338.573 160.663 341.16C160.078 343.704 159.407 347.431 159.946 351.206L179.745 348.378C179.759 348.476 179.724 348.299 179.78 347.742C179.835 347.207 179.953 346.514 180.154 345.643C180.594 343.73 181.142 342.066 181.801 339.759L162.57 334.265ZM160.102 352.041C160.512 353.817 161.312 355.785 162.804 357.566C164.33 359.388 166.165 360.519 167.894 361.18C170.735 362.266 173.728 362.132 174.166 362.132V342.132C173.584 342.132 173.515 342.126 173.531 342.127C173.569 342.13 174.186 342.173 175.037 342.499C176.001 342.868 177.161 343.56 178.136 344.724C179.076 345.846 179.45 346.937 179.59 347.543L160.102 352.041ZM174.166 362.132C176.955 362.132 179.966 361.695 181.456 361.533C183.352 361.327 184.255 361.337 184.872 361.444L188.299 341.74C184.776 341.127 181.54 341.407 179.295 341.651C176.646 341.938 175.517 342.132 174.166 342.132V362.132ZM184.942 361.456C191.623 362.569 197.106 369.04 197.106 374.452H217.106C217.106 357.903 203.148 344.214 188.23 341.728L184.942 361.456ZM197.106 374.452C197.106 375.202 196.98 375.592 196.909 375.763C196.84 375.931 196.736 376.105 196.516 376.322C195.994 376.839 194.76 377.639 192.321 378.281L197.411 397.623C201.812 396.464 206.698 394.385 210.585 390.537C214.733 386.432 217.106 380.928 217.106 374.452H197.106ZM192.519 378.231C183.473 380.415 173.449 380.641 163.322 379.955L161.969 399.909C173.082 400.662 185.379 400.529 197.212 397.673L192.519 378.231ZM163.016 379.939C161.584 379.886 160.017 379.897 158.918 379.893C157.682 379.887 156.731 379.864 155.9 379.791C154.163 379.637 153.963 379.331 154.18 379.499L141.951 395.325C146.128 398.552 150.789 399.417 154.137 399.713C155.848 399.864 157.496 399.887 158.83 399.892C160.302 399.899 161.277 399.888 162.275 399.925L163.016 379.939ZM154.036 379.39C152.74 378.425 151.293 376.291 149.904 371.905C149.247 369.832 148.703 367.597 148.143 365.155C147.618 362.862 147.026 360.142 146.364 357.746L127.087 363.078C127.595 364.912 128.039 366.962 128.649 369.625C129.225 372.138 129.919 375.045 130.837 377.944C132.598 383.503 135.652 390.639 142.096 395.434L154.036 379.39ZM146.292 357.5C144.82 352.662 142.777 348.006 140.894 344.053L122.837 352.651C124.555 356.258 126.111 359.881 127.159 363.324L146.292 357.5ZM140.703 343.673C138.364 339.255 137.545 338.38 137.036 336.447L117.695 341.537C118.986 346.444 122.127 351.329 123.028 353.031L140.703 343.673ZM137.171 337.031C136.252 332.433 136.745 327.593 137.331 320.562L117.4 318.902C116.906 324.831 115.959 332.951 117.56 340.953L137.171 337.031ZM137.347 320.337C137.729 314.045 137.726 307.804 137.726 302.092H117.726C117.726 307.9 117.723 313.539 117.384 319.127L137.347 320.337ZM137.726 302.092V302.092H117.726V302.092H137.726ZM137.726 302.092C137.726 299.651 137.396 297.406 137.068 295.591C136.903 294.681 136.721 293.79 136.565 293.026C136.402 292.225 136.266 291.554 136.148 290.904C135.652 288.165 135.854 287.459 135.95 287.217L117.342 279.887C115.097 285.585 115.84 290.999 116.468 294.47C117.244 298.749 117.726 300.14 117.726 302.092H137.726ZM136.132 286.714C135.973 287.193 135.81 286.762 137.787 285.62C138.708 285.089 139.801 284.568 141.192 283.943C142.415 283.395 144.188 282.631 145.698 281.876L136.753 263.988C135.744 264.493 134.681 264.944 133.007 265.695C131.502 266.37 129.636 267.233 127.789 268.299C124.232 270.352 119.298 273.971 117.159 280.39L136.132 286.714ZM144.94 282.217C144.924 282.223 144.986 282.198 145.207 282.122C145.501 282.022 145.597 281.992 146.039 281.843C146.688 281.624 147.719 281.268 148.793 280.781C150.232 280.13 155.375 277.725 156.867 271.757L137.464 266.907C137.962 264.916 139.081 263.696 139.715 263.146C140.292 262.646 140.697 262.493 140.543 262.562C140.425 262.616 140.184 262.71 139.635 262.896C139.478 262.949 138.994 263.11 138.744 263.196C138.422 263.306 137.977 263.461 137.512 263.647L144.94 282.217ZM156.557 272.768C158.293 268.023 159.08 263.163 159.671 259.122C160.306 254.77 160.712 251.444 161.534 248.23L142.158 243.274C141 247.8 140.415 252.574 139.881 256.232C139.301 260.201 138.739 263.261 137.774 265.896L156.557 272.768ZM161.537 248.219C163.829 239.212 167.573 230.912 171.702 220.966L153.23 213.298C149.438 222.432 144.902 232.492 142.155 243.285L161.537 248.219ZM171.804 220.708C175.227 211.77 177.839 204.04 181.39 196.599L163.341 187.985C159.332 196.383 156.184 205.574 153.127 213.555L171.804 220.708ZM181.272 196.838C185.444 188.665 190.365 180.866 195.555 172.58C200.659 164.432 206.015 155.824 210.507 146.649L192.544 137.855C188.576 145.96 183.762 153.731 178.606 161.964C173.536 170.058 168.107 178.639 163.459 187.746L181.272 196.838ZM210.47 146.724C212.609 142.446 214.648 137.384 216.276 133.639L197.935 125.665C195.963 130.2 194.403 134.137 192.581 137.78L210.47 146.724ZM215.106 135.652C215.654 134.921 216.712 133.372 217.484 131.518C217.84 130.663 218.493 128.92 218.545 126.755C218.603 124.361 217.843 120.112 213.733 117.371L202.639 134.012C199.068 131.632 198.51 127.968 198.551 126.271C198.587 124.804 199.003 123.871 199.022 123.826C199.12 123.592 199.098 123.663 199.106 123.652L215.106 135.652ZM215.257 118.621C213.14 116.505 210.725 115.871 209.829 115.664C208.694 115.402 207.687 115.338 207.093 115.316C206.448 115.292 205.871 115.306 205.529 115.317C204.989 115.333 205.106 115.332 205.126 115.332V135.332C205.391 135.332 205.638 135.324 205.766 135.32C205.975 135.313 205.986 135.312 206.134 135.308C206.348 135.301 206.391 135.304 206.353 135.303C206.325 135.302 206.229 135.297 206.082 135.281C205.941 135.266 205.678 135.231 205.332 135.152C205.002 135.076 204.443 134.923 203.772 134.617C203.112 134.315 202.109 133.757 201.114 132.763L215.257 118.621ZM205.126 115.332C203.245 115.332 201.462 115.443 200.021 115.53C198.492 115.623 197.305 115.692 196.126 115.692V135.692C198.007 135.692 199.79 135.581 201.231 135.494C202.76 135.401 203.947 135.332 205.126 135.332V115.332ZM196.126 115.692C189.92 115.692 183.786 115.877 177.825 116.056C171.816 116.237 165.98 116.412 160.126 116.412V136.412C166.331 136.412 172.465 136.227 178.426 136.047C184.435 135.867 190.271 135.692 196.126 135.692V115.692ZM160.126 116.412C149.759 116.412 138.953 116.594 128.46 117.146L129.511 137.118C139.539 136.59 149.972 136.412 160.126 136.412V116.412ZM128.486 117.144C118.577 117.64 106.435 117.497 94.9328 119.641L98.5984 139.303C108.337 137.487 117.795 137.704 129.485 137.119L128.486 117.144ZM94.687 119.69C78.9312 123.038 62.6036 130.289 49.8265 140.072L61.9847 155.952C72.2476 148.094 85.8 142.025 98.8442 139.254L94.687 119.69ZM49.8402 140.061C30.4938 154.821 14.5124 181.725 23.7237 209.809L42.7275 203.575C37.1788 186.658 46.3974 167.843 61.971 155.962L49.8402 140.061ZM23.7253 209.813C28.765 225.152 42.003 239.522 57.0753 245.506L64.4559 226.918C55.0482 223.182 45.9662 213.432 42.7259 203.57L23.7253 209.813ZM57.4022 245.629C63.4695 247.796 69.7022 248.731 74.7327 249.548C80.0871 250.417 84.3414 251.184 88.2491 252.719L95.5621 234.104C89.3898 231.68 83.114 230.647 77.9385 229.806C72.4389 228.913 68.1417 228.228 64.129 226.795L57.4022 245.629ZM88.1326 252.673C91.1538 253.904 94.0301 256.267 98.2004 259.869L111.273 244.733C107.602 241.561 102.272 236.837 95.6786 234.151L88.1326 252.673ZM98.2004 259.869L98.3291 259.98L111.402 244.844L111.273 244.733L98.2004 259.869ZM98.4169 260.055C103.907 264.687 109.421 269.855 114.6 275.206L128.972 261.298C123.35 255.489 117.345 249.857 111.314 244.769L98.4169 260.055ZM114.26 274.837C114.658 275.292 115.065 275.702 115.34 275.974C115.623 276.255 115.953 276.573 116.191 276.803C116.745 277.34 117.132 277.727 117.431 278.062C117.57 278.218 117.637 278.303 117.652 278.324C117.674 278.354 117.58 278.233 117.444 277.975C117.316 277.733 117.045 277.17 116.866 276.335C116.681 275.471 116.567 274.176 116.944 272.667L136.347 277.517C137.357 273.477 135.937 270.168 135.139 268.654C134.251 266.969 133.126 265.611 132.35 264.742C131.524 263.817 130.674 262.989 130.114 262.445C129.358 261.713 129.279 261.63 129.311 261.667L114.26 274.837ZM116.84 273.131C117.331 270.677 118.655 269.164 119.314 268.525C119.987 267.872 120.56 267.549 120.668 267.489C120.817 267.404 120.878 267.383 120.69 267.468C120.468 267.568 120.645 267.487 120.338 267.625C120.2 267.687 119.939 267.805 119.654 267.948L128.598 285.836C128.538 285.866 128.371 285.944 128.906 285.703C129.23 285.557 129.842 285.277 130.509 284.9C131.133 284.547 132.191 283.898 133.24 282.88C134.276 281.875 135.871 279.957 136.451 277.053L116.84 273.131ZM121.143 267.347C118.234 268.256 115.953 268.893 114.065 269.129L116.546 288.975C120.418 288.491 124.257 287.328 127.108 286.437L121.143 267.347ZM113.517 269.213C100.988 271.491 90.6057 273.325 81.4857 270.562L75.6855 289.702C90.3255 294.139 105.863 290.933 117.094 288.891L113.517 269.213ZM81.4404 270.548C73.3043 268.125 66.6735 264.762 63.5298 260.317L47.2014 271.867C54.4977 282.182 66.9469 287.099 75.7308 289.716L81.4404 270.548ZM63.6187 260.445C63.7304 260.608 63.6403 260.603 62.9764 257.826C62.5784 256.162 61.5843 251.329 57.9367 247.681L43.7945 261.823C43.1989 261.227 43.0313 260.738 43.0823 260.867C43.1576 261.057 43.2777 261.444 43.5248 262.478C43.7198 263.293 44.0619 264.824 44.5215 266.276C45.0058 267.805 45.7721 269.78 47.1125 271.739L63.6187 260.445ZM57.9367 247.681C54.4842 244.228 50.3773 242.046 47.5381 240.56C44.2447 238.836 42.4354 237.924 40.9823 236.74L28.3489 252.244C31.7558 255.02 35.7965 256.988 38.2631 258.279C41.1839 259.808 42.747 260.775 43.7945 261.823L57.9367 247.681ZM40.7831 236.581C29.2798 227.686 22.7434 216.647 20.6142 202.503L0.837017 205.481C3.74784 224.817 13.0514 240.418 28.5481 252.402L40.7831 236.581ZM20.6339 202.641C19.697 195.77 19.8323 188.765 20.8179 181.374L0.99332 178.73C-0.181143 187.539 -0.405763 196.374 0.817297 205.343L20.6339 202.641ZM20.7618 181.742C21.7214 176.144 23.3084 170.634 25.4672 165.7L7.14402 157.684C4.26275 164.27 2.24981 171.36 1.04938 178.362L20.7618 181.742ZM25.4643 165.707C30.2647 154.756 38.135 146.515 48.9023 138.895L37.3489 122.569C24.7162 131.509 13.8665 142.348 7.14691 157.677L25.4643 165.707ZM48.8674 138.919C74.2821 121.096 104.212 116.751 137.14 112.385L134.511 92.5587C102.279 96.8326 67.409 101.488 37.3838 122.545L48.8674 138.919ZM137.031 112.399C149.225 110.918 161.304 110.493 174.192 109.732C186.869 108.984 200.059 107.917 213.355 105.047L209.136 85.497C197.412 88.0273 185.493 89.0301 173.014 89.7668C160.747 90.491 147.626 90.9655 134.62 92.5448L137.031 112.399ZM213.494 105.016C228.029 101.662 242.305 96.6081 255.493 92.4867C268.997 88.2669 281.923 84.8173 295.324 83.8246L293.847 63.8793C278.088 65.0466 263.384 69.067 249.528 73.3971C235.356 77.8257 222.543 82.4021 208.997 85.528L213.494 105.016ZM295.289 83.8271C316.295 82.3454 337.528 83.2081 359.291 84.4434C380.873 85.6683 403.15 87.275 425.348 87.0916L425.183 67.0923C403.821 67.2688 382.448 65.7255 360.425 64.4755C338.583 63.2358 316.256 62.2985 293.882 63.8767L295.289 83.8271ZM425.399 87.091C453.188 86.7205 480.8 82.8344 507.571 78.3122L504.24 58.5916C477.731 63.0694 451.343 66.7433 425.132 67.0928L425.399 87.091ZM507.333 78.3495L508.889 78.1251L506.033 58.33L504.478 58.5544L507.333 78.3495ZM508.888 78.1251C525.772 75.6898 543.506 73.139 560.795 68.9967L556.136 49.5471C539.891 53.4391 523.073 55.8721 506.033 58.33L508.888 78.1251ZM560.635 69.0338C568.588 67.2664 579.892 64.5532 588.648 57.2172L575.803 41.8867C571.239 45.7107 564.543 47.6774 556.296 49.5101L560.635 69.0338ZM588.915 56.9849C593.199 53.1298 596.853 48.2301 599.277 45.3538C602.034 42.0823 604.211 40.0194 606.858 38.6962L597.913 20.8077C591.56 23.9845 587.257 28.5816 583.984 32.4651C580.378 36.7438 578.453 39.4941 575.536 42.119L588.915 56.9849ZM606.816 38.7167C612.557 35.8793 618.964 35.1585 626.991 35.0941C634.371 35.0349 644.432 35.6409 653.734 34.2405L650.757 14.4633C643.32 15.583 636.281 15.0189 626.83 15.0948C618.027 15.1654 607.874 15.8845 597.955 20.7871L606.816 38.7167ZM653.66 34.2514C659.724 33.3851 664.923 31.0142 668.965 29.0396C673.424 26.8613 676.238 25.3243 679.336 24.3605L673.395 5.26336C668.393 6.81951 663.557 9.42253 660.186 11.0692C656.398 12.9196 653.587 14.0587 650.831 14.4524L653.66 34.2514ZM679.492 24.3107C691.893 20.2294 705.575 20.8756 721.429 20.489L720.942 0.494902C707.276 0.82821 689.279 0.034424 673.239 5.31314L679.492 24.3107ZM721.64 20.4816C726.339 20.268 729.436 19.9164 732.965 20.0155C736.161 20.1053 738.383 20.5954 740.117 21.5059L749.414 3.79795C743.948 0.928414 738.34 0.158577 733.526 0.0233717C729.045 -0.102496 723.952 0.355853 720.732 0.502244L721.64 20.4816ZM739.668 21.2548C740.351 21.6601 741.006 22.2769 742.399 24.1007C743.561 25.6207 745.834 28.8925 749.017 31.5216L761.754 16.1023C760.797 15.3114 760.19 14.4432 758.292 11.9582C756.625 9.77698 754.04 6.52378 749.864 4.04902L739.668 21.2548ZM749.08 31.573C751.804 33.7866 754.651 34.9623 756.683 35.7036C759.257 36.6429 759.789 36.7121 761.044 37.27L769.167 18.9938C767.964 18.459 766.813 18.0455 765.892 17.7271C764.825 17.3585 764.277 17.1848 763.538 16.9152C762.24 16.4415 761.847 16.1773 761.692 16.0509L749.08 31.573ZM760.343 36.9249C762.929 38.3256 765.324 40.617 767.246 43.6919L784.206 33.0919C780.727 27.5269 775.922 22.6182 769.868 19.339L760.343 36.9249ZM766.876 43.0494C768.293 45.7404 769.483 48.8269 770.398 52.183L789.693 46.9209C788.449 42.357 786.758 37.8834 784.575 33.7345L766.876 43.0494ZM770.284 51.7213C770.419 52.3316 770.525 52.9385 770.734 54.0359C770.917 55.0026 771.164 56.2471 771.512 57.5432C772.162 59.9639 773.454 63.7621 776.575 66.883L790.717 52.7408C791.318 53.3418 791.17 53.6299 790.829 52.3606C790.682 51.8118 790.546 51.1663 790.381 50.2992C790.241 49.5629 790.032 48.3923 789.807 47.3825L770.284 51.7213ZM776.575 66.883C781.991 72.2993 788.755 72.4065 793.769 70.6368C798.205 69.0712 801.7 66.034 803.878 63.5999L788.973 50.264C788.614 50.6657 788.188 51.0604 787.77 51.3698C787.334 51.6927 787.096 51.7828 787.112 51.777C787.141 51.7668 787.697 51.5753 788.595 51.7242C789.048 51.7993 789.497 51.9484 789.904 52.1621C790.307 52.3735 790.574 52.5979 790.717 52.7409L776.575 66.883ZM802.673 64.7405C803.52 64.0629 804.14 63.3535 804.351 63.1119C804.643 62.7793 804.924 62.4329 805.092 62.2253C805.537 61.6782 805.687 61.4986 805.791 61.3894C805.823 61.3557 805.718 61.4708 805.494 61.6533C805.305 61.8074 804.738 62.251 803.832 62.6481C802.922 63.047 801.164 63.6157 798.915 63.2762C796.461 62.9058 794.586 61.6325 793.4 60.277L808.451 47.1069C806.95 45.3914 804.727 43.9269 801.9 43.5002C799.278 43.1044 797.123 43.7519 795.803 44.3307C793.448 45.3627 791.858 47.0172 791.291 47.6144C790.539 48.4053 789.857 49.2607 789.57 49.6135C789.481 49.723 789.418 49.7999 789.366 49.8626C789.314 49.9258 789.296 49.9468 789.3 49.942C789.3 49.9416 789.362 49.8701 789.471 49.7594C789.564 49.6649 789.81 49.4182 790.178 49.1234L802.673 64.7405ZM794.679 61.5005C792.585 59.8257 791.93 57.8128 791.742 57.1246C791.627 56.7012 791.58 56.3779 791.56 56.2103C791.54 56.0357 791.537 55.93 791.537 55.9196C791.536 55.9059 791.537 55.9369 791.535 56.0317C791.533 56.1272 791.528 56.247 791.519 56.4244C791.509 56.6322 791.466 57.3816 791.466 58.0119H811.466C811.466 58.0122 811.467 57.9967 811.496 57.3888C811.517 56.958 811.552 56.2012 811.529 55.3793C811.509 54.6117 811.432 53.3095 811.037 51.8624C810.664 50.4935 809.716 47.9182 807.173 45.8834L794.679 61.5005ZM791.466 58.0119C791.466 59.9709 791.234 61.4373 790.662 62.9606L809.389 69.9832C810.978 65.7466 811.466 61.813 811.466 58.0119H791.466ZM790.187 64.6831C790.302 64.0494 790.478 63.7042 790.395 63.8928C790.358 63.9753 790.305 64.0892 790.187 64.3359C790.088 64.541 789.917 64.895 789.752 65.2589C789.115 66.6607 787.701 69.9437 788.342 74.1124L808.109 71.0714C808.391 72.9001 807.696 74.1132 807.959 73.5349C808.019 73.4038 808.084 73.2684 808.219 72.987C808.334 72.7472 808.511 72.3773 808.689 71.976C809.033 71.1972 809.569 69.8844 809.864 68.2607L790.187 64.6831ZM788.454 74.7161C789.498 79.5208 792.552 83.1389 794.221 85.0399C796.647 87.8022 797.343 88.3328 798.072 89.3987L814.579 78.1051C813.595 76.6668 812.475 75.3895 811.616 74.4397C810.549 73.2602 810.041 72.7445 809.25 71.8439C808.581 71.0815 808.199 70.5788 807.98 70.2357C807.763 69.8935 807.895 69.9962 807.997 70.4677L788.454 74.7161ZM798.043 89.355C799.459 91.4484 800.507 93.8599 801.918 97.2826C803.212 100.422 804.898 104.65 807.47 108.624L824.261 97.7595C822.873 95.6134 821.86 93.1817 820.409 89.6613C819.074 86.424 817.332 82.1755 814.608 78.1488L798.043 89.355ZM807.417 108.542C814.849 120.276 824.462 130.791 833.634 139.963L847.777 125.821C838.949 116.993 830.562 107.707 824.314 97.8414L807.417 108.542ZM833.828 140.151C835.869 142.085 837.601 143.619 839.016 145.375C839.672 146.19 839.99 146.74 840.12 147.026C840.241 147.295 840.04 146.986 840.088 146.267L860.043 147.597C860.485 140.966 856.909 135.707 854.591 132.829C852.09 129.725 848.962 126.939 847.583 125.632L833.828 140.151ZM840.176 145.449C840.198 145.306 840.2 145.41 840.049 145.76C839.905 146.092 839.68 146.517 839.367 146.989C838.689 148.011 837.956 148.734 837.586 149.012L849.586 165.012C852.095 163.13 854.332 160.612 856.04 158.035C857.706 155.52 859.394 152.155 859.955 148.415L840.176 145.449ZM837.078 149.419C837.811 148.791 838.444 148.612 837.928 148.811C837.78 148.868 837.713 148.893 837.461 148.989C837.263 149.064 836.98 149.173 836.671 149.302C836.079 149.549 835.112 149.982 834.079 150.671L845.172 167.312C844.679 167.642 844.32 167.782 844.375 167.759C844.551 167.685 844.49 167.717 845.148 167.463C846.027 167.122 848.1 166.313 850.093 164.605L837.078 149.419ZM833.076 151.435C831.471 152.826 830.354 154.315 829.577 155.495C828.883 156.547 828.194 157.792 827.914 158.274C827.112 159.658 827.134 159.308 827.626 158.997L838.306 175.907C842.217 173.436 844.219 170.026 845.217 168.305C846.533 166.035 846.408 166.347 846.175 166.549L833.076 151.435ZM827.332 159.19C825.449 160.473 822.385 161.388 817.527 161.951C815.187 162.222 812.782 162.381 810.132 162.563C807.597 162.737 804.769 162.937 802.086 163.305L804.805 183.119C806.712 182.857 808.879 182.696 811.503 182.516C814.01 182.344 816.927 182.154 819.829 181.818C825.456 181.166 832.562 179.83 838.599 175.714L827.332 159.19ZM802.451 163.262C797.177 163.789 791.075 164.392 785.038 166.117L790.533 185.347C794.576 184.192 798.914 183.715 804.441 183.162L802.451 163.262ZM785.038 166.117C783.177 166.648 780.637 167.585 778.261 169.282C775.821 171.025 772.96 174.031 772.04 178.631L791.651 182.553C791.271 184.453 790.12 185.389 789.886 185.557C789.762 185.645 789.747 185.635 789.898 185.569C790.04 185.506 790.254 185.427 790.533 185.347L785.038 166.117ZM771.962 179.071C771.204 183.995 772.394 189.645 777.194 193.397C781.36 196.655 786.318 196.902 789.799 196.448L787.212 176.616C786.554 176.702 787.821 176.319 789.512 177.641C790.459 178.382 791.157 179.397 791.507 180.467C791.829 181.454 791.732 182.097 791.729 182.113L771.962 179.071ZM790.243 196.38C793.632 195.782 796.377 194.189 797.359 193.664C798.796 192.896 798.547 193.154 797.954 193.223L795.617 173.36C791.964 173.79 789.106 175.398 787.932 176.025C786.304 176.895 786.439 176.742 786.768 176.684L790.243 196.38ZM799.211 192.993C798.191 193.248 797.446 193.193 797.171 193.161C796.869 193.127 796.761 193.077 796.865 193.113C796.955 193.143 797.137 193.215 797.392 193.346C797.644 193.476 797.918 193.638 798.192 193.825C798.467 194.012 798.707 194.201 798.898 194.37C799.094 194.544 799.192 194.656 799.212 194.681C799.244 194.72 799.099 194.556 798.912 194.171C798.735 193.806 798.38 192.954 798.318 191.711L818.293 190.713C818.09 186.651 815.995 183.602 814.66 181.978C813.125 180.112 811.269 178.536 809.464 177.304C807.65 176.066 805.532 174.934 803.293 174.174C801.314 173.503 797.982 172.685 794.36 173.59L799.211 192.993ZM798.383 192.452C798.444 192.941 798.411 193.878 798.005 195.911C797.716 197.355 796.91 200.673 796.583 203.292L816.428 205.772C816.641 204.071 817.005 202.889 817.616 199.833C818.11 197.365 818.707 193.802 818.228 189.972L798.383 192.452ZM796.586 203.266C796.434 204.454 796.3 205.749 796.175 206.923C796.045 208.148 795.916 209.327 795.76 210.5C795.442 212.897 795.056 214.893 794.535 216.471C794.283 217.234 794.037 217.779 793.828 218.151C793.622 218.519 793.494 218.642 793.496 218.641C793.708 218.436 793.976 218.467 793.569 218.473L793.882 238.471C799.235 238.387 803.846 236.438 807.366 233.05C810.635 229.902 812.443 226.023 813.526 222.743C815.548 216.62 816.031 208.886 816.425 205.798L796.586 203.266ZM793.726 218.472C791.322 218.472 789.366 218.467 787.472 218.321L785.939 238.262C788.725 238.477 791.449 238.472 793.726 238.472V218.472ZM788.801 218.514C788.573 218.465 788.42 218.418 788.327 218.384C788.236 218.352 788.196 218.33 788.191 218.327C788.187 218.325 788.198 218.331 788.216 218.345C788.234 218.359 788.238 218.365 788.227 218.352C788.137 218.259 787.718 217.758 786.99 215.938L768.421 223.366C769.493 226.046 771.054 229.325 773.754 232.157C776.662 235.205 780.314 237.149 784.61 238.07L788.801 218.514ZM786.281 214.507C786.467 214.818 786.645 215.204 786.249 214.376C786.038 213.934 785.595 213.015 784.976 212.06C784.429 211.214 783.23 209.509 781.176 208.176C778.703 206.571 775.199 205.687 771.483 206.925L777.808 225.899C776.554 226.317 775.122 226.47 773.645 226.234C772.21 226.005 771.079 225.466 770.286 224.952C768.874 224.035 768.237 223.005 768.185 222.924C768.062 222.734 768.046 222.67 768.206 223.004C768.221 223.035 768.409 223.434 768.488 223.596C768.586 223.799 768.82 224.28 769.13 224.797L786.281 214.507ZM770.174 207.468C767.417 208.846 765.934 210.995 765.214 212.315C764.466 213.688 764.084 214.994 763.876 215.877C763.462 217.637 763.386 219.272 763.386 220.192H783.386C783.386 220.212 783.399 220.226 783.345 220.457C783.317 220.574 783.183 221.139 782.772 221.892C782.389 222.594 781.335 224.248 779.118 225.356L770.174 207.468ZM763.435 219.197C763.291 220.635 763.284 221.947 763.29 222.922C763.297 224.065 763.316 224.556 763.299 225.194C763.272 226.222 763.15 226.017 763.384 225.595L780.867 235.308C782.901 231.647 783.229 228.112 783.292 225.72C783.32 224.648 783.294 223.407 783.29 222.794C783.285 222.014 783.3 221.549 783.336 221.187L763.435 219.197ZM763.337 225.681C762.52 227.186 761.024 228.82 758.308 231.232C756.033 233.253 752.177 236.387 749.269 239.743L764.382 252.841C766.154 250.797 768.238 249.161 771.588 246.187C774.497 243.604 778.311 240.018 780.914 235.223L763.337 225.681ZM748.688 240.48C748.229 241.122 747.882 241.739 747.688 242.092C747.471 242.488 747.266 242.89 747.111 243.195C746.747 243.913 746.547 244.316 746.337 244.689C746.071 245.16 746.188 244.849 746.688 244.319C746.949 244.042 747.7 243.285 748.974 242.654C750.389 241.953 752.653 241.331 755.291 241.991L750.44 261.393C756.528 262.915 760.511 258.812 761.243 258.036C762.479 256.724 763.327 255.277 763.76 254.51C764.247 253.646 764.711 252.709 764.948 252.241C765.357 251.436 765.27 251.674 764.963 252.104L748.688 240.48ZM754.51 241.828C755.87 242.055 756.737 242.597 757.06 242.823C757.387 243.053 757.485 243.19 757.356 243.048C757.243 242.923 757.069 242.71 756.799 242.346C756.666 242.166 756.536 241.986 756.372 241.76C756.228 241.559 756.026 241.279 755.826 241.012L739.826 253.012C739.904 253.116 741.262 255.07 742.525 256.466C743.673 257.735 746.618 260.789 751.222 261.556L754.51 241.828ZM756.047 241.32C754.984 239.784 754.091 237.961 752.88 235.334C751.777 232.941 750.319 229.663 748.368 226.564L731.443 237.22C732.552 238.981 733.434 240.923 734.716 243.705C735.89 246.253 737.427 249.56 739.604 252.704L756.047 241.32Z" fill="black" mask="url(#path-1-outside-1_54_31)"/>
</svg>
