<svg width="1772" height="1781" viewBox="0 0 1772 1781" fill="none" xmlns="http://www.w3.org/2000/svg">
<path d="M885.386 1566.25L870.121 1716.36L849.106 1714.22L805.707 1604.08L741.454 1703.27L720.224 1701.11L735.489 1551L753.503 1552.84L741.509 1670.78L801.502 1579.38L815.012 1580.76L855.401 1682.14L867.373 1564.41L885.386 1566.25Z" fill="currentColor"/>
<path d="M703.297 1542.84L596.606 1663.16L578.737 1656.18L582.024 1495.48L599.894 1502.46L598.629 1543.62L658.463 1566.98L685.628 1535.94L703.297 1542.84ZM648.111 1578.68L598.317 1559.23L596.083 1638.42L648.111 1578.68Z" fill="currentColor"/>
<path d="M558.257 1481.61L476.267 1608.27L461.068 1598.44L498.197 1541.07L408.23 1564.23L389.049 1551.82L468.775 1531.79L470.315 1424.68L488.772 1436.63L487.245 1527.05L511.081 1521.17L543.057 1471.77L558.257 1481.61Z" fill="currentColor"/>
<path d="M442.741 1399.36L341.149 1510.92L272.141 1448.08L282.155 1437.08L337.776 1487.73L373.188 1448.84L322.349 1402.55L332.218 1391.71L383.057 1438.01L419.34 1398.16L363.72 1347.51L373.734 1336.52L442.741 1399.36Z" fill="currentColor"/>
<path d="M280.103 1192.63L144.638 1259.08L136.664 1242.83L272.129 1176.38L280.103 1192.63Z" fill="currentColor"/>
<path d="M243.058 1111.36L96.9895 1149.18L92.4511 1131.65L189.362 1023.51L72.2985 1053.82L67.7601 1036.29L213.829 998.471L218.367 1016L121.456 1124.14L238.52 1093.83L243.058 1111.36Z" fill="currentColor"/>
<path d="M214.016 794.388L64.8703 771.539L67.612 753.642L216.758 776.49L214.016 794.388Z" fill="currentColor"/>
<path d="M230.042 706.522L88.5487 654.119L94.8371 637.14L236.157 603.742L122.761 561.744L129.049 544.765L270.542 597.168L264.254 614.148L122.934 647.546L236.33 689.543L230.042 706.522Z" fill="currentColor"/>
<path d="M279.456 560.269L151.408 480.456L175.922 441.127C189.984 418.566 206.054 405.554 224.13 402.089C242.282 398.503 261.359 402.942 281.359 415.409C300.993 427.647 313.197 442.704 317.971 460.581C322.699 478.26 318.032 498.379 303.97 520.94L279.456 560.269ZM276.229 536.922L290.937 513.325C298.691 500.886 302.835 489.754 303.372 479.928C303.862 469.905 301.315 460.951 295.73 453.068C290.024 445.108 281.927 437.86 271.439 431.323C260.707 424.634 250.512 420.48 240.853 418.862C231.193 417.244 221.972 418.863 213.189 423.717C204.482 428.45 196.252 437.036 188.499 449.474L173.79 473.072L276.229 536.922Z" fill="currentColor"/>
<path d="M387.287 429.77L277.926 325.815L290.4 312.692L399.761 416.647L387.287 429.77Z" fill="currentColor"/>
<path d="M444.872 370.815L404.32 215.205L420.066 204.245L551.73 296.44L535.984 307.4L502.497 283.436L449.776 320.13L460.441 359.979L444.872 370.815ZM445.825 305.022L489.7 274.484L425.157 228.54L445.825 305.022Z" fill="currentColor"/>
<path d="M739.729 182.216C735.224 183.142 730.77 182.883 726.366 181.441C722.103 179.97 718.455 177.566 715.421 174.228C712.359 170.75 710.351 166.688 709.396 162.043C708.413 157.257 708.657 152.732 710.128 148.469C711.57 144.065 713.96 140.346 717.298 137.313C720.776 134.251 724.767 132.257 729.272 131.332C734.057 130.348 738.582 130.592 742.845 132.063C747.249 133.505 750.982 135.966 754.045 139.444C757.078 142.782 759.086 146.843 760.07 151.629C761.024 156.274 760.78 160.799 759.338 165.203C757.867 169.466 755.392 173.129 751.914 176.191C748.576 179.224 744.514 181.233 739.729 182.216Z" fill="currentColor"/>
<path d="M946.651 213.256L977.024 65.4589L997.716 69.7111L1029.75 183.681L1103.71 91.4929L1124.61 95.7885L1094.24 243.585L1076.5 239.941L1100.37 123.815L1031.43 208.674L1018.13 205.94L988.208 100.986L964.387 216.901L946.651 213.256Z" fill="currentColor"/>
<path d="M1124.53 257.854L1240.27 146.207L1257.54 154.556L1241.75 314.512L1224.48 306.163L1228.94 265.228L1171.11 237.274L1141.61 266.109L1124.53 257.854ZM1182.34 226.422L1230.47 249.686L1238.86 170.906L1182.34 226.422Z" fill="currentColor"/>
<path d="M1270.07 332.383L1370.07 219.396L1404.77 250.111C1424.68 267.73 1434.84 285.74 1435.25 304.141C1435.77 322.637 1428.21 340.709 1412.59 358.356C1397.26 375.681 1380.38 385.21 1361.96 386.944C1343.74 388.666 1324.68 380.717 1304.77 363.098L1270.07 332.383ZM1293.63 333.084L1314.45 351.513C1325.43 361.228 1335.71 367.167 1345.31 369.33C1355.11 371.481 1364.37 370.459 1373.07 366.263C1381.87 361.96 1390.36 355.182 1398.55 345.928C1406.93 336.458 1412.72 327.096 1415.93 317.84C1419.13 308.585 1419.07 299.223 1415.74 289.755C1412.52 280.382 1405.43 270.838 1394.45 261.124L1373.63 242.695L1293.63 333.084Z" fill="currentColor"/>
<path d="M1388.21 437.191L1508.91 346.648L1564.91 421.309L1553.02 430.234L1507.87 370.056L1465.8 401.617L1507.06 456.622L1495.34 465.417L1454.08 410.413L1410.97 442.75L1456.11 502.927L1444.21 511.852L1388.21 437.191Z" fill="currentColor"/>
<path d="M1511.03 646.188L1652.52 593.785L1658.81 610.764L1517.32 663.167L1511.03 646.188Z" fill="currentColor"/>
<path d="M1539.66 730.79L1688.8 707.942L1691.55 725.84L1584.19 823.624L1703.72 805.313L1706.46 823.21L1557.32 846.059L1554.58 828.161L1661.93 730.377L1542.4 748.688L1539.66 730.79Z" fill="currentColor"/>
<path d="M1536.49 1049.08L1682.55 1086.9L1678.02 1104.42L1531.95 1066.6L1536.49 1049.08Z" fill="currentColor"/>
<path d="M1511.65 1134.87L1647.12 1201.32L1639.15 1217.57L1495.17 1236.5L1603.74 1289.76L1595.76 1306.01L1460.3 1239.56L1468.27 1223.31L1612.25 1204.38L1503.68 1151.12L1511.65 1134.87Z" fill="currentColor"/>
<path d="M1437.12 1275.69L1556.43 1368.05L1528.07 1404.7C1511.79 1425.72 1494.49 1437.04 1476.16 1438.66C1457.73 1440.39 1439.21 1434.04 1420.57 1419.62C1402.27 1405.45 1391.66 1389.24 1388.71 1370.97C1385.8 1352.9 1392.48 1333.36 1408.75 1312.34L1437.12 1275.69ZM1437.97 1299.24L1420.95 1321.23C1411.97 1332.82 1406.72 1343.48 1405.2 1353.2C1403.69 1363.12 1405.32 1372.29 1410.08 1380.7C1414.95 1389.19 1422.28 1397.22 1432.05 1404.79C1442.05 1412.53 1451.77 1417.69 1461.22 1420.28C1470.66 1422.86 1480 1422.19 1489.23 1418.25C1498.37 1414.42 1507.43 1406.71 1516.4 1395.12L1533.42 1373.13L1437.97 1299.24Z" fill="currentColor"/>
<path d="M1327.22 1394.29L1425.5 1508.78L1411.77 1520.57L1313.48 1406.09L1327.22 1394.29Z" fill="currentColor"/>
<path d="M1263.96 1447.12L1288.56 1606.03L1271.79 1615.34L1150.13 1510.3L1166.9 1500.99L1197.79 1528.22L1253.96 1497.05L1247.38 1456.32L1263.96 1447.12ZM1256.36 1512.48L1209.62 1538.42L1269.18 1590.66L1256.36 1512.48Z" fill="currentColor"/>
<path d="M951.539 1604.92C956.114 1604.46 960.519 1605.16 964.755 1607.04C968.847 1608.94 972.234 1611.7 974.913 1615.33C977.608 1619.1 979.195 1623.34 979.675 1628.06C980.169 1632.92 979.469 1637.4 977.574 1641.49C975.694 1645.72 972.94 1649.18 969.312 1651.86C965.542 1654.56 961.369 1656.14 956.794 1656.6C951.934 1657.1 947.457 1656.4 943.364 1654.5C939.129 1652.62 935.664 1649.8 932.969 1646.03C930.289 1642.4 928.702 1638.15 928.208 1633.29C927.728 1628.58 928.429 1624.1 930.309 1619.86C932.204 1615.77 935.036 1612.38 938.807 1609.68C942.434 1607 946.678 1605.42 951.539 1604.92Z" fill="currentColor"/>
<circle cx="885.118" cy="890.018" r="553.5" stroke="currentColor" stroke-width="10"/>
</svg>
