<svg xmlns="http://www.w3.org/2000/svg" xmlns:xlink="http://www.w3.org/1999/xlink" viewBox="0 0 512 512" width="512" height="512"  preserveAspectRatio="xMidYMid meet"><defs><clipPath id="__lottie_element_541"><rect width="512" height="512" x="0" y="0"></rect></clipPath></defs><g clip-path="url(#__lottie_element_541)"><g style="display: block;" transform="matrix(1,0,0,1,256,256)" opacity="1"><path stroke-linecap="round" stroke-linejoin="round" fill-opacity="0" stroke="rgb(0,0,0)" stroke-opacity="1" stroke-width="30.72" d=" M-91.86,-193.4 C-91.86,-193.4 85.52,-193.4 85.52,-193.4 C147.52,-193.4 186.01,-149.46 186.01,-87.17 C186.01,-87.17 186.01,80.65 186.01,80.65 C186.01,142.84 147.42,186.78 85.41,186.78 C85.41,186.78 -91.86,186.78 -91.86,186.78 C-153.86,186.78 -192.46,142.84 -192.46,80.65 C-192.46,80.65 -192.46,-87.17 -192.46,-87.17 C-192.36,-149.36 -153.66,-193.4 -91.86,-193.4z M186.01,-56.33 C186.01,-56.33 -192.36,-56.33 -192.36,-56.33 M-17.34,-118.42 C-17.34,-118.42 -18.67,-118.42 -18.67,-118.42 M-121.84,-118.42 C-121.84,-118.42 -123.17,-118.42 -123.17,-118.42 C-123.17,-118.42 -121.84,-118.42 -121.84,-118.42z M-69.59,-118.42 C-69.59,-118.42 -70.92,-118.42 -70.92,-118.42 C-70.92,-118.42 -69.59,-118.42 -69.59,-118.42z"></path><g opacity="1" transform="matrix(0.9952239990234375,0,0,1,-0.015526771545410156,0)"><g opacity="1" transform="matrix(1,0,0,0.9916189312934875,0,-0.03771495819091797)"><g opacity="1" transform="matrix(0.9916189312934875,0,0,1,-0.00041905418038368225,0)"><g opacity="1" transform="matrix(1,0,0,1,0,0)"><g opacity="1" transform="matrix(1,0,0,1,0,0)"></g><g opacity="1" transform="matrix(1,0,0,1,0,0)"></g><g opacity="1" transform="matrix(1,0,0,1,0,0)"></g></g></g></g></g></g></g></svg>