<svg xmlns="http://www.w3.org/2000/svg" xmlns:xlink="http://www.w3.org/1999/xlink" viewBox="0 0 512 512" width="512" height="512" style="width: 100%; height: 100%; transform: translate3d(0px, 0px, 0px);" preserveAspectRatio="xMidYMid meet"><defs><clipPath id="__lottie_element_460"><rect width="512" height="512" x="0" y="0"></rect></clipPath></defs><g clip-path="url(#__lottie_element_460)"><g style="display: block;" transform="matrix(1,0,0,1,128.61898803710938,209.55599975585938)" opacity="1"><path stroke-linecap="round" stroke-linejoin="round" fill-opacity="0" stroke="rgb(0,0,0)" stroke-opacity="1" stroke-width="30.72" d=" M221.77,190.12 C244.65,166.57 258.67,134.48 258.67,99.19 C258.67,26.88 199.83,-31.55 127.45,-31.55 C92.05,-31.55 59.82,-17.62 36.22,5.22 C36.22,5.22 36.3,5.3 36.3,5.3 C11.47,29.1 -3.9,62.54 -3.9,99.49 C-3.9,171.8 54.94,230.23 127.32,230.23 C164.38,230.23 197.98,214.96 221.83,190.18 C221.83,190.18 221.77,190.12 221.77,190.12z M127.34,79.11 C127.34,79.11 127.34,119.92 127.34,119.92 C127.34,119.92 127.34,79.11 127.34,79.11z M43.09,-0.84 C43.09,-0.84 43.09,-54.23 43.09,-54.23 C43.2,-62.92 44.65,-71.28 47.22,-79.13 C47.22,-79.13 47.09,-79.17 47.09,-79.17 C57.95,-112.45 89.01,-136.44 125.89,-137.01 C162.24,-137.31 193.6,-114.69 205.75,-82.62"></path><g opacity="1" transform="matrix(1,0,0,0.9968445301055908,0,0.31305694580078125)"><g opacity="1" transform="matrix(1.000349760055542,0,0,1,-0.04443359375,0)"><g opacity="1" transform="matrix(1,0,0,1,0,0)"><g opacity="1" transform="matrix(1,0,0,1,0,0)"></g><g opacity="1" transform="matrix(1,0,0,1,0,0)"></g><g opacity="1" transform="matrix(1,0,0,1,0,0)"></g></g></g></g></g></g></svg>