<svg width="778" height="409" viewBox="0 0 778 409" fill="none" xmlns="http://www.w3.org/2000/svg">
<mask id="path-1-outside-1_46_1045" maskUnits="userSpaceOnUse" x="4.26001" y="54.68" width="307" height="157" fill="white">
<rect fill="white" x="4.26001" y="54.68" width="307" height="157"/>
<path d="M55.2541 206.68C45.8538 206.68 38.458 204.399 33.0666 199.837C27.6753 195.275 24.9796 187.05 24.9796 175.161V118.552H7.14662V103.829H24.9796L27.2605 79.1536H42.3978V103.829H72.6724V118.552H42.3978V175.161C42.3978 181.659 43.7111 186.082 46.3377 188.432C48.9642 190.644 53.5953 191.75 60.2308 191.75H71.0135V206.68H55.2541ZM94.8016 206.68V57.3808H112.22V121.455C115.676 115.096 120.583 110.188 126.942 106.732C133.301 103.138 140.213 101.341 147.678 101.341C159.567 101.341 169.106 105.074 176.294 112.539C183.483 119.865 187.077 131.201 187.077 146.546V206.68H169.866V148.412C169.866 126.985 161.226 116.271 143.946 116.271C134.96 116.271 127.426 119.52 121.344 126.017C115.261 132.376 112.22 141.5 112.22 153.388V206.68H94.8016ZM259.708 209.168C249.893 209.168 241.184 206.956 233.581 202.533C225.977 197.971 219.964 191.681 215.54 183.663C211.255 175.645 209.112 166.176 209.112 155.255C209.112 144.472 211.255 135.072 215.54 127.054C219.826 118.898 225.77 112.608 233.373 108.184C241.115 103.622 250.031 101.341 260.123 101.341C270.076 101.341 278.647 103.622 285.835 108.184C293.162 112.608 298.761 118.483 302.631 125.81C306.502 133.136 308.437 141.016 308.437 149.449C308.437 150.969 308.368 152.49 308.23 154.011C308.23 155.531 308.23 157.259 308.23 159.195H226.323C226.738 167.074 228.535 173.641 231.714 178.894C235.032 184.009 239.11 187.879 243.949 190.506C248.925 193.132 254.178 194.446 259.708 194.446C266.896 194.446 272.91 192.787 277.748 189.469C282.587 186.151 286.112 181.659 288.324 175.991H305.534C302.77 185.529 297.447 193.478 289.568 199.837C281.826 206.058 271.873 209.168 259.708 209.168ZM259.708 116.064C251.413 116.064 244.018 118.621 237.52 123.736C231.161 128.713 227.498 136.039 226.53 145.716H291.227C290.812 136.454 287.632 129.196 281.688 123.943C275.744 118.69 268.417 116.064 259.708 116.064Z"/>
</mask>
<path d="M55.2541 206.68C45.8538 206.68 38.458 204.399 33.0666 199.837C27.6753 195.275 24.9796 187.05 24.9796 175.161V118.552H7.14662V103.829H24.9796L27.2605 79.1536H42.3978V103.829H72.6724V118.552H42.3978V175.161C42.3978 181.659 43.7111 186.082 46.3377 188.432C48.9642 190.644 53.5953 191.75 60.2308 191.75H71.0135V206.68H55.2541ZM94.8016 206.68V57.3808H112.22V121.455C115.676 115.096 120.583 110.188 126.942 106.732C133.301 103.138 140.213 101.341 147.678 101.341C159.567 101.341 169.106 105.074 176.294 112.539C183.483 119.865 187.077 131.201 187.077 146.546V206.68H169.866V148.412C169.866 126.985 161.226 116.271 143.946 116.271C134.96 116.271 127.426 119.52 121.344 126.017C115.261 132.376 112.22 141.5 112.22 153.388V206.68H94.8016ZM259.708 209.168C249.893 209.168 241.184 206.956 233.581 202.533C225.977 197.971 219.964 191.681 215.54 183.663C211.255 175.645 209.112 166.176 209.112 155.255C209.112 144.472 211.255 135.072 215.54 127.054C219.826 118.898 225.77 112.608 233.373 108.184C241.115 103.622 250.031 101.341 260.123 101.341C270.076 101.341 278.647 103.622 285.835 108.184C293.162 112.608 298.761 118.483 302.631 125.81C306.502 133.136 308.437 141.016 308.437 149.449C308.437 150.969 308.368 152.49 308.23 154.011C308.23 155.531 308.23 157.259 308.23 159.195H226.323C226.738 167.074 228.535 173.641 231.714 178.894C235.032 184.009 239.11 187.879 243.949 190.506C248.925 193.132 254.178 194.446 259.708 194.446C266.896 194.446 272.91 192.787 277.748 189.469C282.587 186.151 286.112 181.659 288.324 175.991H305.534C302.77 185.529 297.447 193.478 289.568 199.837C281.826 206.058 271.873 209.168 259.708 209.168ZM259.708 116.064C251.413 116.064 244.018 118.621 237.52 123.736C231.161 128.713 227.498 136.039 226.53 145.716H291.227C290.812 136.454 287.632 129.196 281.688 123.943C275.744 118.69 268.417 116.064 259.708 116.064Z" fill="white"/>
<path d="M24.9796 118.552H26.9796V116.552H24.9796V118.552ZM7.14662 118.552H5.14662V120.552H7.14662V118.552ZM7.14662 103.829V101.829H5.14662V103.829H7.14662ZM24.9796 103.829V105.829H26.8032L26.9711 104.014L24.9796 103.829ZM27.2605 79.1536V77.1536H25.4369L25.269 78.9695L27.2605 79.1536ZM42.3978 79.1536H44.3978V77.1536H42.3978V79.1536ZM42.3978 103.829H40.3978V105.829H42.3978V103.829ZM72.6724 103.829H74.6724V101.829H72.6724V103.829ZM72.6724 118.552V120.552H74.6724V118.552H72.6724ZM42.3978 118.552V116.552H40.3978V118.552H42.3978ZM46.3377 188.432L45.0041 189.923L45.0264 189.943L45.0494 189.962L46.3377 188.432ZM71.0135 191.75H73.0135V189.75H71.0135V191.75ZM71.0135 206.68V208.68H73.0135V206.68H71.0135ZM55.2541 204.68C46.1689 204.68 39.2841 202.478 34.3585 198.31L31.7747 201.364C37.6318 206.32 45.5388 208.68 55.2541 208.68V204.68ZM34.3585 198.31C29.6461 194.323 26.9796 186.85 26.9796 175.161H22.9796C22.9796 187.25 25.7045 196.227 31.7747 201.364L34.3585 198.31ZM26.9796 175.161V118.552H22.9796V175.161H26.9796ZM24.9796 116.552H7.14662V120.552H24.9796V116.552ZM9.14662 118.552V103.829H5.14662V118.552H9.14662ZM7.14662 105.829H24.9796V101.829H7.14662V105.829ZM26.9711 104.014L29.2521 79.3377L25.269 78.9695L22.9881 103.645L26.9711 104.014ZM27.2605 81.1536H42.3978V77.1536H27.2605V81.1536ZM40.3978 79.1536V103.829H44.3978V79.1536H40.3978ZM42.3978 105.829H72.6724V101.829H42.3978V105.829ZM70.6724 103.829V118.552H74.6724V103.829H70.6724ZM72.6724 116.552H42.3978V120.552H72.6724V116.552ZM40.3978 118.552V175.161H44.3978V118.552H40.3978ZM40.3978 175.161C40.3978 181.787 41.7095 186.975 45.0041 189.923L47.6713 186.942C45.7127 185.189 44.3978 181.53 44.3978 175.161H40.3978ZM45.0494 189.962C48.2472 192.655 53.5029 193.75 60.2308 193.75V189.75C53.6876 189.75 49.6813 188.633 47.6259 186.902L45.0494 189.962ZM60.2308 193.75H71.0135V189.75H60.2308V193.75ZM69.0135 191.75V206.68H73.0135V191.75H69.0135ZM71.0135 204.68H55.2541V208.68H71.0135V204.68ZM94.8016 206.68H92.8016V208.68H94.8016V206.68ZM94.8016 57.3808V55.3808H92.8016V57.3808H94.8016ZM112.22 57.3808H114.22V55.3808H112.22V57.3808ZM112.22 121.455H110.22L113.977 122.41L112.22 121.455ZM126.942 106.732L127.897 108.49L127.912 108.482L127.927 108.474L126.942 106.732ZM176.294 112.539L174.853 113.926L174.86 113.933L174.866 113.939L176.294 112.539ZM187.077 206.68V208.68H189.077V206.68H187.077ZM169.866 206.68H167.866V208.68H169.866V206.68ZM121.344 126.017L122.789 127.399L122.796 127.392L122.804 127.384L121.344 126.017ZM112.22 206.68V208.68H114.22V206.68H112.22ZM96.8016 206.68V57.3808H92.8016V206.68H96.8016ZM94.8016 59.3808H112.22V55.3808H94.8016V59.3808ZM110.22 57.3808V121.455H114.22V57.3808H110.22ZM113.977 122.41C117.249 116.39 121.878 111.761 127.897 108.49L125.987 104.975C119.289 108.616 114.103 113.802 110.463 120.5L113.977 122.41ZM127.927 108.474C133.978 105.053 140.55 103.341 147.678 103.341V99.3411C139.876 99.3411 132.624 101.224 125.958 104.991L127.927 108.474ZM147.678 103.341C159.111 103.341 168.099 106.911 174.853 113.926L177.735 111.151C170.113 103.236 160.023 99.3411 147.678 99.3411V103.341ZM174.866 113.939C181.541 120.742 185.077 131.469 185.077 146.546H189.077C189.077 130.933 185.424 118.988 177.722 111.138L174.866 113.939ZM185.077 146.546V206.68H189.077V146.546H185.077ZM187.077 204.68H169.866V208.68H187.077V204.68ZM171.866 206.68V148.412H167.866V206.68H171.866ZM171.866 148.412C171.866 137.482 169.671 128.914 164.943 123.051C160.148 117.106 153.022 114.271 143.946 114.271V118.271C152.15 118.271 157.983 120.793 161.829 125.562C165.741 130.413 167.866 137.915 167.866 148.412H171.866ZM143.946 114.271C134.413 114.271 126.348 117.744 119.884 124.65L122.804 127.384C128.504 121.295 135.508 118.271 143.946 118.271V114.271ZM119.898 124.634C113.35 131.481 110.22 141.169 110.22 153.388H114.22C114.22 141.83 117.172 133.271 122.789 127.399L119.898 124.634ZM110.22 153.388V206.68H114.22V153.388H110.22ZM112.22 204.68H94.8016V208.68H112.22V204.68ZM233.581 202.533L232.552 204.248L232.563 204.255L232.575 204.261L233.581 202.533ZM215.54 183.663L213.776 184.606L213.783 184.618L213.789 184.629L215.54 183.663ZM215.54 127.054L217.304 127.997L217.307 127.99L217.311 127.984L215.54 127.054ZM233.373 108.184L234.379 109.913L234.389 109.907L233.373 108.184ZM285.835 108.184L284.764 109.873L284.782 109.885L284.802 109.896L285.835 108.184ZM302.631 125.81L304.4 124.875L302.631 125.81ZM308.23 154.011L306.238 153.829L306.23 153.92V154.011H308.23ZM308.23 159.195V161.195H310.23V159.195H308.23ZM226.323 159.195V157.195H224.215L224.326 159.3L226.323 159.195ZM231.714 178.894L230.003 179.929L230.019 179.956L230.036 179.982L231.714 178.894ZM243.949 190.506L242.994 192.264L243.005 192.269L243.015 192.275L243.949 190.506ZM277.748 189.469L276.617 187.82L276.617 187.82L277.748 189.469ZM288.324 175.991V173.991H286.957L286.46 175.264L288.324 175.991ZM305.534 175.991L307.455 176.548L308.196 173.991H305.534V175.991ZM289.568 199.837L290.821 201.396L290.824 201.394L289.568 199.837ZM237.52 123.736L238.753 125.311L238.757 125.307L237.52 123.736ZM226.53 145.716L224.54 145.517L224.32 147.716H226.53V145.716ZM291.227 145.716V147.716H293.318L293.225 145.627L291.227 145.716ZM281.688 123.943L283.012 122.445L283.012 122.445L281.688 123.943ZM259.708 207.168C250.204 207.168 241.85 205.03 234.586 200.804L232.575 204.261C240.518 208.883 249.581 211.168 259.708 211.168V207.168ZM234.61 200.818C227.319 196.444 221.55 190.416 217.291 182.697L213.789 184.629C218.377 192.945 224.636 199.498 232.552 204.248L234.61 200.818ZM217.304 182.72C213.202 175.045 211.112 165.913 211.112 155.255H207.112C207.112 166.439 209.308 176.245 213.776 184.606L217.304 182.72ZM211.112 155.255C211.112 144.74 213.2 135.675 217.304 127.997L213.776 126.111C209.309 134.468 207.112 144.204 207.112 155.255H211.112ZM217.311 127.984C221.43 120.144 227.116 114.138 234.379 109.913L232.367 106.455C224.424 111.077 218.221 117.651 213.77 126.123L217.311 127.984ZM234.389 109.907C241.786 105.548 250.343 103.341 260.123 103.341V99.3411C249.719 99.3411 240.443 101.696 232.358 106.461L234.389 109.907ZM260.123 103.341C269.762 103.341 277.947 105.546 284.764 109.873L286.907 106.495C279.347 101.698 270.39 99.3411 260.123 99.3411V103.341ZM284.802 109.896C291.828 114.138 297.168 119.749 300.863 126.744L304.4 124.875C300.354 117.217 294.496 111.077 286.869 106.472L284.802 109.896ZM300.863 126.744C304.579 133.777 306.437 141.336 306.437 149.449H310.437C310.437 140.696 308.425 132.495 304.4 124.875L300.863 126.744ZM306.437 149.449C306.437 150.909 306.371 152.369 306.238 153.829L310.222 154.192C310.366 152.611 310.437 151.03 310.437 149.449H306.437ZM306.23 154.011C306.23 154.014 306.23 154.016 306.23 154.019C306.23 154.022 306.23 154.025 306.23 154.028C306.23 154.031 306.23 154.034 306.23 154.037C306.23 154.04 306.23 154.043 306.23 154.046C306.23 154.049 306.23 154.052 306.23 154.055C306.23 154.058 306.23 154.061 306.23 154.064C306.23 154.067 306.23 154.07 306.23 154.073C306.23 154.076 306.23 154.079 306.23 154.082C306.23 154.085 306.23 154.088 306.23 154.091C306.23 154.094 306.23 154.097 306.23 154.1C306.23 154.103 306.23 154.106 306.23 154.109C306.23 154.112 306.23 154.115 306.23 154.118C306.23 154.121 306.23 154.124 306.23 154.127C306.23 154.13 306.23 154.133 306.23 154.136C306.23 154.139 306.23 154.142 306.23 154.145C306.23 154.148 306.23 154.151 306.23 154.154C306.23 154.157 306.23 154.16 306.23 154.163C306.23 154.166 306.23 154.169 306.23 154.172C306.23 154.175 306.23 154.178 306.23 154.181C306.23 154.184 306.23 154.187 306.23 154.19C306.23 154.193 306.23 154.196 306.23 154.199C306.23 154.202 306.23 154.205 306.23 154.208C306.23 154.211 306.23 154.214 306.23 154.217C306.23 154.22 306.23 154.223 306.23 154.226C306.23 154.229 306.23 154.232 306.23 154.235C306.23 154.238 306.23 154.241 306.23 154.244C306.23 154.247 306.23 154.25 306.23 154.253C306.23 154.256 306.23 154.259 306.23 154.262C306.23 154.265 306.23 154.268 306.23 154.271C306.23 154.274 306.23 154.277 306.23 154.28C306.23 154.283 306.23 154.286 306.23 154.289C306.23 154.292 306.23 154.295 306.23 154.298C306.23 154.301 306.23 154.304 306.23 154.307C306.23 154.31 306.23 154.313 306.23 154.316C306.23 154.319 306.23 154.322 306.23 154.325C306.23 154.328 306.23 154.331 306.23 154.334C306.23 154.337 306.23 154.34 306.23 154.343C306.23 154.346 306.23 154.35 306.23 154.353C306.23 154.356 306.23 154.359 306.23 154.362C306.23 154.365 306.23 154.368 306.23 154.371C306.23 154.374 306.23 154.377 306.23 154.38C306.23 154.383 306.23 154.386 306.23 154.389C306.23 154.392 306.23 154.395 306.23 154.398C306.23 154.401 306.23 154.404 306.23 154.407C306.23 154.41 306.23 154.413 306.23 154.416C306.23 154.419 306.23 154.422 306.23 154.425C306.23 154.428 306.23 154.432 306.23 154.435C306.23 154.438 306.23 154.441 306.23 154.444C306.23 154.447 306.23 154.45 306.23 154.453C306.23 154.456 306.23 154.459 306.23 154.462C306.23 154.465 306.23 154.468 306.23 154.471C306.23 154.474 306.23 154.477 306.23 154.48C306.23 154.483 306.23 154.486 306.23 154.489C306.23 154.492 306.23 154.496 306.23 154.499C306.23 154.502 306.23 154.505 306.23 154.508C306.23 154.511 306.23 154.514 306.23 154.517C306.23 154.52 306.23 154.523 306.23 154.526C306.23 154.529 306.23 154.532 306.23 154.535C306.23 154.538 306.23 154.541 306.23 154.544C306.23 154.548 306.23 154.551 306.23 154.554C306.23 154.557 306.23 154.56 306.23 154.563C306.23 154.566 306.23 154.569 306.23 154.572C306.23 154.575 306.23 154.578 306.23 154.581C306.23 154.584 306.23 154.587 306.23 154.591C306.23 154.594 306.23 154.597 306.23 154.6C306.23 154.603 306.23 154.606 306.23 154.609C306.23 154.612 306.23 154.615 306.23 154.618C306.23 154.621 306.23 154.624 306.23 154.627C306.23 154.63 306.23 154.634 306.23 154.637C306.23 154.64 306.23 154.643 306.23 154.646C306.23 154.649 306.23 154.652 306.23 154.655C306.23 154.658 306.23 154.661 306.23 154.664C306.23 154.667 306.23 154.671 306.23 154.674C306.23 154.677 306.23 154.68 306.23 154.683C306.23 154.686 306.23 154.689 306.23 154.692C306.23 154.695 306.23 154.698 306.23 154.701C306.23 154.705 306.23 154.708 306.23 154.711C306.23 154.714 306.23 154.717 306.23 154.72C306.23 154.723 306.23 154.726 306.23 154.729C306.23 154.732 306.23 154.735 306.23 154.739C306.23 154.742 306.23 154.745 306.23 154.748C306.23 154.751 306.23 154.754 306.23 154.757C306.23 154.76 306.23 154.763 306.23 154.766C306.23 154.77 306.23 154.773 306.23 154.776C306.23 154.779 306.23 154.782 306.23 154.785C306.23 154.788 306.23 154.791 306.23 154.794C306.23 154.797 306.23 154.801 306.23 154.804C306.23 154.807 306.23 154.81 306.23 154.813C306.23 154.816 306.23 154.819 306.23 154.822C306.23 154.825 306.23 154.829 306.23 154.832C306.23 154.835 306.23 154.838 306.23 154.841C306.23 154.844 306.23 154.847 306.23 154.85C306.23 154.853 306.23 154.857 306.23 154.86C306.23 154.863 306.23 154.866 306.23 154.869C306.23 154.872 306.23 154.875 306.23 154.878C306.23 154.882 306.23 154.885 306.23 154.888C306.23 154.891 306.23 154.894 306.23 154.897C306.23 154.9 306.23 154.903 306.23 154.907C306.23 154.91 306.23 154.913 306.23 154.916C306.23 154.919 306.23 154.922 306.23 154.925C306.23 154.928 306.23 154.932 306.23 154.935C306.23 154.938 306.23 154.941 306.23 154.944C306.23 154.947 306.23 154.95 306.23 154.953C306.23 154.957 306.23 154.96 306.23 154.963C306.23 154.966 306.23 154.969 306.23 154.972C306.23 154.975 306.23 154.979 306.23 154.982C306.23 154.985 306.23 154.988 306.23 154.991C306.23 154.994 306.23 154.997 306.23 155.001C306.23 155.004 306.23 155.007 306.23 155.01C306.23 155.013 306.23 155.016 306.23 155.019C306.23 155.023 306.23 155.026 306.23 155.029C306.23 155.032 306.23 155.035 306.23 155.038C306.23 155.041 306.23 155.045 306.23 155.048C306.23 155.051 306.23 155.054 306.23 155.057C306.23 155.06 306.23 155.063 306.23 155.067C306.23 155.07 306.23 155.073 306.23 155.076C306.23 155.079 306.23 155.082 306.23 155.086C306.23 155.089 306.23 155.092 306.23 155.095C306.23 155.098 306.23 155.101 306.23 155.104C306.23 155.108 306.23 155.111 306.23 155.114C306.23 155.117 306.23 155.12 306.23 155.123C306.23 155.127 306.23 155.13 306.23 155.133C306.23 155.136 306.23 155.139 306.23 155.142C306.23 155.146 306.23 155.149 306.23 155.152C306.23 155.155 306.23 155.158 306.23 155.161C306.23 155.165 306.23 155.168 306.23 155.171C306.23 155.174 306.23 155.177 306.23 155.18C306.23 155.184 306.23 155.187 306.23 155.19C306.23 155.193 306.23 155.196 306.23 155.199C306.23 155.203 306.23 155.206 306.23 155.209C306.23 155.212 306.23 155.215 306.23 155.218C306.23 155.222 306.23 155.225 306.23 155.228C306.23 155.231 306.23 155.234 306.23 155.238C306.23 155.241 306.23 155.244 306.23 155.247C306.23 155.25 306.23 155.253 306.23 155.257C306.23 155.26 306.23 155.263 306.23 155.266C306.23 155.269 306.23 155.273 306.23 155.276C306.23 155.279 306.23 155.282 306.23 155.285C306.23 155.289 306.23 155.292 306.23 155.295C306.23 155.298 306.23 155.301 306.23 155.304C306.23 155.308 306.23 155.311 306.23 155.314C306.23 155.317 306.23 155.32 306.23 155.324C306.23 155.327 306.23 155.33 306.23 155.333C306.23 155.336 306.23 155.34 306.23 155.343C306.23 155.346 306.23 155.349 306.23 155.352C306.23 155.356 306.23 155.359 306.23 155.362C306.23 155.365 306.23 155.368 306.23 155.372C306.23 155.375 306.23 155.378 306.23 155.381C306.23 155.384 306.23 155.388 306.23 155.391C306.23 155.394 306.23 155.397 306.23 155.4C306.23 155.404 306.23 155.407 306.23 155.41C306.23 155.413 306.23 155.416 306.23 155.42C306.23 155.423 306.23 155.426 306.23 155.429C306.23 155.433 306.23 155.436 306.23 155.439C306.23 155.442 306.23 155.445 306.23 155.449C306.23 155.452 306.23 155.455 306.23 155.458C306.23 155.461 306.23 155.465 306.23 155.468C306.23 155.471 306.23 155.474 306.23 155.478C306.23 155.481 306.23 155.484 306.23 155.487C306.23 155.49 306.23 155.494 306.23 155.497C306.23 155.5 306.23 155.503 306.23 155.507C306.23 155.51 306.23 155.513 306.23 155.516C306.23 155.519 306.23 155.523 306.23 155.526C306.23 155.529 306.23 155.532 306.23 155.536C306.23 155.539 306.23 155.542 306.23 155.545C306.23 155.549 306.23 155.552 306.23 155.555C306.23 155.558 306.23 155.561 306.23 155.565C306.23 155.568 306.23 155.571 306.23 155.574C306.23 155.578 306.23 155.581 306.23 155.584C306.23 155.587 306.23 155.591 306.23 155.594C306.23 155.597 306.23 155.6 306.23 155.604C306.23 155.607 306.23 155.61 306.23 155.613C306.23 155.617 306.23 155.62 306.23 155.623C306.23 155.626 306.23 155.629 306.23 155.633C306.23 155.636 306.23 155.639 306.23 155.642C306.23 155.646 306.23 155.649 306.23 155.652C306.23 155.655 306.23 155.659 306.23 155.662C306.23 155.665 306.23 155.668 306.23 155.672C306.23 155.675 306.23 155.678 306.23 155.681C306.23 155.685 306.23 155.688 306.23 155.691C306.23 155.694 306.23 155.698 306.23 155.701C306.23 155.704 306.23 155.708 306.23 155.711C306.23 155.714 306.23 155.717 306.23 155.721C306.23 155.724 306.23 155.727 306.23 155.73C306.23 155.734 306.23 155.737 306.23 155.74C306.23 155.743 306.23 155.747 306.23 155.75C306.23 155.753 306.23 155.756 306.23 155.76C306.23 155.763 306.23 155.766 306.23 155.769C306.23 155.773 306.23 155.776 306.23 155.779C306.23 155.783 306.23 155.786 306.23 155.789C306.23 155.792 306.23 155.796 306.23 155.799C306.23 155.802 306.23 155.805 306.23 155.809C306.23 155.812 306.23 155.815 306.23 155.819C306.23 155.822 306.23 155.825 306.23 155.828C306.23 155.832 306.23 155.835 306.23 155.838C306.23 155.842 306.23 155.845 306.23 155.848C306.23 155.851 306.23 155.855 306.23 155.858C306.23 155.861 306.23 155.864 306.23 155.868C306.23 155.871 306.23 155.874 306.23 155.878C306.23 155.881 306.23 155.884 306.23 155.887C306.23 155.891 306.23 155.894 306.23 155.897C306.23 155.901 306.23 155.904 306.23 155.907C306.23 155.91 306.23 155.914 306.23 155.917C306.23 155.92 306.23 155.924 306.23 155.927C306.23 155.93 306.23 155.934 306.23 155.937C306.23 155.94 306.23 155.943 306.23 155.947C306.23 155.95 306.23 155.953 306.23 155.957C306.23 155.96 306.23 155.963 306.23 155.966C306.23 155.97 306.23 155.973 306.23 155.976C306.23 155.98 306.23 155.983 306.23 155.986C306.23 155.99 306.23 155.993 306.23 155.996C306.23 156 306.23 156.003 306.23 156.006C306.23 156.009 306.23 156.013 306.23 156.016C306.23 156.019 306.23 156.023 306.23 156.026C306.23 156.029 306.23 156.033 306.23 156.036C306.23 156.039 306.23 156.043 306.23 156.046C306.23 156.049 306.23 156.052 306.23 156.056C306.23 156.059 306.23 156.062 306.23 156.066C306.23 156.069 306.23 156.072 306.23 156.076C306.23 156.079 306.23 156.082 306.23 156.086C306.23 156.089 306.23 156.092 306.23 156.096C306.23 156.099 306.23 156.102 306.23 156.106C306.23 156.109 306.23 156.112 306.23 156.115C306.23 156.119 306.23 156.122 306.23 156.125C306.23 156.129 306.23 156.132 306.23 156.135C306.23 156.139 306.23 156.142 306.23 156.145C306.23 156.149 306.23 156.152 306.23 156.155C306.23 156.159 306.23 156.162 306.23 156.165C306.23 156.169 306.23 156.172 306.23 156.175C306.23 156.179 306.23 156.182 306.23 156.185C306.23 156.189 306.23 156.192 306.23 156.195C306.23 156.199 306.23 156.202 306.23 156.205C306.23 156.209 306.23 156.212 306.23 156.215C306.23 156.219 306.23 156.222 306.23 156.225C306.23 156.229 306.23 156.232 306.23 156.235C306.23 156.239 306.23 156.242 306.23 156.245C306.23 156.249 306.23 156.252 306.23 156.256C306.23 156.259 306.23 156.262 306.23 156.266C306.23 156.269 306.23 156.272 306.23 156.276C306.23 156.279 306.23 156.282 306.23 156.286C306.23 156.289 306.23 156.292 306.23 156.296C306.23 156.299 306.23 156.302 306.23 156.306C306.23 156.309 306.23 156.312 306.23 156.316C306.23 156.319 306.23 156.323 306.23 156.326C306.23 156.329 306.23 156.333 306.23 156.336C306.23 156.339 306.23 156.343 306.23 156.346C306.23 156.349 306.23 156.353 306.23 156.356C306.23 156.359 306.23 156.363 306.23 156.366C306.23 156.37 306.23 156.373 306.23 156.376C306.23 156.38 306.23 156.383 306.23 156.386C306.23 156.39 306.23 156.393 306.23 156.396C306.23 156.4 306.23 156.403 306.23 156.407C306.23 156.41 306.23 156.413 306.23 156.417C306.23 156.42 306.23 156.423 306.23 156.427C306.23 156.43 306.23 156.434 306.23 156.437C306.23 156.44 306.23 156.444 306.23 156.447C306.23 156.45 306.23 156.454 306.23 156.457C306.23 156.461 306.23 156.464 306.23 156.467C306.23 156.471 306.23 156.474 306.23 156.477C306.23 156.481 306.23 156.484 306.23 156.488C306.23 156.491 306.23 156.494 306.23 156.498C306.23 156.501 306.23 156.504 306.23 156.508C306.23 156.511 306.23 156.515 306.23 156.518C306.23 156.521 306.23 156.525 306.23 156.528C306.23 156.532 306.23 156.535 306.23 156.538C306.23 156.542 306.23 156.545 306.23 156.549C306.23 156.552 306.23 156.555 306.23 156.559C306.23 156.562 306.23 156.565 306.23 156.569C306.23 156.572 306.23 156.576 306.23 156.579C306.23 156.582 306.23 156.586 306.23 156.589C306.23 156.593 306.23 156.596 306.23 156.599C306.23 156.603 306.23 156.606 306.23 156.61C306.23 156.613 306.23 156.616 306.23 156.62C306.23 156.623 306.23 156.627 306.23 156.63C306.23 156.633 306.23 156.637 306.23 156.64C306.23 156.644 306.23 156.647 306.23 156.65C306.23 156.654 306.23 156.657 306.23 156.661C306.23 156.664 306.23 156.668 306.23 156.671C306.23 156.674 306.23 156.678 306.23 156.681C306.23 156.685 306.23 156.688 306.23 156.691C306.23 156.695 306.23 156.698 306.23 156.702C306.23 156.705 306.23 156.708 306.23 156.712C306.23 156.715 306.23 156.719 306.23 156.722C306.23 156.726 306.23 156.729 306.23 156.732C306.23 156.736 306.23 156.739 306.23 156.743C306.23 156.746 306.23 156.749 306.23 156.753C306.23 156.756 306.23 156.76 306.23 156.763C306.23 156.767 306.23 156.77 306.23 156.773C306.23 156.777 306.23 156.78 306.23 156.784C306.23 156.787 306.23 156.791 306.23 156.794C306.23 156.797 306.23 156.801 306.23 156.804C306.23 156.808 306.23 156.811 306.23 156.815C306.23 156.818 306.23 156.821 306.23 156.825C306.23 156.828 306.23 156.832 306.23 156.835C306.23 156.839 306.23 156.842 306.23 156.846C306.23 156.849 306.23 156.852 306.23 156.856C306.23 156.859 306.23 156.863 306.23 156.866C306.23 156.87 306.23 156.873 306.23 156.876C306.23 156.88 306.23 156.883 306.23 156.887C306.23 156.89 306.23 156.894 306.23 156.897C306.23 156.901 306.23 156.904 306.23 156.907C306.23 156.911 306.23 156.914 306.23 156.918C306.23 156.921 306.23 156.925 306.23 156.928C306.23 156.932 306.23 156.935 306.23 156.938C306.23 156.942 306.23 156.945 306.23 156.949C306.23 156.952 306.23 156.956 306.23 156.959C306.23 156.963 306.23 156.966 306.23 156.97C306.23 156.973 306.23 156.976 306.23 156.98C306.23 156.983 306.23 156.987 306.23 156.99C306.23 156.994 306.23 156.997 306.23 157.001C306.23 157.004 306.23 157.008 306.23 157.011C306.23 157.015 306.23 157.018 306.23 157.021C306.23 157.025 306.23 157.028 306.23 157.032C306.23 157.035 306.23 157.039 306.23 157.042C306.23 157.046 306.23 157.049 306.23 157.053C306.23 157.056 306.23 157.06 306.23 157.063C306.23 157.067 306.23 157.07 306.23 157.073C306.23 157.077 306.23 157.08 306.23 157.084C306.23 157.087 306.23 157.091 306.23 157.094C306.23 157.098 306.23 157.101 306.23 157.105C306.23 157.108 306.23 157.112 306.23 157.115C306.23 157.119 306.23 157.122 306.23 157.126C306.23 157.129 306.23 157.133 306.23 157.136C306.23 157.14 306.23 157.143 306.23 157.146C306.23 157.15 306.23 157.153 306.23 157.157C306.23 157.16 306.23 157.164 306.23 157.167C306.23 157.171 306.23 157.174 306.23 157.178C306.23 157.181 306.23 157.185 306.23 157.188C306.23 157.192 306.23 157.195 306.23 157.199C306.23 157.202 306.23 157.206 306.23 157.209C306.23 157.213 306.23 157.216 306.23 157.22C306.23 157.223 306.23 157.227 306.23 157.23C306.23 157.234 306.23 157.237 306.23 157.241C306.23 157.244 306.23 157.248 306.23 157.251C306.23 157.255 306.23 157.258 306.23 157.262C306.23 157.265 306.23 157.269 306.23 157.272C306.23 157.276 306.23 157.279 306.23 157.283C306.23 157.286 306.23 157.29 306.23 157.293C306.23 157.297 306.23 157.3 306.23 157.304C306.23 157.307 306.23 157.311 306.23 157.314C306.23 157.318 306.23 157.321 306.23 157.325C306.23 157.328 306.23 157.332 306.23 157.335C306.23 157.339 306.23 157.342 306.23 157.346C306.23 157.349 306.23 157.353 306.23 157.356C306.23 157.36 306.23 157.363 306.23 157.367C306.23 157.37 306.23 157.374 306.23 157.377C306.23 157.381 306.23 157.385 306.23 157.388C306.23 157.392 306.23 157.395 306.23 157.399C306.23 157.402 306.23 157.406 306.23 157.409C306.23 157.413 306.23 157.416 306.23 157.42C306.23 157.423 306.23 157.427 306.23 157.43C306.23 157.434 306.23 157.437 306.23 157.441C306.23 157.444 306.23 157.448 306.23 157.451C306.23 157.455 306.23 157.459 306.23 157.462C306.23 157.466 306.23 157.469 306.23 157.473C306.23 157.476 306.23 157.48 306.23 157.483C306.23 157.487 306.23 157.49 306.23 157.494C306.23 157.497 306.23 157.501 306.23 157.504C306.23 157.508 306.23 157.512 306.23 157.515C306.23 157.519 306.23 157.522 306.23 157.526C306.23 157.529 306.23 157.533 306.23 157.536C306.23 157.54 306.23 157.543 306.23 157.547C306.23 157.55 306.23 157.554 306.23 157.558C306.23 157.561 306.23 157.565 306.23 157.568C306.23 157.572 306.23 157.575 306.23 157.579C306.23 157.582 306.23 157.586 306.23 157.589C306.23 157.593 306.23 157.597 306.23 157.6C306.23 157.604 306.23 157.607 306.23 157.611C306.23 157.614 306.23 157.618 306.23 157.621C306.23 157.625 306.23 157.629 306.23 157.632C306.23 157.636 306.23 157.639 306.23 157.643C306.23 157.646 306.23 157.65 306.23 157.653C306.23 157.657 306.23 157.661 306.23 157.664C306.23 157.668 306.23 157.671 306.23 157.675C306.23 157.678 306.23 157.682 306.23 157.686C306.23 157.689 306.23 157.693 306.23 157.696C306.23 157.7 306.23 157.703 306.23 157.707C306.23 157.71 306.23 157.714 306.23 157.718C306.23 157.721 306.23 157.725 306.23 157.728C306.23 157.732 306.23 157.735 306.23 157.739C306.23 157.743 306.23 157.746 306.23 157.75C306.23 157.753 306.23 157.757 306.23 157.76C306.23 157.764 306.23 157.768 306.23 157.771C306.23 157.775 306.23 157.778 306.23 157.782C306.23 157.785 306.23 157.789 306.23 157.793C306.23 157.796 306.23 157.8 306.23 157.803C306.23 157.807 306.23 157.811 306.23 157.814C306.23 157.818 306.23 157.821 306.23 157.825C306.23 157.828 306.23 157.832 306.23 157.836C306.23 157.839 306.23 157.843 306.23 157.846C306.23 157.85 306.23 157.854 306.23 157.857C306.23 157.861 306.23 157.864 306.23 157.868C306.23 157.872 306.23 157.875 306.23 157.879C306.23 157.882 306.23 157.886 306.23 157.889C306.23 157.893 306.23 157.897 306.23 157.9C306.23 157.904 306.23 157.907 306.23 157.911C306.23 157.915 306.23 157.918 306.23 157.922C306.23 157.925 306.23 157.929 306.23 157.933C306.23 157.936 306.23 157.94 306.23 157.943C306.23 157.947 306.23 157.951 306.23 157.954C306.23 157.958 306.23 157.961 306.23 157.965C306.23 157.969 306.23 157.972 306.23 157.976C306.23 157.979 306.23 157.983 306.23 157.987C306.23 157.99 306.23 157.994 306.23 157.998C306.23 158.001 306.23 158.005 306.23 158.008C306.23 158.012 306.23 158.016 306.23 158.019C306.23 158.023 306.23 158.026 306.23 158.03C306.23 158.034 306.23 158.037 306.23 158.041C306.23 158.044 306.23 158.048 306.23 158.052C306.23 158.055 306.23 158.059 306.23 158.063C306.23 158.066 306.23 158.07 306.23 158.073C306.23 158.077 306.23 158.081 306.23 158.084C306.23 158.088 306.23 158.092 306.23 158.095C306.23 158.099 306.23 158.102 306.23 158.106C306.23 158.11 306.23 158.113 306.23 158.117C306.23 158.121 306.23 158.124 306.23 158.128C306.23 158.131 306.23 158.135 306.23 158.139C306.23 158.142 306.23 158.146 306.23 158.15C306.23 158.153 306.23 158.157 306.23 158.16C306.23 158.164 306.23 158.168 306.23 158.171C306.23 158.175 306.23 158.179 306.23 158.182C306.23 158.186 306.23 158.19 306.23 158.193C306.23 158.197 306.23 158.2 306.23 158.204C306.23 158.208 306.23 158.211 306.23 158.215C306.23 158.219 306.23 158.222 306.23 158.226C306.23 158.23 306.23 158.233 306.23 158.237C306.23 158.241 306.23 158.244 306.23 158.248C306.23 158.251 306.23 158.255 306.23 158.259C306.23 158.262 306.23 158.266 306.23 158.27C306.23 158.273 306.23 158.277 306.23 158.281C306.23 158.284 306.23 158.288 306.23 158.292C306.23 158.295 306.23 158.299 306.23 158.303C306.23 158.306 306.23 158.31 306.23 158.313C306.23 158.317 306.23 158.321 306.23 158.324C306.23 158.328 306.23 158.332 306.23 158.335C306.23 158.339 306.23 158.343 306.23 158.346C306.23 158.35 306.23 158.354 306.23 158.357C306.23 158.361 306.23 158.365 306.23 158.368C306.23 158.372 306.23 158.376 306.23 158.379C306.23 158.383 306.23 158.387 306.23 158.39C306.23 158.394 306.23 158.398 306.23 158.401C306.23 158.405 306.23 158.409 306.23 158.412C306.23 158.416 306.23 158.42 306.23 158.423C306.23 158.427 306.23 158.431 306.23 158.434C306.23 158.438 306.23 158.442 306.23 158.445C306.23 158.449 306.23 158.453 306.23 158.456C306.23 158.46 306.23 158.464 306.23 158.467C306.23 158.471 306.23 158.475 306.23 158.479C306.23 158.482 306.23 158.486 306.23 158.49C306.23 158.493 306.23 158.497 306.23 158.501C306.23 158.504 306.23 158.508 306.23 158.512C306.23 158.515 306.23 158.519 306.23 158.523C306.23 158.526 306.23 158.53 306.23 158.534C306.23 158.537 306.23 158.541 306.23 158.545C306.23 158.548 306.23 158.552 306.23 158.556C306.23 158.56 306.23 158.563 306.23 158.567C306.23 158.571 306.23 158.574 306.23 158.578C306.23 158.582 306.23 158.585 306.23 158.589C306.23 158.593 306.23 158.596 306.23 158.6C306.23 158.604 306.23 158.608 306.23 158.611C306.23 158.615 306.23 158.619 306.23 158.622C306.23 158.626 306.23 158.63 306.23 158.633C306.23 158.637 306.23 158.641 306.23 158.645C306.23 158.648 306.23 158.652 306.23 158.656C306.23 158.659 306.23 158.663 306.23 158.667C306.23 158.671 306.23 158.674 306.23 158.678C306.23 158.682 306.23 158.685 306.23 158.689C306.23 158.693 306.23 158.696 306.23 158.7C306.23 158.704 306.23 158.708 306.23 158.711C306.23 158.715 306.23 158.719 306.23 158.722C306.23 158.726 306.23 158.73 306.23 158.734C306.23 158.737 306.23 158.741 306.23 158.745C306.23 158.748 306.23 158.752 306.23 158.756C306.23 158.76 306.23 158.763 306.23 158.767C306.23 158.771 306.23 158.774 306.23 158.778C306.23 158.782 306.23 158.786 306.23 158.789C306.23 158.793 306.23 158.797 306.23 158.801C306.23 158.804 306.23 158.808 306.23 158.812C306.23 158.815 306.23 158.819 306.23 158.823C306.23 158.827 306.23 158.83 306.23 158.834C306.23 158.838 306.23 158.842 306.23 158.845C306.23 158.849 306.23 158.853 306.23 158.856C306.23 158.86 306.23 158.864 306.23 158.868C306.23 158.871 306.23 158.875 306.23 158.879C306.23 158.883 306.23 158.886 306.23 158.89C306.23 158.894 306.23 158.898 306.23 158.901C306.23 158.905 306.23 158.909 306.23 158.913C306.23 158.916 306.23 158.92 306.23 158.924C306.23 158.927 306.23 158.931 306.23 158.935C306.23 158.939 306.23 158.942 306.23 158.946C306.23 158.95 306.23 158.954 306.23 158.957C306.23 158.961 306.23 158.965 306.23 158.969C306.23 158.972 306.23 158.976 306.23 158.98C306.23 158.984 306.23 158.987 306.23 158.991C306.23 158.995 306.23 158.999 306.23 159.002C306.23 159.006 306.23 159.01 306.23 159.014C306.23 159.017 306.23 159.021 306.23 159.025C306.23 159.029 306.23 159.032 306.23 159.036C306.23 159.04 306.23 159.044 306.23 159.048C306.23 159.051 306.23 159.055 306.23 159.059C306.23 159.063 306.23 159.066 306.23 159.07C306.23 159.074 306.23 159.078 306.23 159.081C306.23 159.085 306.23 159.089 306.23 159.093C306.23 159.096 306.23 159.1 306.23 159.104C306.23 159.108 306.23 159.112 306.23 159.115C306.23 159.119 306.23 159.123 306.23 159.127C306.23 159.13 306.23 159.134 306.23 159.138C306.23 159.142 306.23 159.145 306.23 159.149C306.23 159.153 306.23 159.157 306.23 159.161C306.23 159.164 306.23 159.168 306.23 159.172C306.23 159.176 306.23 159.179 306.23 159.183C306.23 159.187 306.23 159.191 306.23 159.195H310.23C310.23 159.191 310.23 159.187 310.23 159.183C310.23 159.179 310.23 159.176 310.23 159.172C310.23 159.168 310.23 159.164 310.23 159.161C310.23 159.157 310.23 159.153 310.23 159.149C310.23 159.145 310.23 159.142 310.23 159.138C310.23 159.134 310.23 159.13 310.23 159.127C310.23 159.123 310.23 159.119 310.23 159.115C310.23 159.112 310.23 159.108 310.23 159.104C310.23 159.1 310.23 159.096 310.23 159.093C310.23 159.089 310.23 159.085 310.23 159.081C310.23 159.078 310.23 159.074 310.23 159.07C310.23 159.066 310.23 159.063 310.23 159.059C310.23 159.055 310.23 159.051 310.23 159.048C310.23 159.044 310.23 159.04 310.23 159.036C310.23 159.032 310.23 159.029 310.23 159.025C310.23 159.021 310.23 159.017 310.23 159.014C310.23 159.01 310.23 159.006 310.23 159.002C310.23 158.999 310.23 158.995 310.23 158.991C310.23 158.987 310.23 158.984 310.23 158.98C310.23 158.976 310.23 158.972 310.23 158.969C310.23 158.965 310.23 158.961 310.23 158.957C310.23 158.954 310.23 158.95 310.23 158.946C310.23 158.942 310.23 158.939 310.23 158.935C310.23 158.931 310.23 158.927 310.23 158.924C310.23 158.92 310.23 158.916 310.23 158.913C310.23 158.909 310.23 158.905 310.23 158.901C310.23 158.898 310.23 158.894 310.23 158.89C310.23 158.886 310.23 158.883 310.23 158.879C310.23 158.875 310.23 158.871 310.23 158.868C310.23 158.864 310.23 158.86 310.23 158.856C310.23 158.853 310.23 158.849 310.23 158.845C310.23 158.842 310.23 158.838 310.23 158.834C310.23 158.83 310.23 158.827 310.23 158.823C310.23 158.819 310.23 158.815 310.23 158.812C310.23 158.808 310.23 158.804 310.23 158.801C310.23 158.797 310.23 158.793 310.23 158.789C310.23 158.786 310.23 158.782 310.23 158.778C310.23 158.774 310.23 158.771 310.23 158.767C310.23 158.763 310.23 158.76 310.23 158.756C310.23 158.752 310.23 158.748 310.23 158.745C310.23 158.741 310.23 158.737 310.23 158.734C310.23 158.73 310.23 158.726 310.23 158.722C310.23 158.719 310.23 158.715 310.23 158.711C310.23 158.708 310.23 158.704 310.23 158.7C310.23 158.696 310.23 158.693 310.23 158.689C310.23 158.685 310.23 158.682 310.23 158.678C310.23 158.674 310.23 158.671 310.23 158.667C310.23 158.663 310.23 158.659 310.23 158.656C310.23 158.652 310.23 158.648 310.23 158.645C310.23 158.641 310.23 158.637 310.23 158.633C310.23 158.63 310.23 158.626 310.23 158.622C310.23 158.619 310.23 158.615 310.23 158.611C310.23 158.608 310.23 158.604 310.23 158.6C310.23 158.596 310.23 158.593 310.23 158.589C310.23 158.585 310.23 158.582 310.23 158.578C310.23 158.574 310.23 158.571 310.23 158.567C310.23 158.563 310.23 158.56 310.23 158.556C310.23 158.552 310.23 158.548 310.23 158.545C310.23 158.541 310.23 158.537 310.23 158.534C310.23 158.53 310.23 158.526 310.23 158.523C310.23 158.519 310.23 158.515 310.23 158.512C310.23 158.508 310.23 158.504 310.23 158.501C310.23 158.497 310.23 158.493 310.23 158.49C310.23 158.486 310.23 158.482 310.23 158.479C310.23 158.475 310.23 158.471 310.23 158.467C310.23 158.464 310.23 158.46 310.23 158.456C310.23 158.453 310.23 158.449 310.23 158.445C310.23 158.442 310.23 158.438 310.23 158.434C310.23 158.431 310.23 158.427 310.23 158.423C310.23 158.42 310.23 158.416 310.23 158.412C310.23 158.409 310.23 158.405 310.23 158.401C310.23 158.398 310.23 158.394 310.23 158.39C310.23 158.387 310.23 158.383 310.23 158.379C310.23 158.376 310.23 158.372 310.23 158.368C310.23 158.365 310.23 158.361 310.23 158.357C310.23 158.354 310.23 158.35 310.23 158.346C310.23 158.343 310.23 158.339 310.23 158.335C310.23 158.332 310.23 158.328 310.23 158.324C310.23 158.321 310.23 158.317 310.23 158.313C310.23 158.31 310.23 158.306 310.23 158.303C310.23 158.299 310.23 158.295 310.23 158.292C310.23 158.288 310.23 158.284 310.23 158.281C310.23 158.277 310.23 158.273 310.23 158.27C310.23 158.266 310.23 158.262 310.23 158.259C310.23 158.255 310.23 158.251 310.23 158.248C310.23 158.244 310.23 158.241 310.23 158.237C310.23 158.233 310.23 158.23 310.23 158.226C310.23 158.222 310.23 158.219 310.23 158.215C310.23 158.211 310.23 158.208 310.23 158.204C310.23 158.2 310.23 158.197 310.23 158.193C310.23 158.19 310.23 158.186 310.23 158.182C310.23 158.179 310.23 158.175 310.23 158.171C310.23 158.168 310.23 158.164 310.23 158.16C310.23 158.157 310.23 158.153 310.23 158.15C310.23 158.146 310.23 158.142 310.23 158.139C310.23 158.135 310.23 158.131 310.23 158.128C310.23 158.124 310.23 158.121 310.23 158.117C310.23 158.113 310.23 158.11 310.23 158.106C310.23 158.102 310.23 158.099 310.23 158.095C310.23 158.092 310.23 158.088 310.23 158.084C310.23 158.081 310.23 158.077 310.23 158.073C310.23 158.07 310.23 158.066 310.23 158.063C310.23 158.059 310.23 158.055 310.23 158.052C310.23 158.048 310.23 158.044 310.23 158.041C310.23 158.037 310.23 158.034 310.23 158.03C310.23 158.026 310.23 158.023 310.23 158.019C310.23 158.016 310.23 158.012 310.23 158.008C310.23 158.005 310.23 158.001 310.23 157.998C310.23 157.994 310.23 157.99 310.23 157.987C310.23 157.983 310.23 157.979 310.23 157.976C310.23 157.972 310.23 157.969 310.23 157.965C310.23 157.961 310.23 157.958 310.23 157.954C310.23 157.951 310.23 157.947 310.23 157.943C310.23 157.94 310.23 157.936 310.23 157.933C310.23 157.929 310.23 157.925 310.23 157.922C310.23 157.918 310.23 157.915 310.23 157.911C310.23 157.907 310.23 157.904 310.23 157.9C310.23 157.897 310.23 157.893 310.23 157.889C310.23 157.886 310.23 157.882 310.23 157.879C310.23 157.875 310.23 157.872 310.23 157.868C310.23 157.864 310.23 157.861 310.23 157.857C310.23 157.854 310.23 157.85 310.23 157.846C310.23 157.843 310.23 157.839 310.23 157.836C310.23 157.832 310.23 157.828 310.23 157.825C310.23 157.821 310.23 157.818 310.23 157.814C310.23 157.811 310.23 157.807 310.23 157.803C310.23 157.8 310.23 157.796 310.23 157.793C310.23 157.789 310.23 157.785 310.23 157.782C310.23 157.778 310.23 157.775 310.23 157.771C310.23 157.768 310.23 157.764 310.23 157.76C310.23 157.757 310.23 157.753 310.23 157.75C310.23 157.746 310.23 157.743 310.23 157.739C310.23 157.735 310.23 157.732 310.23 157.728C310.23 157.725 310.23 157.721 310.23 157.718C310.23 157.714 310.23 157.71 310.23 157.707C310.23 157.703 310.23 157.7 310.23 157.696C310.23 157.693 310.23 157.689 310.23 157.686C310.23 157.682 310.23 157.678 310.23 157.675C310.23 157.671 310.23 157.668 310.23 157.664C310.23 157.661 310.23 157.657 310.23 157.653C310.23 157.65 310.23 157.646 310.23 157.643C310.23 157.639 310.23 157.636 310.23 157.632C310.23 157.629 310.23 157.625 310.23 157.621C310.23 157.618 310.23 157.614 310.23 157.611C310.23 157.607 310.23 157.604 310.23 157.6C310.23 157.597 310.23 157.593 310.23 157.589C310.23 157.586 310.23 157.582 310.23 157.579C310.23 157.575 310.23 157.572 310.23 157.568C310.23 157.565 310.23 157.561 310.23 157.558C310.23 157.554 310.23 157.55 310.23 157.547C310.23 157.543 310.23 157.54 310.23 157.536C310.23 157.533 310.23 157.529 310.23 157.526C310.23 157.522 310.23 157.519 310.23 157.515C310.23 157.512 310.23 157.508 310.23 157.504C310.23 157.501 310.23 157.497 310.23 157.494C310.23 157.49 310.23 157.487 310.23 157.483C310.23 157.48 310.23 157.476 310.23 157.473C310.23 157.469 310.23 157.466 310.23 157.462C310.23 157.459 310.23 157.455 310.23 157.451C310.23 157.448 310.23 157.444 310.23 157.441C310.23 157.437 310.23 157.434 310.23 157.43C310.23 157.427 310.23 157.423 310.23 157.42C310.23 157.416 310.23 157.413 310.23 157.409C310.23 157.406 310.23 157.402 310.23 157.399C310.23 157.395 310.23 157.392 310.23 157.388C310.23 157.385 310.23 157.381 310.23 157.377C310.23 157.374 310.23 157.37 310.23 157.367C310.23 157.363 310.23 157.36 310.23 157.356C310.23 157.353 310.23 157.349 310.23 157.346C310.23 157.342 310.23 157.339 310.23 157.335C310.23 157.332 310.23 157.328 310.23 157.325C310.23 157.321 310.23 157.318 310.23 157.314C310.23 157.311 310.23 157.307 310.23 157.304C310.23 157.3 310.23 157.297 310.23 157.293C310.23 157.29 310.23 157.286 310.23 157.283C310.23 157.279 310.23 157.276 310.23 157.272C310.23 157.269 310.23 157.265 310.23 157.262C310.23 157.258 310.23 157.255 310.23 157.251C310.23 157.248 310.23 157.244 310.23 157.241C310.23 157.237 310.23 157.234 310.23 157.23C310.23 157.227 310.23 157.223 310.23 157.22C310.23 157.216 310.23 157.213 310.23 157.209C310.23 157.206 310.23 157.202 310.23 157.199C310.23 157.195 310.23 157.192 310.23 157.188C310.23 157.185 310.23 157.181 310.23 157.178C310.23 157.174 310.23 157.171 310.23 157.167C310.23 157.164 310.23 157.16 310.23 157.157C310.23 157.153 310.23 157.15 310.23 157.146C310.23 157.143 310.23 157.14 310.23 157.136C310.23 157.133 310.23 157.129 310.23 157.126C310.23 157.122 310.23 157.119 310.23 157.115C310.23 157.112 310.23 157.108 310.23 157.105C310.23 157.101 310.23 157.098 310.23 157.094C310.23 157.091 310.23 157.087 310.23 157.084C310.23 157.08 310.23 157.077 310.23 157.073C310.23 157.07 310.23 157.067 310.23 157.063C310.23 157.06 310.23 157.056 310.23 157.053C310.23 157.049 310.23 157.046 310.23 157.042C310.23 157.039 310.23 157.035 310.23 157.032C310.23 157.028 310.23 157.025 310.23 157.021C310.23 157.018 310.23 157.015 310.23 157.011C310.23 157.008 310.23 157.004 310.23 157.001C310.23 156.997 310.23 156.994 310.23 156.99C310.23 156.987 310.23 156.983 310.23 156.98C310.23 156.976 310.23 156.973 310.23 156.97C310.23 156.966 310.23 156.963 310.23 156.959C310.23 156.956 310.23 156.952 310.23 156.949C310.23 156.945 310.23 156.942 310.23 156.938C310.23 156.935 310.23 156.932 310.23 156.928C310.23 156.925 310.23 156.921 310.23 156.918C310.23 156.914 310.23 156.911 310.23 156.907C310.23 156.904 310.23 156.901 310.23 156.897C310.23 156.894 310.23 156.89 310.23 156.887C310.23 156.883 310.23 156.88 310.23 156.876C310.23 156.873 310.23 156.87 310.23 156.866C310.23 156.863 310.23 156.859 310.23 156.856C310.23 156.852 310.23 156.849 310.23 156.846C310.23 156.842 310.23 156.839 310.23 156.835C310.23 156.832 310.23 156.828 310.23 156.825C310.23 156.821 310.23 156.818 310.23 156.815C310.23 156.811 310.23 156.808 310.23 156.804C310.23 156.801 310.23 156.797 310.23 156.794C310.23 156.791 310.23 156.787 310.23 156.784C310.23 156.78 310.23 156.777 310.23 156.773C310.23 156.77 310.23 156.767 310.23 156.763C310.23 156.76 310.23 156.756 310.23 156.753C310.23 156.749 310.23 156.746 310.23 156.743C310.23 156.739 310.23 156.736 310.23 156.732C310.23 156.729 310.23 156.726 310.23 156.722C310.23 156.719 310.23 156.715 310.23 156.712C310.23 156.708 310.23 156.705 310.23 156.702C310.23 156.698 310.23 156.695 310.23 156.691C310.23 156.688 310.23 156.685 310.23 156.681C310.23 156.678 310.23 156.674 310.23 156.671C310.23 156.668 310.23 156.664 310.23 156.661C310.23 156.657 310.23 156.654 310.23 156.65C310.23 156.647 310.23 156.644 310.23 156.64C310.23 156.637 310.23 156.633 310.23 156.63C310.23 156.627 310.23 156.623 310.23 156.62C310.23 156.616 310.23 156.613 310.23 156.61C310.23 156.606 310.23 156.603 310.23 156.599C310.23 156.596 310.23 156.593 310.23 156.589C310.23 156.586 310.23 156.582 310.23 156.579C310.23 156.576 310.23 156.572 310.23 156.569C310.23 156.565 310.23 156.562 310.23 156.559C310.23 156.555 310.23 156.552 310.23 156.549C310.23 156.545 310.23 156.542 310.23 156.538C310.23 156.535 310.23 156.532 310.23 156.528C310.23 156.525 310.23 156.521 310.23 156.518C310.23 156.515 310.23 156.511 310.23 156.508C310.23 156.504 310.23 156.501 310.23 156.498C310.23 156.494 310.23 156.491 310.23 156.488C310.23 156.484 310.23 156.481 310.23 156.477C310.23 156.474 310.23 156.471 310.23 156.467C310.23 156.464 310.23 156.461 310.23 156.457C310.23 156.454 310.23 156.45 310.23 156.447C310.23 156.444 310.23 156.44 310.23 156.437C310.23 156.434 310.23 156.43 310.23 156.427C310.23 156.423 310.23 156.42 310.23 156.417C310.23 156.413 310.23 156.41 310.23 156.407C310.23 156.403 310.23 156.4 310.23 156.396C310.23 156.393 310.23 156.39 310.23 156.386C310.23 156.383 310.23 156.38 310.23 156.376C310.23 156.373 310.23 156.37 310.23 156.366C310.23 156.363 310.23 156.359 310.23 156.356C310.23 156.353 310.23 156.349 310.23 156.346C310.23 156.343 310.23 156.339 310.23 156.336C310.23 156.333 310.23 156.329 310.23 156.326C310.23 156.323 310.23 156.319 310.23 156.316C310.23 156.312 310.23 156.309 310.23 156.306C310.23 156.302 310.23 156.299 310.23 156.296C310.23 156.292 310.23 156.289 310.23 156.286C310.23 156.282 310.23 156.279 310.23 156.276C310.23 156.272 310.23 156.269 310.23 156.266C310.23 156.262 310.23 156.259 310.23 156.256C310.23 156.252 310.23 156.249 310.23 156.245C310.23 156.242 310.23 156.239 310.23 156.235C310.23 156.232 310.23 156.229 310.23 156.225C310.23 156.222 310.23 156.219 310.23 156.215C310.23 156.212 310.23 156.209 310.23 156.205C310.23 156.202 310.23 156.199 310.23 156.195C310.23 156.192 310.23 156.189 310.23 156.185C310.23 156.182 310.23 156.179 310.23 156.175C310.23 156.172 310.23 156.169 310.23 156.165C310.23 156.162 310.23 156.159 310.23 156.155C310.23 156.152 310.23 156.149 310.23 156.145C310.23 156.142 310.23 156.139 310.23 156.135C310.23 156.132 310.23 156.129 310.23 156.125C310.23 156.122 310.23 156.119 310.23 156.115C310.23 156.112 310.23 156.109 310.23 156.106C310.23 156.102 310.23 156.099 310.23 156.096C310.23 156.092 310.23 156.089 310.23 156.086C310.23 156.082 310.23 156.079 310.23 156.076C310.23 156.072 310.23 156.069 310.23 156.066C310.23 156.062 310.23 156.059 310.23 156.056C310.23 156.052 310.23 156.049 310.23 156.046C310.23 156.043 310.23 156.039 310.23 156.036C310.23 156.033 310.23 156.029 310.23 156.026C310.23 156.023 310.23 156.019 310.23 156.016C310.23 156.013 310.23 156.009 310.23 156.006C310.23 156.003 310.23 156 310.23 155.996C310.23 155.993 310.23 155.99 310.23 155.986C310.23 155.983 310.23 155.98 310.23 155.976C310.23 155.973 310.23 155.97 310.23 155.966C310.23 155.963 310.23 155.96 310.23 155.957C310.23 155.953 310.23 155.95 310.23 155.947C310.23 155.943 310.23 155.94 310.23 155.937C310.23 155.934 310.23 155.93 310.23 155.927C310.23 155.924 310.23 155.92 310.23 155.917C310.23 155.914 310.23 155.91 310.23 155.907C310.23 155.904 310.23 155.901 310.23 155.897C310.23 155.894 310.23 155.891 310.23 155.887C310.23 155.884 310.23 155.881 310.23 155.878C310.23 155.874 310.23 155.871 310.23 155.868C310.23 155.864 310.23 155.861 310.23 155.858C310.23 155.855 310.23 155.851 310.23 155.848C310.23 155.845 310.23 155.842 310.23 155.838C310.23 155.835 310.23 155.832 310.23 155.828C310.23 155.825 310.23 155.822 310.23 155.819C310.23 155.815 310.23 155.812 310.23 155.809C310.23 155.805 310.23 155.802 310.23 155.799C310.23 155.796 310.23 155.792 310.23 155.789C310.23 155.786 310.23 155.783 310.23 155.779C310.23 155.776 310.23 155.773 310.23 155.769C310.23 155.766 310.23 155.763 310.23 155.76C310.23 155.756 310.23 155.753 310.23 155.75C310.23 155.747 310.23 155.743 310.23 155.74C310.23 155.737 310.23 155.734 310.23 155.73C310.23 155.727 310.23 155.724 310.23 155.721C310.23 155.717 310.23 155.714 310.23 155.711C310.23 155.708 310.23 155.704 310.23 155.701C310.23 155.698 310.23 155.694 310.23 155.691C310.23 155.688 310.23 155.685 310.23 155.681C310.23 155.678 310.23 155.675 310.23 155.672C310.23 155.668 310.23 155.665 310.23 155.662C310.23 155.659 310.23 155.655 310.23 155.652C310.23 155.649 310.23 155.646 310.23 155.642C310.23 155.639 310.23 155.636 310.23 155.633C310.23 155.629 310.23 155.626 310.23 155.623C310.23 155.62 310.23 155.617 310.23 155.613C310.23 155.61 310.23 155.607 310.23 155.604C310.23 155.6 310.23 155.597 310.23 155.594C310.23 155.591 310.23 155.587 310.23 155.584C310.23 155.581 310.23 155.578 310.23 155.574C310.23 155.571 310.23 155.568 310.23 155.565C310.23 155.561 310.23 155.558 310.23 155.555C310.23 155.552 310.23 155.549 310.23 155.545C310.23 155.542 310.23 155.539 310.23 155.536C310.23 155.532 310.23 155.529 310.23 155.526C310.23 155.523 310.23 155.519 310.23 155.516C310.23 155.513 310.23 155.51 310.23 155.507C310.23 155.503 310.23 155.5 310.23 155.497C310.23 155.494 310.23 155.49 310.23 155.487C310.23 155.484 310.23 155.481 310.23 155.478C310.23 155.474 310.23 155.471 310.23 155.468C310.23 155.465 310.23 155.461 310.23 155.458C310.23 155.455 310.23 155.452 310.23 155.449C310.23 155.445 310.23 155.442 310.23 155.439C310.23 155.436 310.23 155.433 310.23 155.429C310.23 155.426 310.23 155.423 310.23 155.42C310.23 155.416 310.23 155.413 310.23 155.41C310.23 155.407 310.23 155.404 310.23 155.4C310.23 155.397 310.23 155.394 310.23 155.391C310.23 155.388 310.23 155.384 310.23 155.381C310.23 155.378 310.23 155.375 310.23 155.372C310.23 155.368 310.23 155.365 310.23 155.362C310.23 155.359 310.23 155.356 310.23 155.352C310.23 155.349 310.23 155.346 310.23 155.343C310.23 155.34 310.23 155.336 310.23 155.333C310.23 155.33 310.23 155.327 310.23 155.324C310.23 155.32 310.23 155.317 310.23 155.314C310.23 155.311 310.23 155.308 310.23 155.304C310.23 155.301 310.23 155.298 310.23 155.295C310.23 155.292 310.23 155.289 310.23 155.285C310.23 155.282 310.23 155.279 310.23 155.276C310.23 155.273 310.23 155.269 310.23 155.266C310.23 155.263 310.23 155.26 310.23 155.257C310.23 155.253 310.23 155.25 310.23 155.247C310.23 155.244 310.23 155.241 310.23 155.238C310.23 155.234 310.23 155.231 310.23 155.228C310.23 155.225 310.23 155.222 310.23 155.218C310.23 155.215 310.23 155.212 310.23 155.209C310.23 155.206 310.23 155.203 310.23 155.199C310.23 155.196 310.23 155.193 310.23 155.19C310.23 155.187 310.23 155.184 310.23 155.18C310.23 155.177 310.23 155.174 310.23 155.171C310.23 155.168 310.23 155.165 310.23 155.161C310.23 155.158 310.23 155.155 310.23 155.152C310.23 155.149 310.23 155.146 310.23 155.142C310.23 155.139 310.23 155.136 310.23 155.133C310.23 155.13 310.23 155.127 310.23 155.123C310.23 155.12 310.23 155.117 310.23 155.114C310.23 155.111 310.23 155.108 310.23 155.104C310.23 155.101 310.23 155.098 310.23 155.095C310.23 155.092 310.23 155.089 310.23 155.086C310.23 155.082 310.23 155.079 310.23 155.076C310.23 155.073 310.23 155.07 310.23 155.067C310.23 155.063 310.23 155.06 310.23 155.057C310.23 155.054 310.23 155.051 310.23 155.048C310.23 155.045 310.23 155.041 310.23 155.038C310.23 155.035 310.23 155.032 310.23 155.029C310.23 155.026 310.23 155.023 310.23 155.019C310.23 155.016 310.23 155.013 310.23 155.01C310.23 155.007 310.23 155.004 310.23 155.001C310.23 154.997 310.23 154.994 310.23 154.991C310.23 154.988 310.23 154.985 310.23 154.982C310.23 154.979 310.23 154.975 310.23 154.972C310.23 154.969 310.23 154.966 310.23 154.963C310.23 154.96 310.23 154.957 310.23 154.953C310.23 154.95 310.23 154.947 310.23 154.944C310.23 154.941 310.23 154.938 310.23 154.935C310.23 154.932 310.23 154.928 310.23 154.925C310.23 154.922 310.23 154.919 310.23 154.916C310.23 154.913 310.23 154.91 310.23 154.907C310.23 154.903 310.23 154.9 310.23 154.897C310.23 154.894 310.23 154.891 310.23 154.888C310.23 154.885 310.23 154.882 310.23 154.878C310.23 154.875 310.23 154.872 310.23 154.869C310.23 154.866 310.23 154.863 310.23 154.86C310.23 154.857 310.23 154.853 310.23 154.85C310.23 154.847 310.23 154.844 310.23 154.841C310.23 154.838 310.23 154.835 310.23 154.832C310.23 154.829 310.23 154.825 310.23 154.822C310.23 154.819 310.23 154.816 310.23 154.813C310.23 154.81 310.23 154.807 310.23 154.804C310.23 154.801 310.23 154.797 310.23 154.794C310.23 154.791 310.23 154.788 310.23 154.785C310.23 154.782 310.23 154.779 310.23 154.776C310.23 154.773 310.23 154.77 310.23 154.766C310.23 154.763 310.23 154.76 310.23 154.757C310.23 154.754 310.23 154.751 310.23 154.748C310.23 154.745 310.23 154.742 310.23 154.739C310.23 154.735 310.23 154.732 310.23 154.729C310.23 154.726 310.23 154.723 310.23 154.72C310.23 154.717 310.23 154.714 310.23 154.711C310.23 154.708 310.23 154.705 310.23 154.701C310.23 154.698 310.23 154.695 310.23 154.692C310.23 154.689 310.23 154.686 310.23 154.683C310.23 154.68 310.23 154.677 310.23 154.674C310.23 154.671 310.23 154.667 310.23 154.664C310.23 154.661 310.23 154.658 310.23 154.655C310.23 154.652 310.23 154.649 310.23 154.646C310.23 154.643 310.23 154.64 310.23 154.637C310.23 154.634 310.23 154.63 310.23 154.627C310.23 154.624 310.23 154.621 310.23 154.618C310.23 154.615 310.23 154.612 310.23 154.609C310.23 154.606 310.23 154.603 310.23 154.6C310.23 154.597 310.23 154.594 310.23 154.591C310.23 154.587 310.23 154.584 310.23 154.581C310.23 154.578 310.23 154.575 310.23 154.572C310.23 154.569 310.23 154.566 310.23 154.563C310.23 154.56 310.23 154.557 310.23 154.554C310.23 154.551 310.23 154.548 310.23 154.544C310.23 154.541 310.23 154.538 310.23 154.535C310.23 154.532 310.23 154.529 310.23 154.526C310.23 154.523 310.23 154.52 310.23 154.517C310.23 154.514 310.23 154.511 310.23 154.508C310.23 154.505 310.23 154.502 310.23 154.499C310.23 154.496 310.23 154.492 310.23 154.489C310.23 154.486 310.23 154.483 310.23 154.48C310.23 154.477 310.23 154.474 310.23 154.471C310.23 154.468 310.23 154.465 310.23 154.462C310.23 154.459 310.23 154.456 310.23 154.453C310.23 154.45 310.23 154.447 310.23 154.444C310.23 154.441 310.23 154.438 310.23 154.435C310.23 154.432 310.23 154.428 310.23 154.425C310.23 154.422 310.23 154.419 310.23 154.416C310.23 154.413 310.23 154.41 310.23 154.407C310.23 154.404 310.23 154.401 310.23 154.398C310.23 154.395 310.23 154.392 310.23 154.389C310.23 154.386 310.23 154.383 310.23 154.38C310.23 154.377 310.23 154.374 310.23 154.371C310.23 154.368 310.23 154.365 310.23 154.362C310.23 154.359 310.23 154.356 310.23 154.353C310.23 154.35 310.23 154.346 310.23 154.343C310.23 154.34 310.23 154.337 310.23 154.334C310.23 154.331 310.23 154.328 310.23 154.325C310.23 154.322 310.23 154.319 310.23 154.316C310.23 154.313 310.23 154.31 310.23 154.307C310.23 154.304 310.23 154.301 310.23 154.298C310.23 154.295 310.23 154.292 310.23 154.289C310.23 154.286 310.23 154.283 310.23 154.28C310.23 154.277 310.23 154.274 310.23 154.271C310.23 154.268 310.23 154.265 310.23 154.262C310.23 154.259 310.23 154.256 310.23 154.253C310.23 154.25 310.23 154.247 310.23 154.244C310.23 154.241 310.23 154.238 310.23 154.235C310.23 154.232 310.23 154.229 310.23 154.226C310.23 154.223 310.23 154.22 310.23 154.217C310.23 154.214 310.23 154.211 310.23 154.208C310.23 154.205 310.23 154.202 310.23 154.199C310.23 154.196 310.23 154.193 310.23 154.19C310.23 154.187 310.23 154.184 310.23 154.181C310.23 154.178 310.23 154.175 310.23 154.172C310.23 154.169 310.23 154.166 310.23 154.163C310.23 154.16 310.23 154.157 310.23 154.154C310.23 154.151 310.23 154.148 310.23 154.145C310.23 154.142 310.23 154.139 310.23 154.136C310.23 154.133 310.23 154.13 310.23 154.127C310.23 154.124 310.23 154.121 310.23 154.118C310.23 154.115 310.23 154.112 310.23 154.109C310.23 154.106 310.23 154.103 310.23 154.1C310.23 154.097 310.23 154.094 310.23 154.091C310.23 154.088 310.23 154.085 310.23 154.082C310.23 154.079 310.23 154.076 310.23 154.073C310.23 154.07 310.23 154.067 310.23 154.064C310.23 154.061 310.23 154.058 310.23 154.055C310.23 154.052 310.23 154.049 310.23 154.046C310.23 154.043 310.23 154.04 310.23 154.037C310.23 154.034 310.23 154.031 310.23 154.028C310.23 154.025 310.23 154.022 310.23 154.019C310.23 154.016 310.23 154.014 310.23 154.011H306.23ZM308.23 157.195H226.323V161.195H308.23V157.195ZM224.326 159.3C224.753 167.417 226.611 174.325 230.003 179.929L233.425 177.858C230.458 172.956 228.722 166.731 228.32 159.089L224.326 159.3ZM230.036 179.982C233.516 185.346 237.832 189.461 242.994 192.264L244.903 188.748C240.388 186.297 236.548 182.671 233.392 177.805L230.036 179.982ZM243.015 192.275C248.274 195.05 253.847 196.446 259.708 196.446V192.446C254.51 192.446 249.576 191.215 244.882 188.737L243.015 192.275ZM259.708 196.446C267.208 196.446 273.639 194.712 278.879 191.119L276.617 187.82C272.18 190.862 266.585 192.446 259.708 192.446V196.446ZM278.879 191.119C284.062 187.565 287.835 182.745 290.187 176.718L286.46 175.264C284.389 180.572 281.112 184.738 276.617 187.82L278.879 191.119ZM288.324 177.991H305.534V173.991H288.324V177.991ZM303.614 175.434C300.965 184.571 295.879 192.174 288.312 198.281L290.824 201.394C299.016 194.783 304.574 186.488 307.455 176.548L303.614 175.434ZM288.315 198.278C281.003 204.154 271.523 207.168 259.708 207.168V211.168C272.223 211.168 282.649 207.962 290.821 201.396L288.315 198.278ZM259.708 114.064C250.966 114.064 243.134 116.771 236.283 122.165L238.757 125.307C244.901 120.471 251.861 118.064 259.708 118.064V114.064ZM236.288 122.161C229.413 127.541 225.55 135.417 224.54 145.517L228.52 145.915C229.446 136.662 232.91 129.884 238.753 125.311L236.288 122.161ZM226.53 147.716H291.227V143.716H226.53V147.716ZM293.225 145.627C292.79 135.922 289.432 128.118 283.012 122.445L280.364 125.442C285.833 130.275 288.834 136.986 289.229 145.806L293.225 145.627ZM283.012 122.445C276.666 116.836 268.853 114.064 259.708 114.064V118.064C267.981 118.064 274.822 120.544 280.364 125.442L283.012 122.445Z" fill="white" mask="url(#path-1-outside-1_46_1045)"/>
<mask id="path-3-outside-2_46_1045" maskUnits="userSpaceOnUse" x="8.26001" y="214.92" width="681" height="135" fill="white">
<rect fill="white" x="8.26001" y="214.92" width="681" height="135"/>
<path d="M48.9947 347.408C40.4239 347.408 33.3045 345.957 27.6367 343.054C21.9688 340.151 17.7525 336.28 14.9877 331.442C12.2229 326.603 10.8405 321.35 10.8405 315.682C10.8405 305.176 14.8495 297.089 22.8674 291.421C30.8853 285.753 41.8063 282.919 55.6303 282.919H83.4165V281.675C83.4165 272.69 81.0664 265.916 76.3663 261.354C71.6661 256.654 65.3762 254.304 57.4965 254.304C50.7227 254.304 44.8475 256.032 39.8709 259.488C35.0325 262.805 31.9912 267.713 30.7471 274.21H12.9141C13.6053 266.745 16.0936 260.455 20.3791 255.34C24.8027 250.226 30.2632 246.355 36.7605 243.728C43.2578 240.964 50.1698 239.581 57.4965 239.581C71.8735 239.581 82.6562 243.452 89.8447 251.193C97.1714 258.796 100.835 268.957 100.835 281.675V344.92H85.2828L84.246 326.465C81.3429 332.271 77.0575 337.248 71.3896 341.395C65.86 345.404 58.3951 347.408 48.9947 347.408ZM51.6904 332.686C58.326 332.686 63.9938 330.958 68.694 327.502C73.5324 324.046 77.1957 319.553 79.684 314.023C82.1724 308.494 83.4165 302.688 83.4165 296.605V296.398H57.0818C46.852 296.398 39.5944 298.195 35.309 301.789C31.1618 305.245 29.0882 309.6 29.0882 314.853C29.0882 320.244 31.0235 324.599 34.8943 327.916C38.9032 331.096 44.5019 332.686 51.6904 332.686ZM126.965 344.92V242.069H142.725L143.762 260.524C147.079 254.027 151.849 248.912 158.069 245.18C164.29 241.447 171.34 239.581 179.22 239.581C191.385 239.581 201.062 243.314 208.25 250.779C215.577 258.105 219.241 269.441 219.241 284.786V344.92H201.822V286.652C201.822 265.225 192.975 254.511 175.28 254.511C166.433 254.511 159.037 257.76 153.093 264.257C147.287 270.616 144.384 279.74 144.384 291.628V344.92H126.965ZM279.845 347.408C271.274 347.408 264.155 345.957 258.487 343.054C252.819 340.151 248.603 336.28 245.838 331.442C243.073 326.603 241.691 321.35 241.691 315.682C241.691 305.176 245.699 297.089 253.717 291.421C261.735 285.753 272.656 282.919 286.48 282.919H314.267V281.675C314.267 272.69 311.916 265.916 307.216 261.354C302.516 256.654 296.226 254.304 288.347 254.304C281.573 254.304 275.698 256.032 270.721 259.488C265.883 262.805 262.841 267.713 261.597 274.21H243.764C244.455 266.745 246.944 260.455 251.229 255.34C255.653 250.226 261.113 246.355 267.611 243.728C274.108 240.964 281.02 239.581 288.347 239.581C302.723 239.581 313.506 243.452 320.695 251.193C328.021 258.796 331.685 268.957 331.685 281.675V344.92H316.133L315.096 326.465C312.193 332.271 307.907 337.248 302.24 341.395C296.71 345.404 289.245 347.408 279.845 347.408ZM282.54 332.686C289.176 332.686 294.844 330.958 299.544 327.502C304.382 324.046 308.046 319.553 310.534 314.023C313.022 308.494 314.267 302.688 314.267 296.605V296.398H287.932C277.702 296.398 270.444 298.195 266.159 301.789C262.012 305.245 259.938 309.6 259.938 314.853C259.938 320.244 261.874 324.599 265.744 327.916C269.753 331.096 275.352 332.686 282.54 332.686ZM357.815 344.92V242.069H373.575L374.612 260.524C377.929 254.027 382.699 248.912 388.919 245.18C395.14 241.447 402.19 239.581 410.07 239.581C422.235 239.581 431.912 243.314 439.101 250.779C446.427 258.105 450.091 269.441 450.091 284.786V344.92H432.672V286.652C432.672 265.225 423.825 254.511 406.13 254.511C397.283 254.511 389.887 257.76 383.943 264.257C378.137 270.616 375.234 279.74 375.234 291.628V344.92H357.815ZM517.123 344.92C507.723 344.92 500.327 342.639 494.935 338.077C489.544 333.515 486.848 325.29 486.848 313.401V256.792H469.015V242.069H486.848L489.129 217.394H504.267V242.069H534.541V256.792H504.267V313.401C504.267 319.899 505.58 324.322 508.206 326.672C510.833 328.884 515.464 329.99 522.1 329.99H532.882V344.92H517.123ZM590.885 347.408C582.314 347.408 575.195 345.957 569.527 343.054C563.859 340.151 559.643 336.28 556.878 331.442C554.113 326.603 552.731 321.35 552.731 315.682C552.731 305.176 556.74 297.089 564.757 291.421C572.775 285.753 583.696 282.919 597.52 282.919H625.307V281.675C625.307 272.69 622.956 265.916 618.256 261.354C613.556 256.654 607.266 254.304 599.387 254.304C592.613 254.304 586.738 256.032 581.761 259.488C576.923 262.805 573.881 267.713 572.637 274.21H554.804C555.495 266.745 557.984 260.455 562.269 255.34C566.693 250.226 572.153 246.355 578.651 243.728C585.148 240.964 592.06 239.581 599.387 239.581C613.764 239.581 624.546 243.452 631.735 251.193C639.061 258.796 642.725 268.957 642.725 281.675V344.92H627.173L626.136 326.465C623.233 332.271 618.948 337.248 613.28 341.395C607.75 345.404 600.285 347.408 590.885 347.408ZM593.58 332.686C600.216 332.686 605.884 330.958 610.584 327.502C615.422 324.046 619.086 319.553 621.574 314.023C624.062 308.494 625.307 302.688 625.307 296.605V296.398H598.972C588.742 296.398 581.484 298.195 577.199 301.789C573.052 305.245 570.978 309.6 570.978 314.853C570.978 320.244 572.914 324.599 576.784 327.916C580.793 331.096 586.392 332.686 593.58 332.686ZM674.869 345.957C671.413 345.957 668.51 344.851 666.16 342.639C663.948 340.289 662.842 337.455 662.842 334.137C662.842 330.82 663.948 328.055 666.16 325.843C668.51 323.493 671.413 322.318 674.869 322.318C678.187 322.318 680.951 323.493 683.163 325.843C685.513 328.055 686.688 330.82 686.688 334.137C686.688 337.455 685.513 340.289 683.163 342.639C680.951 344.851 678.187 345.957 674.869 345.957Z"/>
</mask>
<path d="M48.9947 347.408C40.4239 347.408 33.3045 345.957 27.6367 343.054C21.9688 340.151 17.7525 336.28 14.9877 331.442C12.2229 326.603 10.8405 321.35 10.8405 315.682C10.8405 305.176 14.8495 297.089 22.8674 291.421C30.8853 285.753 41.8063 282.919 55.6303 282.919H83.4165V281.675C83.4165 272.69 81.0664 265.916 76.3663 261.354C71.6661 256.654 65.3762 254.304 57.4965 254.304C50.7227 254.304 44.8475 256.032 39.8709 259.488C35.0325 262.805 31.9912 267.713 30.7471 274.21H12.9141C13.6053 266.745 16.0936 260.455 20.3791 255.34C24.8027 250.226 30.2632 246.355 36.7605 243.728C43.2578 240.964 50.1698 239.581 57.4965 239.581C71.8735 239.581 82.6562 243.452 89.8447 251.193C97.1714 258.796 100.835 268.957 100.835 281.675V344.92H85.2828L84.246 326.465C81.3429 332.271 77.0575 337.248 71.3896 341.395C65.86 345.404 58.3951 347.408 48.9947 347.408ZM51.6904 332.686C58.326 332.686 63.9938 330.958 68.694 327.502C73.5324 324.046 77.1957 319.553 79.684 314.023C82.1724 308.494 83.4165 302.688 83.4165 296.605V296.398H57.0818C46.852 296.398 39.5944 298.195 35.309 301.789C31.1618 305.245 29.0882 309.6 29.0882 314.853C29.0882 320.244 31.0235 324.599 34.8943 327.916C38.9032 331.096 44.5019 332.686 51.6904 332.686ZM126.965 344.92V242.069H142.725L143.762 260.524C147.079 254.027 151.849 248.912 158.069 245.18C164.29 241.447 171.34 239.581 179.22 239.581C191.385 239.581 201.062 243.314 208.25 250.779C215.577 258.105 219.241 269.441 219.241 284.786V344.92H201.822V286.652C201.822 265.225 192.975 254.511 175.28 254.511C166.433 254.511 159.037 257.76 153.093 264.257C147.287 270.616 144.384 279.74 144.384 291.628V344.92H126.965ZM279.845 347.408C271.274 347.408 264.155 345.957 258.487 343.054C252.819 340.151 248.603 336.28 245.838 331.442C243.073 326.603 241.691 321.35 241.691 315.682C241.691 305.176 245.699 297.089 253.717 291.421C261.735 285.753 272.656 282.919 286.48 282.919H314.267V281.675C314.267 272.69 311.916 265.916 307.216 261.354C302.516 256.654 296.226 254.304 288.347 254.304C281.573 254.304 275.698 256.032 270.721 259.488C265.883 262.805 262.841 267.713 261.597 274.21H243.764C244.455 266.745 246.944 260.455 251.229 255.34C255.653 250.226 261.113 246.355 267.611 243.728C274.108 240.964 281.02 239.581 288.347 239.581C302.723 239.581 313.506 243.452 320.695 251.193C328.021 258.796 331.685 268.957 331.685 281.675V344.92H316.133L315.096 326.465C312.193 332.271 307.907 337.248 302.24 341.395C296.71 345.404 289.245 347.408 279.845 347.408ZM282.54 332.686C289.176 332.686 294.844 330.958 299.544 327.502C304.382 324.046 308.046 319.553 310.534 314.023C313.022 308.494 314.267 302.688 314.267 296.605V296.398H287.932C277.702 296.398 270.444 298.195 266.159 301.789C262.012 305.245 259.938 309.6 259.938 314.853C259.938 320.244 261.874 324.599 265.744 327.916C269.753 331.096 275.352 332.686 282.54 332.686ZM357.815 344.92V242.069H373.575L374.612 260.524C377.929 254.027 382.699 248.912 388.919 245.18C395.14 241.447 402.19 239.581 410.07 239.581C422.235 239.581 431.912 243.314 439.101 250.779C446.427 258.105 450.091 269.441 450.091 284.786V344.92H432.672V286.652C432.672 265.225 423.825 254.511 406.13 254.511C397.283 254.511 389.887 257.76 383.943 264.257C378.137 270.616 375.234 279.74 375.234 291.628V344.92H357.815ZM517.123 344.92C507.723 344.92 500.327 342.639 494.935 338.077C489.544 333.515 486.848 325.29 486.848 313.401V256.792H469.015V242.069H486.848L489.129 217.394H504.267V242.069H534.541V256.792H504.267V313.401C504.267 319.899 505.58 324.322 508.206 326.672C510.833 328.884 515.464 329.99 522.1 329.99H532.882V344.92H517.123ZM590.885 347.408C582.314 347.408 575.195 345.957 569.527 343.054C563.859 340.151 559.643 336.28 556.878 331.442C554.113 326.603 552.731 321.35 552.731 315.682C552.731 305.176 556.74 297.089 564.757 291.421C572.775 285.753 583.696 282.919 597.52 282.919H625.307V281.675C625.307 272.69 622.956 265.916 618.256 261.354C613.556 256.654 607.266 254.304 599.387 254.304C592.613 254.304 586.738 256.032 581.761 259.488C576.923 262.805 573.881 267.713 572.637 274.21H554.804C555.495 266.745 557.984 260.455 562.269 255.34C566.693 250.226 572.153 246.355 578.651 243.728C585.148 240.964 592.06 239.581 599.387 239.581C613.764 239.581 624.546 243.452 631.735 251.193C639.061 258.796 642.725 268.957 642.725 281.675V344.92H627.173L626.136 326.465C623.233 332.271 618.948 337.248 613.28 341.395C607.75 345.404 600.285 347.408 590.885 347.408ZM593.58 332.686C600.216 332.686 605.884 330.958 610.584 327.502C615.422 324.046 619.086 319.553 621.574 314.023C624.062 308.494 625.307 302.688 625.307 296.605V296.398H598.972C588.742 296.398 581.484 298.195 577.199 301.789C573.052 305.245 570.978 309.6 570.978 314.853C570.978 320.244 572.914 324.599 576.784 327.916C580.793 331.096 586.392 332.686 593.58 332.686ZM674.869 345.957C671.413 345.957 668.51 344.851 666.16 342.639C663.948 340.289 662.842 337.455 662.842 334.137C662.842 330.82 663.948 328.055 666.16 325.843C668.51 323.493 671.413 322.318 674.869 322.318C678.187 322.318 680.951 323.493 683.163 325.843C685.513 328.055 686.688 330.82 686.688 334.137C686.688 337.455 685.513 340.289 683.163 342.639C680.951 344.851 678.187 345.957 674.869 345.957Z" fill="white"/>
<path d="M27.6367 343.054L28.5484 341.274L28.5484 341.274L27.6367 343.054ZM14.9877 331.442L16.7242 330.449L16.7242 330.449L14.9877 331.442ZM22.8674 291.421L21.7129 289.788L21.7129 289.788L22.8674 291.421ZM83.4165 282.919V284.919H85.4165V282.919H83.4165ZM76.3663 261.354L74.9521 262.768L74.9626 262.779L74.9733 262.789L76.3663 261.354ZM39.8709 259.488L41.002 261.137L41.0117 261.13L39.8709 259.488ZM30.7471 274.21V276.21H32.4004L32.7114 274.586L30.7471 274.21ZM12.9141 274.21L10.9226 274.026L10.7204 276.21H12.9141V274.21ZM20.3791 255.34L18.8663 254.032L18.8561 254.044L18.846 254.056L20.3791 255.34ZM36.7605 243.728L37.5101 245.583L37.5269 245.576L37.5436 245.569L36.7605 243.728ZM89.8447 251.193L88.3791 252.554L88.3917 252.568L88.4045 252.581L89.8447 251.193ZM100.835 344.92V346.92H102.835V344.92H100.835ZM85.2828 344.92L83.2859 345.032L83.392 346.92H85.2828V344.92ZM84.246 326.465L86.2428 326.353L85.8209 318.843L82.4571 325.571L84.246 326.465ZM71.3896 341.395L72.5636 343.014L72.5707 343.009L71.3896 341.395ZM68.694 327.502L67.5315 325.874L67.5203 325.882L67.5092 325.89L68.694 327.502ZM79.684 314.023L81.5079 314.844L81.5079 314.844L79.684 314.023ZM83.4165 296.398H85.4165V294.398H83.4165V296.398ZM35.309 301.789L36.5894 303.326L36.5942 303.322L35.309 301.789ZM34.8943 327.916L33.5927 329.435L33.6216 329.46L33.6515 329.483L34.8943 327.916ZM48.9947 345.408C40.6362 345.408 33.8537 343.991 28.5484 341.274L26.7249 344.834C32.7553 347.923 40.2115 349.408 48.9947 349.408V345.408ZM28.5484 341.274C23.1754 338.522 19.2699 334.904 16.7242 330.449L13.2512 332.434C16.2351 337.656 20.7622 341.78 26.7249 344.834L28.5484 341.274ZM16.7242 330.449C14.1351 325.918 12.8405 321.008 12.8405 315.682H8.8405C8.8405 321.692 10.3107 327.288 13.2512 332.434L16.7242 330.449ZM12.8405 315.682C12.8405 305.772 16.5764 298.317 24.0219 293.054L21.7129 289.788C13.1225 295.86 8.8405 304.58 8.8405 315.682H12.8405ZM24.0219 293.054C31.5897 287.705 42.0566 284.919 55.6303 284.919V280.919C41.5559 280.919 30.1809 283.802 21.7129 289.788L24.0219 293.054ZM55.6303 284.919H83.4165V280.919H55.6303V284.919ZM85.4165 282.919V281.675H81.4165V282.919H85.4165ZM85.4165 281.675C85.4165 272.355 82.9742 264.98 77.7592 259.919L74.9733 262.789C79.1587 266.851 81.4165 273.024 81.4165 281.675H85.4165ZM77.7805 259.94C72.6366 254.796 65.8009 252.304 57.4965 252.304V256.304C64.9514 256.304 70.6956 258.512 74.9521 262.768L77.7805 259.94ZM57.4965 252.304C50.3651 252.304 44.0806 254.129 38.7301 257.845L41.0117 261.13C45.6145 257.934 51.0804 256.304 57.4965 256.304V252.304ZM38.7399 257.838C33.4099 261.493 30.1123 266.891 28.7828 273.834L32.7114 274.586C33.8702 268.535 36.6551 264.118 41.002 261.137L38.7399 257.838ZM30.7471 272.21H12.9141V276.21H30.7471V272.21ZM14.9056 274.395C15.5641 267.282 17.9193 261.39 21.9121 256.625L18.846 254.056C14.2679 259.52 11.6465 266.208 10.9226 274.026L14.9056 274.395ZM21.8918 256.649C26.1003 251.783 31.2958 248.095 37.5101 245.583L36.0109 241.874C29.2306 244.615 23.5052 248.669 18.8663 254.032L21.8918 256.649ZM37.5436 245.569C43.7839 242.913 50.4286 241.581 57.4965 241.581V237.581C49.911 237.581 42.7317 239.014 35.9774 241.888L37.5436 245.569ZM57.4965 241.581C71.5256 241.581 81.6906 245.351 88.3791 252.554L91.3103 249.832C83.6217 241.552 72.2213 237.581 57.4965 237.581V241.581ZM88.4045 252.581C95.3009 259.738 98.8348 269.362 98.8348 281.675H102.835C102.835 268.552 99.0419 257.855 91.2848 249.805L88.4045 252.581ZM98.8348 281.675V344.92H102.835V281.675H98.8348ZM100.835 342.92H85.2828V346.92H100.835V342.92ZM87.2796 344.808L86.2428 326.353L82.2491 326.577L83.2859 345.032L87.2796 344.808ZM82.4571 325.571C79.708 331.069 75.641 335.806 70.2086 339.781L72.5707 343.009C78.474 338.689 82.9779 333.473 86.0348 327.359L82.4571 325.571ZM70.2157 339.776C65.1347 343.459 58.1286 345.408 48.9947 345.408V349.408C58.6615 349.408 66.5854 347.348 72.5636 343.014L70.2157 339.776ZM51.6904 334.686C58.6911 334.686 64.789 332.856 69.8787 329.113L67.5092 325.89C63.1986 329.06 57.9608 330.686 51.6904 330.686V334.686ZM69.8564 329.129C74.9887 325.463 78.8774 320.69 81.5079 314.844L77.8602 313.203C75.5141 318.416 72.076 322.628 67.5315 325.874L69.8564 329.129ZM81.5079 314.844C84.1127 309.056 85.4165 302.97 85.4165 296.605H81.4165C81.4165 302.406 80.232 307.932 77.8602 313.203L81.5079 314.844ZM85.4165 296.605V296.398H81.4165V296.605H85.4165ZM83.4165 294.398H57.0818V298.398H83.4165V294.398ZM57.0818 294.398C46.7268 294.398 38.8662 296.195 34.0238 300.257L36.5942 303.322C40.3227 300.194 46.9773 298.398 57.0818 298.398V294.398ZM34.0286 300.253C29.44 304.077 27.0882 308.987 27.0882 314.853H31.0882C31.0882 310.212 32.8836 306.414 36.5894 303.326L34.0286 300.253ZM27.0882 314.853C27.0882 320.79 29.2504 325.713 33.5927 329.435L36.1959 326.398C32.7967 323.484 31.0882 319.699 31.0882 314.853H27.0882ZM33.6515 329.483C38.1327 333.038 44.23 334.686 51.6904 334.686V330.686C44.7739 330.686 39.6738 329.154 36.1371 326.349L33.6515 329.483ZM126.965 344.92H124.965V346.92H126.965V344.92ZM126.965 242.069V240.069H124.965V242.069H126.965ZM142.725 242.069L144.722 241.957L144.616 240.069H142.725V242.069ZM143.762 260.524L141.765 260.637L142.179 268.02L145.543 261.434L143.762 260.524ZM158.069 245.18L157.04 243.465L157.04 243.465L158.069 245.18ZM208.25 250.779L206.81 252.166L206.823 252.179L206.836 252.193L208.25 250.779ZM219.241 344.92V346.92H221.241V344.92H219.241ZM201.822 344.92H199.822V346.92H201.822V344.92ZM153.093 264.257L151.617 262.907L151.616 262.908L153.093 264.257ZM144.384 344.92V346.92H146.384V344.92H144.384ZM128.965 344.92V242.069H124.965V344.92H128.965ZM126.965 244.069H142.725V240.069H126.965V244.069ZM140.728 242.182L141.765 260.637L145.758 260.412L144.722 241.957L140.728 242.182ZM145.543 261.434C148.691 255.268 153.201 250.433 159.098 246.895L157.04 243.465C150.496 247.391 145.467 252.786 141.98 259.615L145.543 261.434ZM159.098 246.895C164.982 243.365 171.671 241.581 179.22 241.581V237.581C171.01 237.581 163.599 239.53 157.04 243.465L159.098 246.895ZM179.22 241.581C190.944 241.581 200.064 245.161 206.81 252.166L209.691 249.391C202.06 241.467 191.826 237.581 179.22 237.581V241.581ZM206.836 252.193C213.64 258.997 217.241 269.718 217.241 284.786H221.241C221.241 269.164 217.514 257.214 209.665 249.364L206.836 252.193ZM217.241 284.786V344.92H221.241V284.786H217.241ZM219.241 342.92H201.822V346.92H219.241V342.92ZM203.822 344.92V286.652H199.822V344.92H203.822ZM203.822 286.652C203.822 275.713 201.572 267.137 196.729 261.273C191.825 255.335 184.547 252.511 175.28 252.511V256.511C183.708 256.511 189.701 259.044 193.645 263.82C197.649 268.669 199.822 276.163 199.822 286.652H203.822ZM175.28 252.511C165.875 252.511 157.942 255.993 151.617 262.907L154.568 265.607C160.132 259.526 166.991 256.511 175.28 256.511V252.511ZM151.616 262.908C145.363 269.756 142.384 279.432 142.384 291.628H146.384C146.384 280.048 149.21 271.476 154.57 265.605L151.616 262.908ZM142.384 291.628V344.92H146.384V291.628H142.384ZM144.384 342.92H126.965V346.92H144.384V342.92ZM258.487 343.054L259.398 341.274L259.398 341.274L258.487 343.054ZM245.838 331.442L247.574 330.449L247.574 330.449L245.838 331.442ZM253.717 291.421L252.563 289.788L252.563 289.788L253.717 291.421ZM314.267 282.919V284.919H316.267V282.919H314.267ZM307.216 261.354L305.802 262.768L305.813 262.779L305.823 262.789L307.216 261.354ZM270.721 259.488L271.852 261.137L271.862 261.13L270.721 259.488ZM261.597 274.21V276.21H263.25L263.561 274.586L261.597 274.21ZM243.764 274.21L241.773 274.026L241.57 276.21H243.764V274.21ZM251.229 255.34L249.716 254.032L249.706 254.044L249.696 254.056L251.229 255.34ZM267.611 243.728L268.36 245.583L268.377 245.576L268.394 245.569L267.611 243.728ZM320.695 251.193L319.229 252.554L319.242 252.568L319.255 252.581L320.695 251.193ZM331.685 344.92V346.92H333.685V344.92H331.685ZM316.133 344.92L314.136 345.032L314.242 346.92H316.133V344.92ZM315.096 326.465L317.093 326.353L316.671 318.843L313.307 325.571L315.096 326.465ZM302.24 341.395L303.414 343.014L303.421 343.009L302.24 341.395ZM299.544 327.502L298.381 325.874L298.37 325.882L298.359 325.89L299.544 327.502ZM310.534 314.023L312.358 314.844L312.358 314.844L310.534 314.023ZM314.267 296.398H316.267V294.398H314.267V296.398ZM266.159 301.789L267.439 303.326L267.444 303.322L266.159 301.789ZM265.744 327.916L264.443 329.435L264.472 329.46L264.501 329.483L265.744 327.916ZM279.845 345.408C271.486 345.408 264.704 343.991 259.398 341.274L257.575 344.834C263.605 347.923 271.062 349.408 279.845 349.408V345.408ZM259.398 341.274C254.025 338.522 250.12 334.904 247.574 330.449L244.101 332.434C247.085 337.656 251.612 341.78 257.575 344.834L259.398 341.274ZM247.574 330.449C244.985 325.918 243.691 321.008 243.691 315.682H239.691C239.691 321.692 241.161 327.288 244.101 332.434L247.574 330.449ZM243.691 315.682C243.691 305.772 247.426 298.317 254.872 293.054L252.563 289.788C243.973 295.86 239.691 304.58 239.691 315.682H243.691ZM254.872 293.054C262.44 287.705 272.907 284.919 286.48 284.919V280.919C272.406 280.919 261.031 283.802 252.563 289.788L254.872 293.054ZM286.48 284.919H314.267V280.919H286.48V284.919ZM316.267 282.919V281.675H312.267V282.919H316.267ZM316.267 281.675C316.267 272.355 313.824 264.98 308.609 259.919L305.823 262.789C310.009 266.851 312.267 273.024 312.267 281.675H316.267ZM308.63 259.94C303.487 254.796 296.651 252.304 288.347 252.304V256.304C295.801 256.304 301.546 258.512 305.802 262.768L308.63 259.94ZM288.347 252.304C281.215 252.304 274.931 254.129 269.58 257.845L271.862 261.13C276.464 257.934 281.93 256.304 288.347 256.304V252.304ZM269.59 257.838C264.26 261.493 260.962 266.891 259.633 273.834L263.561 274.586C264.72 268.535 267.505 264.118 271.852 261.137L269.59 257.838ZM261.597 272.21H243.764V276.21H261.597V272.21ZM245.756 274.395C246.414 267.282 248.769 261.39 252.762 256.625L249.696 254.056C245.118 259.52 242.496 266.208 241.773 274.026L245.756 274.395ZM252.742 256.649C256.95 251.783 262.146 248.095 268.36 245.583L266.861 241.874C260.081 244.615 254.355 248.669 249.716 254.032L252.742 256.649ZM268.394 245.569C274.634 242.913 281.279 241.581 288.347 241.581V237.581C280.761 237.581 273.582 239.014 266.827 241.888L268.394 245.569ZM288.347 241.581C302.376 241.581 312.541 245.351 319.229 252.554L322.16 249.832C314.472 241.552 303.071 237.581 288.347 237.581V241.581ZM319.255 252.581C326.151 259.738 329.685 269.362 329.685 281.675H333.685C333.685 268.552 329.892 257.855 322.135 249.805L319.255 252.581ZM329.685 281.675V344.92H333.685V281.675H329.685ZM331.685 342.92H316.133V346.92H331.685V342.92ZM318.13 344.808L317.093 326.353L313.099 326.577L314.136 345.032L318.13 344.808ZM313.307 325.571C310.558 331.069 306.491 335.806 301.059 339.781L303.421 343.009C309.324 338.689 313.828 333.473 316.885 327.359L313.307 325.571ZM301.066 339.776C295.985 343.459 288.979 345.408 279.845 345.408V349.408C289.512 349.408 297.435 347.348 303.414 343.014L301.066 339.776ZM282.54 334.686C289.541 334.686 295.639 332.856 300.729 329.113L298.359 325.89C294.049 329.06 288.811 330.686 282.54 330.686V334.686ZM300.706 329.129C305.839 325.463 309.727 320.69 312.358 314.844L308.71 313.203C306.364 318.416 302.926 322.628 298.381 325.874L300.706 329.129ZM312.358 314.844C314.963 309.056 316.267 302.97 316.267 296.605H312.267C312.267 302.406 311.082 307.932 308.71 313.203L312.358 314.844ZM316.267 296.605V296.398H312.267V296.605H316.267ZM314.267 294.398H287.932V298.398H314.267V294.398ZM287.932 294.398C277.577 294.398 269.716 296.195 264.874 300.257L267.444 303.322C271.173 300.194 277.827 298.398 287.932 298.398V294.398ZM264.879 300.253C260.29 304.077 257.938 308.987 257.938 314.853H261.938C261.938 310.212 263.734 306.414 267.439 303.326L264.879 300.253ZM257.938 314.853C257.938 320.79 260.1 325.713 264.443 329.435L267.046 326.398C263.647 323.484 261.938 319.699 261.938 314.853H257.938ZM264.501 329.483C268.983 333.038 275.08 334.686 282.54 334.686V330.686C275.624 330.686 270.524 329.154 266.987 326.349L264.501 329.483ZM357.815 344.92H355.815V346.92H357.815V344.92ZM357.815 242.069V240.069H355.815V242.069H357.815ZM373.575 242.069L375.572 241.957L375.466 240.069H373.575V242.069ZM374.612 260.524L372.615 260.637L373.03 268.02L376.393 261.434L374.612 260.524ZM388.919 245.18L387.89 243.465L387.89 243.465L388.919 245.18ZM439.101 250.779L437.66 252.166L437.673 252.179L437.686 252.193L439.101 250.779ZM450.091 344.92V346.92H452.091V344.92H450.091ZM432.672 344.92H430.672V346.92H432.672V344.92ZM383.943 264.257L382.467 262.907L382.466 262.908L383.943 264.257ZM375.234 344.92V346.92H377.234V344.92H375.234ZM359.815 344.92V242.069H355.815V344.92H359.815ZM357.815 244.069H373.575V240.069H357.815V244.069ZM371.578 242.182L372.615 260.637L376.608 260.412L375.572 241.957L371.578 242.182ZM376.393 261.434C379.541 255.268 384.051 250.433 389.948 246.895L387.89 243.465C381.346 247.391 376.317 252.786 372.83 259.615L376.393 261.434ZM389.948 246.895C395.832 243.365 402.521 241.581 410.07 241.581V237.581C401.86 237.581 394.449 239.53 387.89 243.465L389.948 246.895ZM410.07 241.581C421.794 241.581 430.914 245.161 437.66 252.166L440.541 249.391C432.91 241.467 422.676 237.581 410.07 237.581V241.581ZM437.686 252.193C444.49 258.997 448.091 269.718 448.091 284.786H452.091C452.091 269.164 448.364 257.214 440.515 249.364L437.686 252.193ZM448.091 284.786V344.92H452.091V284.786H448.091ZM450.091 342.92H432.672V346.92H450.091V342.92ZM434.672 344.92V286.652H430.672V344.92H434.672ZM434.672 286.652C434.672 275.713 432.422 267.137 427.579 261.273C422.676 255.335 415.397 252.511 406.13 252.511V256.511C414.558 256.511 420.551 259.044 424.495 263.82C428.499 268.669 430.672 276.163 430.672 286.652H434.672ZM406.13 252.511C396.725 252.511 388.792 255.993 382.467 262.907L385.418 265.607C390.982 259.526 397.841 256.511 406.13 256.511V252.511ZM382.466 262.908C376.213 269.756 373.234 279.432 373.234 291.628H377.234C377.234 280.048 380.06 271.476 385.42 265.605L382.466 262.908ZM373.234 291.628V344.92H377.234V291.628H373.234ZM375.234 342.92H357.815V346.92H375.234V342.92ZM486.848 256.792H488.848V254.792H486.848V256.792ZM469.015 256.792H467.015V258.792H469.015V256.792ZM469.015 242.069V240.069H467.015V242.069H469.015ZM486.848 242.069V244.069H488.672L488.84 242.254L486.848 242.069ZM489.129 217.394V215.394H487.306L487.138 217.21L489.129 217.394ZM504.267 217.394H506.267V215.394H504.267V217.394ZM504.267 242.069H502.267V244.069H504.267V242.069ZM534.541 242.069H536.541V240.069H534.541V242.069ZM534.541 256.792V258.792H536.541V256.792H534.541ZM504.267 256.792V254.792H502.267V256.792H504.267ZM508.206 326.672L506.873 328.163L506.895 328.183L506.918 328.202L508.206 326.672ZM532.882 329.99H534.882V327.99H532.882V329.99ZM532.882 344.92V346.92H534.882V344.92H532.882ZM517.123 342.92C508.038 342.92 501.153 340.718 496.227 336.55L493.644 339.604C499.501 344.56 507.408 346.92 517.123 346.92V342.92ZM496.227 336.55C491.515 332.563 488.848 325.09 488.848 313.401H484.848C484.848 325.49 487.573 334.468 493.644 339.604L496.227 336.55ZM488.848 313.401V256.792H484.848V313.401H488.848ZM486.848 254.792H469.015V258.792H486.848V254.792ZM471.015 256.792V242.069H467.015V256.792H471.015ZM469.015 244.069H486.848V240.069H469.015V244.069ZM488.84 242.254L491.121 217.578L487.138 217.21L484.857 241.885L488.84 242.254ZM489.129 219.394H504.267V215.394H489.129V219.394ZM502.267 217.394V242.069H506.267V217.394H502.267ZM504.267 244.069H534.541V240.069H504.267V244.069ZM532.541 242.069V256.792H536.541V242.069H532.541ZM534.541 254.792H504.267V258.792H534.541V254.792ZM502.267 256.792V313.401H506.267V256.792H502.267ZM502.267 313.401C502.267 320.027 503.578 325.215 506.873 328.163L509.54 325.182C507.581 323.429 506.267 319.77 506.267 313.401H502.267ZM506.918 328.202C510.116 330.895 515.372 331.99 522.1 331.99V327.99C515.556 327.99 511.55 326.873 509.495 325.143L506.918 328.202ZM522.1 331.99H532.882V327.99H522.1V331.99ZM530.882 329.99V344.92H534.882V329.99H530.882ZM532.882 342.92H517.123V346.92H532.882V342.92ZM569.527 343.054L570.438 341.274L570.438 341.274L569.527 343.054ZM556.878 331.442L558.614 330.449L558.614 330.449L556.878 331.442ZM564.757 291.421L563.603 289.788L563.603 289.788L564.757 291.421ZM625.307 282.919V284.919H627.307V282.919H625.307ZM618.256 261.354L616.842 262.768L616.853 262.779L616.863 262.789L618.256 261.354ZM581.761 259.488L582.892 261.137L582.902 261.13L581.761 259.488ZM572.637 274.21V276.21H574.29L574.601 274.586L572.637 274.21ZM554.804 274.21L552.813 274.026L552.61 276.21H554.804V274.21ZM562.269 255.34L560.756 254.032L560.746 254.044L560.736 254.056L562.269 255.34ZM578.651 243.728L579.4 245.583L579.417 245.576L579.434 245.569L578.651 243.728ZM631.735 251.193L630.269 252.554L630.282 252.568L630.295 252.581L631.735 251.193ZM642.725 344.92V346.92H644.725V344.92H642.725ZM627.173 344.92L625.176 345.032L625.282 346.92H627.173V344.92ZM626.136 326.465L628.133 326.353L627.711 318.843L624.347 325.571L626.136 326.465ZM613.28 341.395L614.454 343.014L614.461 343.009L613.28 341.395ZM610.584 327.502L609.422 325.874L609.41 325.882L609.399 325.89L610.584 327.502ZM621.574 314.023L623.398 314.844L623.398 314.844L621.574 314.023ZM625.307 296.398H627.307V294.398H625.307V296.398ZM577.199 301.789L578.479 303.326L578.484 303.322L577.199 301.789ZM576.784 327.916L575.483 329.435L575.512 329.46L575.542 329.483L576.784 327.916ZM590.885 345.408C582.526 345.408 575.744 343.991 570.438 341.274L568.615 344.834C574.645 347.923 582.102 349.408 590.885 349.408V345.408ZM570.438 341.274C565.065 338.522 561.16 334.904 558.614 330.449L555.141 332.434C558.125 337.656 562.652 341.78 568.615 344.834L570.438 341.274ZM558.614 330.449C556.025 325.918 554.731 321.008 554.731 315.682H550.731C550.731 321.692 552.201 327.288 555.141 332.434L558.614 330.449ZM554.731 315.682C554.731 305.772 558.466 298.317 565.912 293.054L563.603 289.788C555.013 295.86 550.731 304.58 550.731 315.682H554.731ZM565.912 293.054C573.48 287.705 583.947 284.919 597.52 284.919V280.919C583.446 280.919 572.071 283.802 563.603 289.788L565.912 293.054ZM597.52 284.919H625.307V280.919H597.52V284.919ZM627.307 282.919V281.675H623.307V282.919H627.307ZM627.307 281.675C627.307 272.355 624.864 264.98 619.649 259.919L616.863 262.789C621.049 266.851 623.307 273.024 623.307 281.675H627.307ZM619.671 259.94C614.527 254.796 607.691 252.304 599.387 252.304V256.304C606.841 256.304 612.586 258.512 616.842 262.768L619.671 259.94ZM599.387 252.304C592.255 252.304 585.971 254.129 580.62 257.845L582.902 261.13C587.505 257.934 592.97 256.304 599.387 256.304V252.304ZM580.63 257.838C575.3 261.493 572.002 266.891 570.673 273.834L574.601 274.586C575.76 268.535 578.545 264.118 582.892 261.137L580.63 257.838ZM572.637 272.21H554.804V276.21H572.637V272.21ZM556.796 274.395C557.454 267.282 559.809 261.39 563.802 256.625L560.736 254.056C556.158 259.52 553.537 266.208 552.813 274.026L556.796 274.395ZM563.782 256.649C567.99 251.783 573.186 248.095 579.4 245.583L577.901 241.874C571.121 244.615 565.395 248.669 560.756 254.032L563.782 256.649ZM579.434 245.569C585.674 242.913 592.319 241.581 599.387 241.581V237.581C591.801 237.581 584.622 239.014 577.867 241.888L579.434 245.569ZM599.387 241.581C613.416 241.581 623.581 245.351 630.269 252.554L633.2 249.832C625.512 241.552 614.111 237.581 599.387 237.581V241.581ZM630.295 252.581C637.191 259.738 640.725 269.362 640.725 281.675H644.725C644.725 268.552 640.932 257.855 633.175 249.805L630.295 252.581ZM640.725 281.675V344.92H644.725V281.675H640.725ZM642.725 342.92H627.173V346.92H642.725V342.92ZM629.17 344.808L628.133 326.353L624.139 326.577L625.176 345.032L629.17 344.808ZM624.347 325.571C621.598 331.069 617.531 335.806 612.099 339.781L614.461 343.009C620.364 338.689 624.868 333.473 627.925 327.359L624.347 325.571ZM612.106 339.776C607.025 343.459 600.019 345.408 590.885 345.408V349.408C600.552 349.408 608.475 347.348 614.454 343.014L612.106 339.776ZM593.58 334.686C600.581 334.686 606.679 332.856 611.769 329.113L609.399 325.89C605.089 329.06 599.851 330.686 593.58 330.686V334.686ZM611.746 329.129C616.879 325.463 620.767 320.69 623.398 314.844L619.75 313.203C617.404 318.416 613.966 322.628 609.422 325.874L611.746 329.129ZM623.398 314.844C626.003 309.056 627.307 302.97 627.307 296.605H623.307C623.307 302.406 622.122 307.932 619.75 313.203L623.398 314.844ZM627.307 296.605V296.398H623.307V296.605H627.307ZM625.307 294.398H598.972V298.398H625.307V294.398ZM598.972 294.398C588.617 294.398 580.756 296.195 575.914 300.257L578.484 303.322C582.213 300.194 588.867 298.398 598.972 298.398V294.398ZM575.919 300.253C571.33 304.077 568.978 308.987 568.978 314.853H572.978C572.978 310.212 574.774 306.414 578.479 303.326L575.919 300.253ZM568.978 314.853C568.978 320.79 571.14 325.713 575.483 329.435L578.086 326.398C574.687 323.484 572.978 319.699 572.978 314.853H568.978ZM575.542 329.483C580.023 333.038 586.12 334.686 593.58 334.686V330.686C586.664 330.686 581.564 329.154 578.027 326.349L575.542 329.483ZM666.16 342.639L664.703 344.01L664.745 344.054L664.789 344.095L666.16 342.639ZM666.16 325.843L664.745 324.429L664.745 324.429L666.16 325.843ZM683.163 325.843L681.707 327.214L681.748 327.258L681.792 327.299L683.163 325.843ZM683.163 342.639L684.577 344.053L684.577 344.053L683.163 342.639ZM674.869 343.957C671.883 343.957 669.482 343.019 667.53 341.183L664.789 344.095C667.538 346.683 670.943 347.957 674.869 347.957V343.957ZM667.616 341.268C665.764 339.301 664.842 336.961 664.842 334.137H660.842C660.842 337.949 662.132 341.277 664.703 344.01L667.616 341.268ZM664.842 334.137C664.842 331.314 665.762 329.069 667.574 327.257L664.745 324.429C662.134 327.04 660.842 330.325 660.842 334.137H664.842ZM667.574 327.257C669.533 325.298 671.92 324.318 674.869 324.318V320.318C670.906 320.318 667.487 321.687 664.745 324.429L667.574 327.257ZM674.869 324.318C677.653 324.318 679.885 325.278 681.707 327.214L684.62 324.472C682.018 321.708 678.721 320.318 674.869 320.318V324.318ZM681.792 327.299C683.728 329.121 684.688 331.354 684.688 334.137H688.688C688.688 330.286 687.298 326.988 684.534 324.386L681.792 327.299ZM684.688 334.137C684.688 336.924 683.725 339.249 681.749 341.225L684.577 344.053C687.302 341.329 688.688 337.987 688.688 334.137H684.688ZM681.749 341.225C679.937 343.037 677.692 343.957 674.869 343.957V347.957C678.681 347.957 681.966 346.665 684.577 344.053L681.749 341.225Z" fill="white" mask="url(#path-3-outside-2_46_1045)"/>
<mask id="path-5-outside-3_46_1045" maskUnits="userSpaceOnUse" x="679.94" y="214.52" width="95" height="53" fill="white">
<rect fill="white" x="679.94" y="214.52" width="95" height="53"/>
<path d="M696.791 265.52V221.905H682.344V217.136H717.043V221.905H702.597V265.52H696.791ZM724.132 265.52V217.136H730.906L748.324 250.867L765.604 217.136H772.447V265.52H766.641V227.504L750.467 258.608H746.112L729.938 227.573V265.52H724.132Z"/>
</mask>
<path d="M696.791 265.52V221.905H682.344V217.136H717.043V221.905H702.597V265.52H696.791ZM724.132 265.52V217.136H730.906L748.324 250.867L765.604 217.136H772.447V265.52H766.641V227.504L750.467 258.608H746.112L729.938 227.573V265.52H724.132Z" fill="white"/>
<path d="M696.791 265.52H694.791V267.52H696.791V265.52ZM696.791 221.905H698.791V219.905H696.791V221.905ZM682.344 221.905H680.344V223.905H682.344V221.905ZM682.344 217.136V215.136H680.344V217.136H682.344ZM717.043 217.136H719.043V215.136H717.043V217.136ZM717.043 221.905V223.905H719.043V221.905H717.043ZM702.597 221.905V219.905H700.597V221.905H702.597ZM702.597 265.52V267.52H704.597V265.52H702.597ZM698.791 265.52V221.905H694.791V265.52H698.791ZM696.791 219.905H682.344V223.905H696.791V219.905ZM684.344 221.905V217.136H680.344V221.905H684.344ZM682.344 219.136H717.043V215.136H682.344V219.136ZM715.043 217.136V221.905H719.043V217.136H715.043ZM717.043 219.905H702.597V223.905H717.043V219.905ZM700.597 221.905V265.52H704.597V221.905H700.597ZM702.597 263.52H696.791V267.52H702.597V263.52ZM724.132 265.52H722.132V267.52H724.132V265.52ZM724.132 217.136V215.136H722.132V217.136H724.132ZM730.906 217.136L732.683 216.218L732.124 215.136H730.906V217.136ZM748.324 250.867L746.547 251.784L748.331 255.239L750.104 251.778L748.324 250.867ZM765.604 217.136V215.136H764.382L763.824 216.224L765.604 217.136ZM772.447 217.136H774.447V215.136H772.447V217.136ZM772.447 265.52V267.52H774.447V265.52H772.447ZM766.641 265.52H764.641V267.52H766.641V265.52ZM766.641 227.504H768.641L764.867 226.581L766.641 227.504ZM750.467 258.608V260.608H751.681L752.241 259.531L750.467 258.608ZM746.112 258.608L744.339 259.532L744.899 260.608H746.112V258.608ZM729.938 227.573L731.712 226.649L727.938 227.573H729.938ZM729.938 265.52V267.52H731.938V265.52H729.938ZM726.132 265.52V217.136H722.132V265.52H726.132ZM724.132 219.136H730.906V215.136H724.132V219.136ZM729.129 218.054L746.547 251.784L750.101 249.949L732.683 216.218L729.129 218.054ZM750.104 251.778L767.384 218.048L763.824 216.224L746.544 249.955L750.104 251.778ZM765.604 219.136H772.447V215.136H765.604V219.136ZM770.447 217.136V265.52H774.447V217.136H770.447ZM772.447 263.52H766.641V267.52H772.447V263.52ZM768.641 265.52V227.504H764.641V265.52H768.641ZM764.867 226.581L748.693 257.685L752.241 259.531L768.416 228.427L764.867 226.581ZM750.467 256.608H746.112V260.608H750.467V256.608ZM747.886 257.684L731.712 226.649L728.165 228.497L744.339 259.532L747.886 257.684ZM727.938 227.573V265.52H731.938V227.573H727.938ZM729.938 263.52H724.132V267.52H729.938V263.52Z" fill="white" mask="url(#path-5-outside-3_46_1045)"/>
</svg>
