<svg version="1.2" xmlns="http://www.w3.org/2000/svg" viewBox="0 0 24 24" width="24" height="24"><style>.a{opacity:1;fill:#fff}</style><path fill-rule="evenodd" class="a" d="m19.6 2.2c0.4 0.1 0.7 0.4 0.7 0.7q0.1 0.5-2.7 3.8c-1.5 1.7-2.8 3.3-2.8 3.5 0 0.1 0.4 0.8 0.9 1.5 0.5 0.7 1.9 2.7 3.1 4.5 1.1 1.7 2.2 3.4 2.2 3.6 0.1 0.2 0 0.7-0.2 1.1-0.4 0.5-0.6 0.6-3 0.6q-2.6 0-3.1-0.4c-0.3-0.2-1.5-1.6-2.6-3.2-1.8-2.7-2-2.8-2.3-2.3-0.3 0.3-1.6 1.8-2.9 3.4-1.4 1.5-2.7 2.8-2.9 2.8-0.3 0-0.7-0.1-0.9-0.3-0.1-0.2-0.2-0.6-0.1-0.8 0.1-0.3 0.9-1.4 1.9-2.4 0.9-1.1 2.2-2.5 2.8-3.2 0.7-0.7 1.2-1.4 1.2-1.6 0-0.2-1.3-2.3-2.9-4.7-1.8-2.7-3-4.6-3-5 0-0.5 0.2-0.9 0.6-1 0.3-0.2 1.6-0.3 2.8-0.3 1.9 0 2.5 0.1 3 0.5 0.4 0.3 1.5 1.6 2.4 2.9 1 1.4 1.7 2.5 1.7 2.5 0 0 1.3-1.4 2.8-3.1 2.1-2.4 2.9-3.1 3.3-3.1zm-13.1 4c0.6 1 2.7 3.9 4.5 6.6 1.8 2.7 3.6 5.3 3.9 5.8 0.6 0.9 0.7 0.9 2.2 0.9h1.6c-6.8-10-9.1-13.4-9.5-14-0.7-1-0.8-1.1-2.3-1.1h-1.6z"/></svg>